G04 #@! TF.GenerationSoftware,KiCad,Pcbnew,5.0.2-bee76a0~70~ubuntu18.04.1*
G04 #@! TF.CreationDate,2019-01-29T19:41:56+01:00*
G04 #@! TF.ProjectId,ustepper_41_pololu,75737465-7070-4657-925f-34315f706f6c,rev?*
G04 #@! TF.SameCoordinates,Original*
G04 #@! TF.FileFunction,Legend,Top*
G04 #@! TF.FilePolarity,Positive*
%FSLAX46Y46*%
G04 Gerber Fmt 4.6, Leading zero omitted, Abs format (unit mm)*
G04 Created by KiCad (PCBNEW 5.0.2-bee76a0~70~ubuntu18.04.1) date mar 29 ene 2019 19:41:56 CET*
%MOMM*%
%LPD*%
G01*
G04 APERTURE LIST*
%ADD10C,0.200000*%
%ADD11C,0.300000*%
%ADD12C,0.100000*%
%ADD13C,0.120000*%
%ADD14C,0.150000*%
G04 APERTURE END LIST*
D10*
X202881086Y-68655105D02*
X202881086Y-68178915D01*
X203166800Y-68750343D02*
X202166800Y-68417010D01*
X203166800Y-68083677D01*
X202166800Y-67559867D02*
X202166800Y-67464629D01*
X202214420Y-67369391D01*
X202262039Y-67321772D01*
X202357277Y-67274153D01*
X202547753Y-67226534D01*
X202785848Y-67226534D01*
X202976324Y-67274153D01*
X203071562Y-67321772D01*
X203119181Y-67369391D01*
X203166800Y-67464629D01*
X203166800Y-67559867D01*
X203119181Y-67655105D01*
X203071562Y-67702724D01*
X202976324Y-67750343D01*
X202785848Y-67797962D01*
X202547753Y-67797962D01*
X202357277Y-67750343D01*
X202262039Y-67702724D01*
X202214420Y-67655105D01*
X202166800Y-67559867D01*
X202743926Y-71327185D02*
X202743926Y-70850995D01*
X203029640Y-71422423D02*
X202029640Y-71089090D01*
X203029640Y-70755757D01*
X203029640Y-69898614D02*
X203029640Y-70470042D01*
X203029640Y-70184328D02*
X202029640Y-70184328D01*
X202172498Y-70279566D01*
X202267736Y-70374804D01*
X202315355Y-70470042D01*
D11*
X205463162Y-76025568D02*
X205463162Y-74882711D01*
X204924291Y-62406622D02*
X206067148Y-62406622D01*
X205495720Y-62978051D02*
X205495720Y-61835194D01*
X165381571Y-57410442D02*
X166524428Y-57410442D01*
X165953000Y-57981871D02*
X165953000Y-56839014D01*
X197309371Y-57918442D02*
X198452228Y-57918442D01*
X197880800Y-58489871D02*
X197880800Y-57347014D01*
X204472171Y-80460942D02*
X205615028Y-80460942D01*
X205043600Y-81032371D02*
X205043600Y-79889514D01*
X172264971Y-80333942D02*
X173407828Y-80333942D01*
X172836400Y-80905371D02*
X172836400Y-79762514D01*
D10*
X167472893Y-69920857D02*
X167472893Y-70397047D01*
X167187179Y-69825619D02*
X168187179Y-70158952D01*
X167187179Y-70492285D01*
X167568131Y-70825619D02*
X167568131Y-71587523D01*
X167455113Y-66639177D02*
X167455113Y-67115367D01*
X167169399Y-66543939D02*
X168169399Y-66877272D01*
X167169399Y-67210605D01*
X167550351Y-67543939D02*
X167550351Y-68305843D01*
X167169399Y-67924891D02*
X167931303Y-67924891D01*
D11*
X164955242Y-75769028D02*
X164955242Y-74626171D01*
X164690691Y-62058642D02*
X165833548Y-62058642D01*
X165262120Y-62630071D02*
X165262120Y-61487214D01*
X180799371Y-74771342D02*
X181942228Y-74771342D01*
X181370800Y-75342771D02*
X181370800Y-74199914D01*
X188637811Y-82815522D02*
X189780668Y-82815522D01*
X180324391Y-82879022D02*
X181467248Y-82879022D01*
X180895820Y-83450451D02*
X180895820Y-82307594D01*
D12*
X178317980Y-54786919D02*
X178317980Y-54596442D01*
X178270361Y-54501204D01*
X178222742Y-54453585D01*
X178079885Y-54358347D01*
X177889409Y-54310728D01*
X177508457Y-54310728D01*
X177413219Y-54358347D01*
X177365600Y-54405966D01*
X177317980Y-54501204D01*
X177317980Y-54691680D01*
X177365600Y-54786919D01*
X177413219Y-54834538D01*
X177508457Y-54882157D01*
X177746552Y-54882157D01*
X177841790Y-54834538D01*
X177889409Y-54786919D01*
X177937028Y-54691680D01*
X177937028Y-54501204D01*
X177889409Y-54405966D01*
X177841790Y-54358347D01*
X177746552Y-54310728D01*
X177794171Y-53120252D02*
X177794171Y-52786919D01*
X178317980Y-52644061D02*
X178317980Y-53120252D01*
X177317980Y-53120252D01*
X177317980Y-52644061D01*
X178317980Y-52215490D02*
X177317980Y-52215490D01*
X178317980Y-51644061D01*
X177317980Y-51644061D01*
X176525976Y-77326380D02*
X175954547Y-77326380D01*
X176240261Y-77326380D02*
X176240261Y-76326380D01*
X176145023Y-76469238D01*
X176049785Y-76564476D01*
X175954547Y-76612095D01*
X177383119Y-76326380D02*
X177192642Y-76326380D01*
X177097404Y-76374000D01*
X177049785Y-76421619D01*
X176954547Y-76564476D01*
X176906928Y-76754952D01*
X176906928Y-77135904D01*
X176954547Y-77231142D01*
X177002166Y-77278761D01*
X177097404Y-77326380D01*
X177287880Y-77326380D01*
X177383119Y-77278761D01*
X177430738Y-77231142D01*
X177478357Y-77135904D01*
X177478357Y-76897809D01*
X177430738Y-76802571D01*
X177383119Y-76754952D01*
X177287880Y-76707333D01*
X177097404Y-76707333D01*
X177002166Y-76754952D01*
X176954547Y-76802571D01*
X176906928Y-76897809D01*
X178668833Y-77326380D02*
X178668833Y-76326380D01*
X178906928Y-76326380D01*
X179049785Y-76374000D01*
X179145023Y-76469238D01*
X179192642Y-76564476D01*
X179240261Y-76754952D01*
X179240261Y-76897809D01*
X179192642Y-77088285D01*
X179145023Y-77183523D01*
X179049785Y-77278761D01*
X178906928Y-77326380D01*
X178668833Y-77326380D01*
X179668833Y-77326380D02*
X179668833Y-76326380D01*
X180716452Y-77326380D02*
X180383119Y-76850190D01*
X180145023Y-77326380D02*
X180145023Y-76326380D01*
X180525976Y-76326380D01*
X180621214Y-76374000D01*
X180668833Y-76421619D01*
X180716452Y-76516857D01*
X180716452Y-76659714D01*
X180668833Y-76754952D01*
X180621214Y-76802571D01*
X180525976Y-76850190D01*
X180145023Y-76850190D01*
D11*
X175044091Y-49095171D02*
X175044091Y-50095171D01*
X174401234Y-49095171D02*
X174401234Y-49880885D01*
X174472662Y-50023742D01*
X174615520Y-50095171D01*
X174829805Y-50095171D01*
X174972662Y-50023742D01*
X175044091Y-49952314D01*
X175686948Y-50023742D02*
X175901234Y-50095171D01*
X176258377Y-50095171D01*
X176401234Y-50023742D01*
X176472662Y-49952314D01*
X176544091Y-49809457D01*
X176544091Y-49666600D01*
X176472662Y-49523742D01*
X176401234Y-49452314D01*
X176258377Y-49380885D01*
X175972662Y-49309457D01*
X175829805Y-49238028D01*
X175758377Y-49166600D01*
X175686948Y-49023742D01*
X175686948Y-48880885D01*
X175758377Y-48738028D01*
X175829805Y-48666600D01*
X175972662Y-48595171D01*
X176329805Y-48595171D01*
X176544091Y-48666600D01*
X176972662Y-49095171D02*
X177544091Y-49095171D01*
X177186948Y-48595171D02*
X177186948Y-49880885D01*
X177258377Y-50023742D01*
X177401234Y-50095171D01*
X177544091Y-50095171D01*
X178615520Y-50023742D02*
X178472662Y-50095171D01*
X178186948Y-50095171D01*
X178044091Y-50023742D01*
X177972662Y-49880885D01*
X177972662Y-49309457D01*
X178044091Y-49166600D01*
X178186948Y-49095171D01*
X178472662Y-49095171D01*
X178615520Y-49166600D01*
X178686948Y-49309457D01*
X178686948Y-49452314D01*
X177972662Y-49595171D01*
X179329805Y-49095171D02*
X179329805Y-50595171D01*
X179329805Y-49166600D02*
X179472662Y-49095171D01*
X179758377Y-49095171D01*
X179901234Y-49166600D01*
X179972662Y-49238028D01*
X180044091Y-49380885D01*
X180044091Y-49809457D01*
X179972662Y-49952314D01*
X179901234Y-50023742D01*
X179758377Y-50095171D01*
X179472662Y-50095171D01*
X179329805Y-50023742D01*
X180686948Y-49095171D02*
X180686948Y-50595171D01*
X180686948Y-49166600D02*
X180829805Y-49095171D01*
X181115520Y-49095171D01*
X181258377Y-49166600D01*
X181329805Y-49238028D01*
X181401234Y-49380885D01*
X181401234Y-49809457D01*
X181329805Y-49952314D01*
X181258377Y-50023742D01*
X181115520Y-50095171D01*
X180829805Y-50095171D01*
X180686948Y-50023742D01*
X182615520Y-50023742D02*
X182472662Y-50095171D01*
X182186948Y-50095171D01*
X182044091Y-50023742D01*
X181972662Y-49880885D01*
X181972662Y-49309457D01*
X182044091Y-49166600D01*
X182186948Y-49095171D01*
X182472662Y-49095171D01*
X182615520Y-49166600D01*
X182686948Y-49309457D01*
X182686948Y-49452314D01*
X181972662Y-49595171D01*
X183329805Y-50095171D02*
X183329805Y-49095171D01*
X183329805Y-49380885D02*
X183401234Y-49238028D01*
X183472662Y-49166600D01*
X183615520Y-49095171D01*
X183758377Y-49095171D01*
X186044091Y-50095171D02*
X186044091Y-49309457D01*
X185972662Y-49166600D01*
X185829805Y-49095171D01*
X185544091Y-49095171D01*
X185401234Y-49166600D01*
X186044091Y-50023742D02*
X185901234Y-50095171D01*
X185544091Y-50095171D01*
X185401234Y-50023742D01*
X185329805Y-49880885D01*
X185329805Y-49738028D01*
X185401234Y-49595171D01*
X185544091Y-49523742D01*
X185901234Y-49523742D01*
X186044091Y-49452314D01*
X187686948Y-49095171D02*
X188258377Y-49095171D01*
X187901234Y-48595171D02*
X187901234Y-49880885D01*
X187972662Y-50023742D01*
X188115520Y-50095171D01*
X188258377Y-50095171D01*
X188758377Y-50095171D02*
X188758377Y-49095171D01*
X188758377Y-49380885D02*
X188829805Y-49238028D01*
X188901234Y-49166600D01*
X189044091Y-49095171D01*
X189186948Y-49095171D01*
X189901234Y-50095171D02*
X189758377Y-50023742D01*
X189686948Y-49952314D01*
X189615520Y-49809457D01*
X189615520Y-49380885D01*
X189686948Y-49238028D01*
X189758377Y-49166600D01*
X189901234Y-49095171D01*
X190115520Y-49095171D01*
X190258377Y-49166600D01*
X190329805Y-49238028D01*
X190401234Y-49380885D01*
X190401234Y-49809457D01*
X190329805Y-49952314D01*
X190258377Y-50023742D01*
X190115520Y-50095171D01*
X189901234Y-50095171D01*
X190901234Y-49095171D02*
X191686948Y-49095171D01*
X190901234Y-50095171D01*
X191686948Y-50095171D01*
X192472662Y-50095171D02*
X192329805Y-50023742D01*
X192258377Y-49952314D01*
X192186948Y-49809457D01*
X192186948Y-49380885D01*
X192258377Y-49238028D01*
X192329805Y-49166600D01*
X192472662Y-49095171D01*
X192686948Y-49095171D01*
X192829805Y-49166600D01*
X192901234Y-49238028D01*
X192972662Y-49380885D01*
X192972662Y-49809457D01*
X192901234Y-49952314D01*
X192829805Y-50023742D01*
X192686948Y-50095171D01*
X192472662Y-50095171D01*
X193544091Y-50023742D02*
X193686948Y-50095171D01*
X193972662Y-50095171D01*
X194115520Y-50023742D01*
X194186948Y-49880885D01*
X194186948Y-49809457D01*
X194115520Y-49666600D01*
X193972662Y-49595171D01*
X193758377Y-49595171D01*
X193615520Y-49523742D01*
X193544091Y-49380885D01*
X193544091Y-49309457D01*
X193615520Y-49166600D01*
X193758377Y-49095171D01*
X193972662Y-49095171D01*
X194115520Y-49166600D01*
X195829805Y-49095171D02*
X196186948Y-50095171D01*
X196544091Y-49095171D01*
X197758377Y-49095171D02*
X197758377Y-50095171D01*
X197401234Y-48523742D02*
X197044091Y-49595171D01*
X197972662Y-49595171D01*
D12*
X191169052Y-77313680D02*
X190597623Y-77313680D01*
X190883338Y-77313680D02*
X190883338Y-76313680D01*
X190788100Y-76456538D01*
X190692861Y-76551776D01*
X190597623Y-76599395D01*
X192883338Y-76361300D02*
X192788100Y-76313680D01*
X192645242Y-76313680D01*
X192502385Y-76361300D01*
X192407147Y-76456538D01*
X192359528Y-76551776D01*
X192311909Y-76742252D01*
X192311909Y-76885109D01*
X192359528Y-77075585D01*
X192407147Y-77170823D01*
X192502385Y-77266061D01*
X192645242Y-77313680D01*
X192740480Y-77313680D01*
X192883338Y-77266061D01*
X192930957Y-77218442D01*
X192930957Y-76885109D01*
X192740480Y-76885109D01*
X193359528Y-77313680D02*
X193359528Y-76313680D01*
X193930957Y-77313680D01*
X193930957Y-76313680D01*
X194407147Y-77313680D02*
X194407147Y-76313680D01*
X194645242Y-76313680D01*
X194788100Y-76361300D01*
X194883338Y-76456538D01*
X194930957Y-76551776D01*
X194978576Y-76742252D01*
X194978576Y-76885109D01*
X194930957Y-77075585D01*
X194883338Y-77170823D01*
X194788100Y-77266061D01*
X194645242Y-77313680D01*
X194407147Y-77313680D01*
X192859552Y-54563090D02*
X192811933Y-54658328D01*
X192764314Y-54705947D01*
X192669076Y-54753566D01*
X192621457Y-54753566D01*
X192526219Y-54705947D01*
X192478600Y-54658328D01*
X192430980Y-54563090D01*
X192430980Y-54372614D01*
X192478600Y-54277376D01*
X192526219Y-54229757D01*
X192621457Y-54182138D01*
X192669076Y-54182138D01*
X192764314Y-54229757D01*
X192811933Y-54277376D01*
X192859552Y-54372614D01*
X192859552Y-54563090D01*
X192907171Y-54658328D01*
X192954790Y-54705947D01*
X193050028Y-54753566D01*
X193240504Y-54753566D01*
X193335742Y-54705947D01*
X193383361Y-54658328D01*
X193430980Y-54563090D01*
X193430980Y-54372614D01*
X193383361Y-54277376D01*
X193335742Y-54229757D01*
X193240504Y-54182138D01*
X193050028Y-54182138D01*
X192954790Y-54229757D01*
X192907171Y-54277376D01*
X192859552Y-54372614D01*
X192430980Y-53134519D02*
X193430980Y-52801185D01*
X192430980Y-52467852D01*
X193430980Y-52134519D02*
X192430980Y-52134519D01*
X193145266Y-51801185D01*
X192430980Y-51467852D01*
X193430980Y-51467852D01*
X188685074Y-54725460D02*
X188113645Y-54725460D01*
X188399360Y-54725460D02*
X188399360Y-53725460D01*
X188304121Y-53868318D01*
X188208883Y-53963556D01*
X188113645Y-54011175D01*
X189446979Y-54201651D02*
X189589836Y-54249270D01*
X189637455Y-54296889D01*
X189685074Y-54392127D01*
X189685074Y-54534984D01*
X189637455Y-54630222D01*
X189589836Y-54677841D01*
X189494598Y-54725460D01*
X189113645Y-54725460D01*
X189113645Y-53725460D01*
X189446979Y-53725460D01*
X189542217Y-53773080D01*
X189589836Y-53820699D01*
X189637455Y-53915937D01*
X189637455Y-54011175D01*
X189589836Y-54106413D01*
X189542217Y-54154032D01*
X189446979Y-54201651D01*
X189113645Y-54201651D01*
X186318102Y-54725460D02*
X185746674Y-54725460D01*
X186032388Y-54725460D02*
X186032388Y-53725460D01*
X185937150Y-53868318D01*
X185841912Y-53963556D01*
X185746674Y-54011175D01*
X186699055Y-54439746D02*
X187175245Y-54439746D01*
X186603817Y-54725460D02*
X186937150Y-53725460D01*
X187270483Y-54725460D01*
X183460674Y-53820699D02*
X183508293Y-53773080D01*
X183603531Y-53725460D01*
X183841626Y-53725460D01*
X183936864Y-53773080D01*
X183984483Y-53820699D01*
X184032102Y-53915937D01*
X184032102Y-54011175D01*
X183984483Y-54154032D01*
X183413055Y-54725460D01*
X184032102Y-54725460D01*
X184413055Y-54439746D02*
X184889245Y-54439746D01*
X184317817Y-54725460D02*
X184651150Y-53725460D01*
X184984483Y-54725460D01*
X180747645Y-53820699D02*
X180795264Y-53773080D01*
X180890502Y-53725460D01*
X181128598Y-53725460D01*
X181223836Y-53773080D01*
X181271455Y-53820699D01*
X181319074Y-53915937D01*
X181319074Y-54011175D01*
X181271455Y-54154032D01*
X180700026Y-54725460D01*
X181319074Y-54725460D01*
X182080979Y-54201651D02*
X182223836Y-54249270D01*
X182271455Y-54296889D01*
X182319074Y-54392127D01*
X182319074Y-54534984D01*
X182271455Y-54630222D01*
X182223836Y-54677841D01*
X182128598Y-54725460D01*
X181747645Y-54725460D01*
X181747645Y-53725460D01*
X182080979Y-53725460D01*
X182176217Y-53773080D01*
X182223836Y-53820699D01*
X182271455Y-53915937D01*
X182271455Y-54011175D01*
X182223836Y-54106413D01*
X182176217Y-54154032D01*
X182080979Y-54201651D01*
X181747645Y-54201651D01*
X188152695Y-74608700D02*
X188057457Y-74561080D01*
X187914600Y-74561080D01*
X187771742Y-74608700D01*
X187676504Y-74703938D01*
X187628885Y-74799176D01*
X187581266Y-74989652D01*
X187581266Y-75132509D01*
X187628885Y-75322985D01*
X187676504Y-75418223D01*
X187771742Y-75513461D01*
X187914600Y-75561080D01*
X188009838Y-75561080D01*
X188152695Y-75513461D01*
X188200314Y-75465842D01*
X188200314Y-75132509D01*
X188009838Y-75132509D01*
X188628885Y-75561080D02*
X188628885Y-74561080D01*
X189200314Y-75561080D01*
X189200314Y-74561080D01*
X189676504Y-75561080D02*
X189676504Y-74561080D01*
X189914600Y-74561080D01*
X190057457Y-74608700D01*
X190152695Y-74703938D01*
X190200314Y-74799176D01*
X190247933Y-74989652D01*
X190247933Y-75132509D01*
X190200314Y-75322985D01*
X190152695Y-75418223D01*
X190057457Y-75513461D01*
X189914600Y-75561080D01*
X189676504Y-75561080D01*
D11*
X176938571Y-87852342D02*
X178081428Y-87852342D01*
X177510000Y-88423771D02*
X177510000Y-87280914D01*
D10*
X164400000Y-86000000D02*
X164400000Y-52600000D01*
X168600000Y-90200000D02*
X164400000Y-86000000D01*
X202000000Y-90200000D02*
X168600000Y-90200000D01*
X206300000Y-85900000D02*
X202000000Y-90200000D01*
X206300000Y-52700000D02*
X206300000Y-85900000D01*
X201900000Y-48300000D02*
X206300000Y-52700000D01*
X168600000Y-48300000D02*
X201900000Y-48300000D01*
X164400000Y-52600000D02*
X168600000Y-48300000D01*
D13*
G04 #@! TO.C,A1*
X180100800Y-75937200D02*
X180100800Y-55357200D01*
X190260800Y-73267200D02*
X190260800Y-55357200D01*
X191530800Y-75937200D02*
X192930800Y-75937200D01*
X192930800Y-75937200D02*
X192930800Y-74537200D01*
X190260800Y-75937200D02*
X190260800Y-73267200D01*
X190260800Y-73267200D02*
X192930800Y-73267200D01*
X192930800Y-73267200D02*
X192930800Y-55357200D01*
X192930800Y-55357200D02*
X177430800Y-55357200D01*
X177430800Y-55357200D02*
X177430800Y-75937200D01*
X177430800Y-75937200D02*
X190260800Y-75937200D01*
G04 #@! TO.C,J3*
X179213200Y-84268200D02*
X179213200Y-96428200D01*
X179213200Y-96428200D02*
X191373200Y-96428200D01*
X191373200Y-96428200D02*
X191373200Y-84268200D01*
X191373200Y-84268200D02*
X179213200Y-84268200D01*
X179213200Y-94928200D02*
X179213200Y-93128200D01*
X179213200Y-93128200D02*
X191373200Y-93128200D01*
X191373200Y-93128200D02*
X191373200Y-94928200D01*
X191373200Y-94928200D02*
X179213200Y-94928200D01*
X181793200Y-96428200D02*
X183793200Y-96428200D01*
X183793200Y-96428200D02*
X183543200Y-94928200D01*
X183543200Y-94928200D02*
X182043200Y-94928200D01*
X182043200Y-94928200D02*
X181793200Y-96428200D01*
X186793200Y-96428200D02*
X188793200Y-96428200D01*
X188793200Y-96428200D02*
X188543200Y-94928200D01*
X188543200Y-94928200D02*
X187043200Y-94928200D01*
X187043200Y-94928200D02*
X186793200Y-96428200D01*
X183093200Y-83468200D02*
X182793200Y-84068200D01*
X182793200Y-84068200D02*
X182493200Y-83468200D01*
X182493200Y-83468200D02*
X183093200Y-83468200D01*
G04 #@! TO.C,J9*
X180294800Y-50804400D02*
X180294800Y-53464400D01*
X187974800Y-50804400D02*
X180294800Y-50804400D01*
X187974800Y-53464400D02*
X180294800Y-53464400D01*
X187974800Y-50804400D02*
X187974800Y-53464400D01*
X189244800Y-50804400D02*
X190574800Y-50804400D01*
X190574800Y-50804400D02*
X190574800Y-52134400D01*
G04 #@! TO.C,C1*
X188507000Y-72192780D02*
G75*
G03X188507000Y-72192780I-3270000J0D01*
G01*
X185237000Y-68962780D02*
X185237000Y-75422780D01*
X185277000Y-68962780D02*
X185277000Y-75422780D01*
X185317000Y-68962780D02*
X185317000Y-75422780D01*
X185357000Y-68964780D02*
X185357000Y-75420780D01*
X185397000Y-68965780D02*
X185397000Y-75419780D01*
X185437000Y-68968780D02*
X185437000Y-75416780D01*
X185477000Y-68970780D02*
X185477000Y-71152780D01*
X185477000Y-73232780D02*
X185477000Y-75414780D01*
X185517000Y-68974780D02*
X185517000Y-71152780D01*
X185517000Y-73232780D02*
X185517000Y-75410780D01*
X185557000Y-68977780D02*
X185557000Y-71152780D01*
X185557000Y-73232780D02*
X185557000Y-75407780D01*
X185597000Y-68981780D02*
X185597000Y-71152780D01*
X185597000Y-73232780D02*
X185597000Y-75403780D01*
X185637000Y-68986780D02*
X185637000Y-71152780D01*
X185637000Y-73232780D02*
X185637000Y-75398780D01*
X185677000Y-68991780D02*
X185677000Y-71152780D01*
X185677000Y-73232780D02*
X185677000Y-75393780D01*
X185717000Y-68997780D02*
X185717000Y-71152780D01*
X185717000Y-73232780D02*
X185717000Y-75387780D01*
X185757000Y-69003780D02*
X185757000Y-71152780D01*
X185757000Y-73232780D02*
X185757000Y-75381780D01*
X185797000Y-69010780D02*
X185797000Y-71152780D01*
X185797000Y-73232780D02*
X185797000Y-75374780D01*
X185837000Y-69017780D02*
X185837000Y-71152780D01*
X185837000Y-73232780D02*
X185837000Y-75367780D01*
X185877000Y-69025780D02*
X185877000Y-71152780D01*
X185877000Y-73232780D02*
X185877000Y-75359780D01*
X185917000Y-69033780D02*
X185917000Y-71152780D01*
X185917000Y-73232780D02*
X185917000Y-75351780D01*
X185958000Y-69042780D02*
X185958000Y-71152780D01*
X185958000Y-73232780D02*
X185958000Y-75342780D01*
X185998000Y-69051780D02*
X185998000Y-71152780D01*
X185998000Y-73232780D02*
X185998000Y-75333780D01*
X186038000Y-69061780D02*
X186038000Y-71152780D01*
X186038000Y-73232780D02*
X186038000Y-75323780D01*
X186078000Y-69071780D02*
X186078000Y-71152780D01*
X186078000Y-73232780D02*
X186078000Y-75313780D01*
X186118000Y-69082780D02*
X186118000Y-71152780D01*
X186118000Y-73232780D02*
X186118000Y-75302780D01*
X186158000Y-69094780D02*
X186158000Y-71152780D01*
X186158000Y-73232780D02*
X186158000Y-75290780D01*
X186198000Y-69106780D02*
X186198000Y-71152780D01*
X186198000Y-73232780D02*
X186198000Y-75278780D01*
X186238000Y-69118780D02*
X186238000Y-71152780D01*
X186238000Y-73232780D02*
X186238000Y-75266780D01*
X186278000Y-69131780D02*
X186278000Y-71152780D01*
X186278000Y-73232780D02*
X186278000Y-75253780D01*
X186318000Y-69145780D02*
X186318000Y-71152780D01*
X186318000Y-73232780D02*
X186318000Y-75239780D01*
X186358000Y-69159780D02*
X186358000Y-71152780D01*
X186358000Y-73232780D02*
X186358000Y-75225780D01*
X186398000Y-69174780D02*
X186398000Y-71152780D01*
X186398000Y-73232780D02*
X186398000Y-75210780D01*
X186438000Y-69190780D02*
X186438000Y-71152780D01*
X186438000Y-73232780D02*
X186438000Y-75194780D01*
X186478000Y-69206780D02*
X186478000Y-71152780D01*
X186478000Y-73232780D02*
X186478000Y-75178780D01*
X186518000Y-69222780D02*
X186518000Y-71152780D01*
X186518000Y-73232780D02*
X186518000Y-75162780D01*
X186558000Y-69240780D02*
X186558000Y-71152780D01*
X186558000Y-73232780D02*
X186558000Y-75144780D01*
X186598000Y-69258780D02*
X186598000Y-71152780D01*
X186598000Y-73232780D02*
X186598000Y-75126780D01*
X186638000Y-69276780D02*
X186638000Y-71152780D01*
X186638000Y-73232780D02*
X186638000Y-75108780D01*
X186678000Y-69296780D02*
X186678000Y-71152780D01*
X186678000Y-73232780D02*
X186678000Y-75088780D01*
X186718000Y-69316780D02*
X186718000Y-71152780D01*
X186718000Y-73232780D02*
X186718000Y-75068780D01*
X186758000Y-69336780D02*
X186758000Y-71152780D01*
X186758000Y-73232780D02*
X186758000Y-75048780D01*
X186798000Y-69358780D02*
X186798000Y-71152780D01*
X186798000Y-73232780D02*
X186798000Y-75026780D01*
X186838000Y-69380780D02*
X186838000Y-71152780D01*
X186838000Y-73232780D02*
X186838000Y-75004780D01*
X186878000Y-69402780D02*
X186878000Y-71152780D01*
X186878000Y-73232780D02*
X186878000Y-74982780D01*
X186918000Y-69426780D02*
X186918000Y-71152780D01*
X186918000Y-73232780D02*
X186918000Y-74958780D01*
X186958000Y-69450780D02*
X186958000Y-71152780D01*
X186958000Y-73232780D02*
X186958000Y-74934780D01*
X186998000Y-69476780D02*
X186998000Y-71152780D01*
X186998000Y-73232780D02*
X186998000Y-74908780D01*
X187038000Y-69502780D02*
X187038000Y-71152780D01*
X187038000Y-73232780D02*
X187038000Y-74882780D01*
X187078000Y-69528780D02*
X187078000Y-71152780D01*
X187078000Y-73232780D02*
X187078000Y-74856780D01*
X187118000Y-69556780D02*
X187118000Y-71152780D01*
X187118000Y-73232780D02*
X187118000Y-74828780D01*
X187158000Y-69585780D02*
X187158000Y-71152780D01*
X187158000Y-73232780D02*
X187158000Y-74799780D01*
X187198000Y-69614780D02*
X187198000Y-71152780D01*
X187198000Y-73232780D02*
X187198000Y-74770780D01*
X187238000Y-69644780D02*
X187238000Y-71152780D01*
X187238000Y-73232780D02*
X187238000Y-74740780D01*
X187278000Y-69676780D02*
X187278000Y-71152780D01*
X187278000Y-73232780D02*
X187278000Y-74708780D01*
X187318000Y-69708780D02*
X187318000Y-71152780D01*
X187318000Y-73232780D02*
X187318000Y-74676780D01*
X187358000Y-69742780D02*
X187358000Y-71152780D01*
X187358000Y-73232780D02*
X187358000Y-74642780D01*
X187398000Y-69776780D02*
X187398000Y-71152780D01*
X187398000Y-73232780D02*
X187398000Y-74608780D01*
X187438000Y-69812780D02*
X187438000Y-71152780D01*
X187438000Y-73232780D02*
X187438000Y-74572780D01*
X187478000Y-69849780D02*
X187478000Y-71152780D01*
X187478000Y-73232780D02*
X187478000Y-74535780D01*
X187518000Y-69887780D02*
X187518000Y-71152780D01*
X187518000Y-73232780D02*
X187518000Y-74497780D01*
X187558000Y-69927780D02*
X187558000Y-74457780D01*
X187598000Y-69968780D02*
X187598000Y-74416780D01*
X187638000Y-70010780D02*
X187638000Y-74374780D01*
X187678000Y-70055780D02*
X187678000Y-74329780D01*
X187718000Y-70100780D02*
X187718000Y-74284780D01*
X187758000Y-70148780D02*
X187758000Y-74236780D01*
X187798000Y-70197780D02*
X187798000Y-74187780D01*
X187838000Y-70248780D02*
X187838000Y-74136780D01*
X187878000Y-70302780D02*
X187878000Y-74082780D01*
X187918000Y-70358780D02*
X187918000Y-74026780D01*
X187958000Y-70416780D02*
X187958000Y-73968780D01*
X187998000Y-70478780D02*
X187998000Y-73906780D01*
X188038000Y-70542780D02*
X188038000Y-73842780D01*
X188078000Y-70611780D02*
X188078000Y-73773780D01*
X188118000Y-70683780D02*
X188118000Y-73701780D01*
X188158000Y-70760780D02*
X188158000Y-73624780D01*
X188198000Y-70842780D02*
X188198000Y-73542780D01*
X188238000Y-70930780D02*
X188238000Y-73454780D01*
X188278000Y-71027780D02*
X188278000Y-73357780D01*
X188318000Y-71133780D02*
X188318000Y-73251780D01*
X188358000Y-71252780D02*
X188358000Y-73132780D01*
X188398000Y-71390780D02*
X188398000Y-72994780D01*
X188438000Y-71559780D02*
X188438000Y-72825780D01*
X188478000Y-71790780D02*
X188478000Y-72594780D01*
X181736759Y-70353780D02*
X182366759Y-70353780D01*
X182051759Y-70038780D02*
X182051759Y-70668780D01*
G04 #@! TO.C,D1*
X199313560Y-59063140D02*
X203373560Y-59063140D01*
X203373560Y-59063140D02*
X203373560Y-56793140D01*
X203373560Y-56793140D02*
X199313560Y-56793140D01*
G04 #@! TO.C,D2*
X198684700Y-81445620D02*
X202744700Y-81445620D01*
X198684700Y-79175620D02*
X198684700Y-81445620D01*
X202744700Y-79175620D02*
X198684700Y-79175620D01*
G04 #@! TO.C,D3*
X168201100Y-58590700D02*
X172261100Y-58590700D01*
X172261100Y-58590700D02*
X172261100Y-56320700D01*
X172261100Y-56320700D02*
X168201100Y-56320700D01*
G04 #@! TO.C,D4*
X167391900Y-81260200D02*
X171451900Y-81260200D01*
X167391900Y-78990200D02*
X167391900Y-81260200D01*
X171451900Y-78990200D02*
X167391900Y-78990200D01*
G04 #@! TO.C,J4*
X203253860Y-66505720D02*
X205913860Y-66505720D01*
X203253860Y-66505720D02*
X203253860Y-74185720D01*
X203253860Y-74185720D02*
X205913860Y-74185720D01*
X205913860Y-66505720D02*
X205913860Y-74185720D01*
X205913860Y-63905720D02*
X205913860Y-65235720D01*
X204583860Y-63905720D02*
X205913860Y-63905720D01*
G04 #@! TO.C,R1*
X203136740Y-61814256D02*
X203136740Y-63018384D01*
X201316740Y-61814256D02*
X201316740Y-63018384D01*
G04 #@! TO.C,R2*
X198525280Y-61890456D02*
X198525280Y-63094584D01*
X200345280Y-61890456D02*
X200345280Y-63094584D01*
G04 #@! TO.C,R3*
X200365600Y-75850464D02*
X200365600Y-74646336D01*
X198545600Y-75850464D02*
X198545600Y-74646336D01*
G04 #@! TO.C,R4*
X201108460Y-75850464D02*
X201108460Y-74646336D01*
X202928460Y-75850464D02*
X202928460Y-74646336D01*
G04 #@! TO.C,R5*
X170465900Y-61534856D02*
X170465900Y-62738984D01*
X172285900Y-61534856D02*
X172285900Y-62738984D01*
G04 #@! TO.C,R6*
X169367440Y-61430716D02*
X169367440Y-62634844D01*
X167547440Y-61430716D02*
X167547440Y-62634844D01*
G04 #@! TO.C,R7*
X169456340Y-76013024D02*
X169456340Y-74808896D01*
X167636340Y-76013024D02*
X167636340Y-74808896D01*
G04 #@! TO.C,R8*
X170224600Y-76040964D02*
X170224600Y-74836836D01*
X172044600Y-76040964D02*
X172044600Y-74836836D01*
G04 #@! TO.C,J6*
X187745240Y-84091720D02*
X187745240Y-81431720D01*
X185145240Y-84091720D02*
X187745240Y-84091720D01*
X185145240Y-81431720D02*
X187745240Y-81431720D01*
X185145240Y-84091720D02*
X185145240Y-81431720D01*
X183875240Y-84091720D02*
X182545240Y-84091720D01*
X182545240Y-84091720D02*
X182545240Y-82761720D01*
G04 #@! TO.C,J5*
X164061660Y-73949500D02*
X166721660Y-73949500D01*
X164061660Y-66269500D02*
X164061660Y-73949500D01*
X166721660Y-66269500D02*
X166721660Y-73949500D01*
X164061660Y-66269500D02*
X166721660Y-66269500D01*
X164061660Y-64999500D02*
X164061660Y-63669500D01*
X164061660Y-63669500D02*
X165391660Y-63669500D01*
G04 #@! TO.C,RV_DER*
X193273240Y-82112459D02*
X194603240Y-82112459D01*
X194603240Y-82112459D02*
X194603240Y-83442459D01*
X194603240Y-84712459D02*
X194603240Y-89852459D01*
X191943240Y-89852459D02*
X194603240Y-89852459D01*
X191943240Y-84712459D02*
X191943240Y-89852459D01*
X191943240Y-84712459D02*
X194603240Y-84712459D01*
G04 #@! TO.C,RV_IZQ*
X176423840Y-84712459D02*
X179083840Y-84712459D01*
X176423840Y-84712459D02*
X176423840Y-89852459D01*
X176423840Y-89852459D02*
X179083840Y-89852459D01*
X179083840Y-84712459D02*
X179083840Y-89852459D01*
X179083840Y-82112459D02*
X179083840Y-83442459D01*
X177753840Y-82112459D02*
X179083840Y-82112459D01*
G04 #@! TO.C,A1*
D14*
X184745914Y-60009966D02*
X185222104Y-60009966D01*
X184650676Y-60295680D02*
X184984009Y-59295680D01*
X185317342Y-60295680D01*
X186174485Y-60295680D02*
X185603057Y-60295680D01*
X185888771Y-60295680D02*
X185888771Y-59295680D01*
X185793533Y-59438538D01*
X185698295Y-59533776D01*
X185603057Y-59581395D01*
X183253842Y-61603780D02*
X183253842Y-60603780D01*
X183634795Y-60603780D01*
X183730033Y-60651400D01*
X183777652Y-60699019D01*
X183825271Y-60794257D01*
X183825271Y-60937114D01*
X183777652Y-61032352D01*
X183730033Y-61079971D01*
X183634795Y-61127590D01*
X183253842Y-61127590D01*
X184396700Y-61603780D02*
X184301461Y-61556161D01*
X184253842Y-61508542D01*
X184206223Y-61413304D01*
X184206223Y-61127590D01*
X184253842Y-61032352D01*
X184301461Y-60984733D01*
X184396700Y-60937114D01*
X184539557Y-60937114D01*
X184634795Y-60984733D01*
X184682414Y-61032352D01*
X184730033Y-61127590D01*
X184730033Y-61413304D01*
X184682414Y-61508542D01*
X184634795Y-61556161D01*
X184539557Y-61603780D01*
X184396700Y-61603780D01*
X185301461Y-61603780D02*
X185206223Y-61556161D01*
X185158604Y-61460923D01*
X185158604Y-60603780D01*
X185825271Y-61603780D02*
X185730033Y-61556161D01*
X185682414Y-61508542D01*
X185634795Y-61413304D01*
X185634795Y-61127590D01*
X185682414Y-61032352D01*
X185730033Y-60984733D01*
X185825271Y-60937114D01*
X185968128Y-60937114D01*
X186063366Y-60984733D01*
X186110985Y-61032352D01*
X186158604Y-61127590D01*
X186158604Y-61413304D01*
X186110985Y-61508542D01*
X186063366Y-61556161D01*
X185968128Y-61603780D01*
X185825271Y-61603780D01*
X186730033Y-61603780D02*
X186634795Y-61556161D01*
X186587176Y-61460923D01*
X186587176Y-60603780D01*
X187539557Y-60937114D02*
X187539557Y-61603780D01*
X187110985Y-60937114D02*
X187110985Y-61460923D01*
X187158604Y-61556161D01*
X187253842Y-61603780D01*
X187396700Y-61603780D01*
X187491938Y-61556161D01*
X187539557Y-61508542D01*
G04 #@! TO.C,J3*
X185025266Y-87261080D02*
X185025266Y-87975366D01*
X184977647Y-88118223D01*
X184882409Y-88213461D01*
X184739552Y-88261080D01*
X184644314Y-88261080D01*
X185406219Y-87261080D02*
X186025266Y-87261080D01*
X185691933Y-87642033D01*
X185834790Y-87642033D01*
X185930028Y-87689652D01*
X185977647Y-87737271D01*
X186025266Y-87832509D01*
X186025266Y-88070604D01*
X185977647Y-88165842D01*
X185930028Y-88213461D01*
X185834790Y-88261080D01*
X185549076Y-88261080D01*
X185453838Y-88213461D01*
X185406219Y-88165842D01*
G04 #@! TO.C,C1*
X185268133Y-66753642D02*
X185220514Y-66801261D01*
X185077657Y-66848880D01*
X184982419Y-66848880D01*
X184839561Y-66801261D01*
X184744323Y-66706023D01*
X184696704Y-66610785D01*
X184649085Y-66420309D01*
X184649085Y-66277452D01*
X184696704Y-66086976D01*
X184744323Y-65991738D01*
X184839561Y-65896500D01*
X184982419Y-65848880D01*
X185077657Y-65848880D01*
X185220514Y-65896500D01*
X185268133Y-65944119D01*
X186220514Y-66848880D02*
X185649085Y-66848880D01*
X185934800Y-66848880D02*
X185934800Y-65848880D01*
X185839561Y-65991738D01*
X185744323Y-66086976D01*
X185649085Y-66134595D01*
X183887180Y-68258580D02*
X183315752Y-68258580D01*
X183601466Y-68258580D02*
X183601466Y-67258580D01*
X183506228Y-67401438D01*
X183410990Y-67496676D01*
X183315752Y-67544295D01*
X184506228Y-67258580D02*
X184601466Y-67258580D01*
X184696704Y-67306200D01*
X184744323Y-67353819D01*
X184791942Y-67449057D01*
X184839561Y-67639533D01*
X184839561Y-67877628D01*
X184791942Y-68068104D01*
X184744323Y-68163342D01*
X184696704Y-68210961D01*
X184601466Y-68258580D01*
X184506228Y-68258580D01*
X184410990Y-68210961D01*
X184363371Y-68163342D01*
X184315752Y-68068104D01*
X184268133Y-67877628D01*
X184268133Y-67639533D01*
X184315752Y-67449057D01*
X184363371Y-67353819D01*
X184410990Y-67306200D01*
X184506228Y-67258580D01*
X185458609Y-67258580D02*
X185553847Y-67258580D01*
X185649085Y-67306200D01*
X185696704Y-67353819D01*
X185744323Y-67449057D01*
X185791942Y-67639533D01*
X185791942Y-67877628D01*
X185744323Y-68068104D01*
X185696704Y-68163342D01*
X185649085Y-68210961D01*
X185553847Y-68258580D01*
X185458609Y-68258580D01*
X185363371Y-68210961D01*
X185315752Y-68163342D01*
X185268133Y-68068104D01*
X185220514Y-67877628D01*
X185220514Y-67639533D01*
X185268133Y-67449057D01*
X185315752Y-67353819D01*
X185363371Y-67306200D01*
X185458609Y-67258580D01*
X186649085Y-67591914D02*
X186649085Y-68258580D01*
X186220514Y-67591914D02*
X186220514Y-68115723D01*
X186268133Y-68210961D01*
X186363371Y-68258580D01*
X186506228Y-68258580D01*
X186601466Y-68210961D01*
X186649085Y-68163342D01*
X187458609Y-67734771D02*
X187125276Y-67734771D01*
X187125276Y-68258580D02*
X187125276Y-67258580D01*
X187601466Y-67258580D01*
G04 #@! TO.C,D1*
X198285704Y-56333280D02*
X198285704Y-55333280D01*
X198523800Y-55333280D01*
X198666657Y-55380900D01*
X198761895Y-55476138D01*
X198809514Y-55571376D01*
X198857133Y-55761852D01*
X198857133Y-55904709D01*
X198809514Y-56095185D01*
X198761895Y-56190423D01*
X198666657Y-56285661D01*
X198523800Y-56333280D01*
X198285704Y-56333280D01*
X199809514Y-56333280D02*
X199238085Y-56333280D01*
X199523800Y-56333280D02*
X199523800Y-55333280D01*
X199428561Y-55476138D01*
X199333323Y-55571376D01*
X199238085Y-55618995D01*
X202444895Y-56307880D02*
X202444895Y-55784071D01*
X202397276Y-55688833D01*
X202302038Y-55641214D01*
X202111561Y-55641214D01*
X202016323Y-55688833D01*
X202444895Y-56260261D02*
X202349657Y-56307880D01*
X202111561Y-56307880D01*
X202016323Y-56260261D01*
X201968704Y-56165023D01*
X201968704Y-56069785D01*
X202016323Y-55974547D01*
X202111561Y-55926928D01*
X202349657Y-55926928D01*
X202444895Y-55879309D01*
X203111561Y-55307880D02*
X203206800Y-55307880D01*
X203302038Y-55355500D01*
X203349657Y-55403119D01*
X203397276Y-55498357D01*
X203444895Y-55688833D01*
X203444895Y-55926928D01*
X203397276Y-56117404D01*
X203349657Y-56212642D01*
X203302038Y-56260261D01*
X203206800Y-56307880D01*
X203111561Y-56307880D01*
X203016323Y-56260261D01*
X202968704Y-56212642D01*
X202921085Y-56117404D01*
X202873466Y-55926928D01*
X202873466Y-55688833D01*
X202921085Y-55498357D01*
X202968704Y-55403119D01*
X203016323Y-55355500D01*
X203111561Y-55307880D01*
G04 #@! TO.C,D2*
X198336504Y-82927080D02*
X198336504Y-81927080D01*
X198574600Y-81927080D01*
X198717457Y-81974700D01*
X198812695Y-82069938D01*
X198860314Y-82165176D01*
X198907933Y-82355652D01*
X198907933Y-82498509D01*
X198860314Y-82688985D01*
X198812695Y-82784223D01*
X198717457Y-82879461D01*
X198574600Y-82927080D01*
X198336504Y-82927080D01*
X199288885Y-82022319D02*
X199336504Y-81974700D01*
X199431742Y-81927080D01*
X199669838Y-81927080D01*
X199765076Y-81974700D01*
X199812695Y-82022319D01*
X199860314Y-82117557D01*
X199860314Y-82212795D01*
X199812695Y-82355652D01*
X199241266Y-82927080D01*
X199860314Y-82927080D01*
X201886095Y-82749280D02*
X201886095Y-82225471D01*
X201838476Y-82130233D01*
X201743238Y-82082614D01*
X201552761Y-82082614D01*
X201457523Y-82130233D01*
X201886095Y-82701661D02*
X201790857Y-82749280D01*
X201552761Y-82749280D01*
X201457523Y-82701661D01*
X201409904Y-82606423D01*
X201409904Y-82511185D01*
X201457523Y-82415947D01*
X201552761Y-82368328D01*
X201790857Y-82368328D01*
X201886095Y-82320709D01*
X202886095Y-82749280D02*
X202314666Y-82749280D01*
X202600380Y-82749280D02*
X202600380Y-81749280D01*
X202505142Y-81892138D01*
X202409904Y-81987376D01*
X202314666Y-82034995D01*
G04 #@! TO.C,D3*
X165926104Y-55634780D02*
X165926104Y-54634780D01*
X166164200Y-54634780D01*
X166307057Y-54682400D01*
X166402295Y-54777638D01*
X166449914Y-54872876D01*
X166497533Y-55063352D01*
X166497533Y-55206209D01*
X166449914Y-55396685D01*
X166402295Y-55491923D01*
X166307057Y-55587161D01*
X166164200Y-55634780D01*
X165926104Y-55634780D01*
X166830866Y-54634780D02*
X167449914Y-54634780D01*
X167116580Y-55015733D01*
X167259438Y-55015733D01*
X167354676Y-55063352D01*
X167402295Y-55110971D01*
X167449914Y-55206209D01*
X167449914Y-55444304D01*
X167402295Y-55539542D01*
X167354676Y-55587161D01*
X167259438Y-55634780D01*
X166973723Y-55634780D01*
X166878485Y-55587161D01*
X166830866Y-55539542D01*
X170861657Y-55691966D02*
X171337847Y-55691966D01*
X170766419Y-55977680D02*
X171099752Y-54977680D01*
X171433085Y-55977680D01*
X171766419Y-55596728D02*
X172528323Y-55596728D01*
X172147371Y-55977680D02*
X172147371Y-55215776D01*
G04 #@! TO.C,D4*
X165189504Y-81022080D02*
X165189504Y-80022080D01*
X165427600Y-80022080D01*
X165570457Y-80069700D01*
X165665695Y-80164938D01*
X165713314Y-80260176D01*
X165760933Y-80450652D01*
X165760933Y-80593509D01*
X165713314Y-80783985D01*
X165665695Y-80879223D01*
X165570457Y-80974461D01*
X165427600Y-81022080D01*
X165189504Y-81022080D01*
X166618076Y-80355414D02*
X166618076Y-81022080D01*
X166379980Y-79974461D02*
X166141885Y-80688747D01*
X166760933Y-80688747D01*
X169261457Y-82349266D02*
X169737647Y-82349266D01*
X169166219Y-82634980D02*
X169499552Y-81634980D01*
X169832885Y-82634980D01*
X170166219Y-82254028D02*
X170928123Y-82254028D01*
G04 #@! TO.C,J4*
X204661080Y-69371433D02*
X205375366Y-69371433D01*
X205518223Y-69419052D01*
X205613461Y-69514290D01*
X205661080Y-69657147D01*
X205661080Y-69752385D01*
X204994414Y-68466671D02*
X205661080Y-68466671D01*
X204613461Y-68704766D02*
X205327747Y-68942861D01*
X205327747Y-68323814D01*
G04 #@! TO.C,R1*
X201752020Y-66019606D02*
X201275830Y-66352940D01*
X201752020Y-66591035D02*
X200752020Y-66591035D01*
X200752020Y-66210082D01*
X200799640Y-66114844D01*
X200847259Y-66067225D01*
X200942497Y-66019606D01*
X201085354Y-66019606D01*
X201180592Y-66067225D01*
X201228211Y-66114844D01*
X201275830Y-66210082D01*
X201275830Y-66591035D01*
X201752020Y-65067225D02*
X201752020Y-65638654D01*
X201752020Y-65352940D02*
X200752020Y-65352940D01*
X200894878Y-65448178D01*
X200990116Y-65543416D01*
X201037735Y-65638654D01*
X203704759Y-63629964D02*
X203657140Y-63582345D01*
X203609520Y-63487107D01*
X203609520Y-63249012D01*
X203657140Y-63153774D01*
X203704759Y-63106155D01*
X203799997Y-63058536D01*
X203895235Y-63058536D01*
X204038092Y-63106155D01*
X204609520Y-63677583D01*
X204609520Y-63058536D01*
X204609520Y-62629964D02*
X203609520Y-62629964D01*
X204609520Y-62058536D02*
X204038092Y-62487107D01*
X203609520Y-62058536D02*
X204180949Y-62629964D01*
X203704759Y-61677583D02*
X203657140Y-61629964D01*
X203609520Y-61534726D01*
X203609520Y-61296631D01*
X203657140Y-61201393D01*
X203704759Y-61153774D01*
X203799997Y-61106155D01*
X203895235Y-61106155D01*
X204038092Y-61153774D01*
X204609520Y-61725202D01*
X204609520Y-61106155D01*
G04 #@! TO.C,R2*
X199913060Y-66182166D02*
X199436870Y-66515500D01*
X199913060Y-66753595D02*
X198913060Y-66753595D01*
X198913060Y-66372642D01*
X198960680Y-66277404D01*
X199008299Y-66229785D01*
X199103537Y-66182166D01*
X199246394Y-66182166D01*
X199341632Y-66229785D01*
X199389251Y-66277404D01*
X199436870Y-66372642D01*
X199436870Y-66753595D01*
X199008299Y-65801214D02*
X198960680Y-65753595D01*
X198913060Y-65658357D01*
X198913060Y-65420261D01*
X198960680Y-65325023D01*
X199008299Y-65277404D01*
X199103537Y-65229785D01*
X199198775Y-65229785D01*
X199341632Y-65277404D01*
X199913060Y-65848833D01*
X199913060Y-65229785D01*
X197831614Y-63115674D02*
X198498280Y-63115674D01*
X197450661Y-63353769D02*
X198164947Y-63591864D01*
X198164947Y-62972817D01*
X198498280Y-62591864D02*
X197498280Y-62591864D01*
X198498280Y-62020436D02*
X197926852Y-62449007D01*
X197498280Y-62020436D02*
X198069709Y-62591864D01*
X197498280Y-61687102D02*
X197498280Y-61020436D01*
X198498280Y-61449007D01*
G04 #@! TO.C,R3*
X199941000Y-71833666D02*
X199464810Y-72167000D01*
X199941000Y-72405095D02*
X198941000Y-72405095D01*
X198941000Y-72024142D01*
X198988620Y-71928904D01*
X199036239Y-71881285D01*
X199131477Y-71833666D01*
X199274334Y-71833666D01*
X199369572Y-71881285D01*
X199417191Y-71928904D01*
X199464810Y-72024142D01*
X199464810Y-72405095D01*
X198941000Y-71500333D02*
X198941000Y-70881285D01*
X199321953Y-71214619D01*
X199321953Y-71071761D01*
X199369572Y-70976523D01*
X199417191Y-70928904D01*
X199512429Y-70881285D01*
X199750524Y-70881285D01*
X199845762Y-70928904D01*
X199893381Y-70976523D01*
X199941000Y-71071761D01*
X199941000Y-71357476D01*
X199893381Y-71452714D01*
X199845762Y-71500333D01*
X197583359Y-76566184D02*
X197535740Y-76518565D01*
X197488120Y-76423327D01*
X197488120Y-76185232D01*
X197535740Y-76089994D01*
X197583359Y-76042375D01*
X197678597Y-75994756D01*
X197773835Y-75994756D01*
X197916692Y-76042375D01*
X198488120Y-76613803D01*
X198488120Y-75994756D01*
X198488120Y-75566184D02*
X197488120Y-75566184D01*
X198488120Y-74994756D02*
X197916692Y-75423327D01*
X197488120Y-74994756D02*
X198059549Y-75566184D01*
X197583359Y-74613803D02*
X197535740Y-74566184D01*
X197488120Y-74470946D01*
X197488120Y-74232851D01*
X197535740Y-74137613D01*
X197583359Y-74089994D01*
X197678597Y-74042375D01*
X197773835Y-74042375D01*
X197916692Y-74089994D01*
X198488120Y-74661422D01*
X198488120Y-74042375D01*
G04 #@! TO.C,R4*
X201688520Y-71823506D02*
X201212330Y-72156840D01*
X201688520Y-72394935D02*
X200688520Y-72394935D01*
X200688520Y-72013982D01*
X200736140Y-71918744D01*
X200783759Y-71871125D01*
X200878997Y-71823506D01*
X201021854Y-71823506D01*
X201117092Y-71871125D01*
X201164711Y-71918744D01*
X201212330Y-72013982D01*
X201212330Y-72394935D01*
X201021854Y-70966363D02*
X201688520Y-70966363D01*
X200640901Y-71204459D02*
X201355187Y-71442554D01*
X201355187Y-70823506D01*
X203721874Y-76308434D02*
X204388540Y-76308434D01*
X203340921Y-76546529D02*
X204055207Y-76784624D01*
X204055207Y-76165577D01*
X204388540Y-75784624D02*
X203388540Y-75784624D01*
X204388540Y-75213196D02*
X203817112Y-75641767D01*
X203388540Y-75213196D02*
X203959969Y-75784624D01*
X203388540Y-74879862D02*
X203388540Y-74213196D01*
X204388540Y-74641767D01*
G04 #@! TO.C,R5*
X172321040Y-65775766D02*
X171844850Y-66109100D01*
X172321040Y-66347195D02*
X171321040Y-66347195D01*
X171321040Y-65966242D01*
X171368660Y-65871004D01*
X171416279Y-65823385D01*
X171511517Y-65775766D01*
X171654374Y-65775766D01*
X171749612Y-65823385D01*
X171797231Y-65871004D01*
X171844850Y-65966242D01*
X171844850Y-66347195D01*
X171321040Y-64871004D02*
X171321040Y-65347195D01*
X171797231Y-65394814D01*
X171749612Y-65347195D01*
X171701993Y-65251957D01*
X171701993Y-65013861D01*
X171749612Y-64918623D01*
X171797231Y-64871004D01*
X171892469Y-64823385D01*
X172130564Y-64823385D01*
X172225802Y-64871004D01*
X172273421Y-64918623D01*
X172321040Y-65013861D01*
X172321040Y-65251957D01*
X172273421Y-65347195D01*
X172225802Y-65394814D01*
X172812614Y-62673714D02*
X173479280Y-62673714D01*
X172431661Y-62911809D02*
X173145947Y-63149904D01*
X173145947Y-62530857D01*
X173479280Y-62149904D02*
X172479280Y-62149904D01*
X173479280Y-61578476D02*
X172907852Y-62007047D01*
X172479280Y-61578476D02*
X173050709Y-62149904D01*
X172479280Y-61245142D02*
X172479280Y-60578476D01*
X173479280Y-61007047D01*
G04 #@! TO.C,R6*
X169435600Y-65679246D02*
X168959410Y-66012580D01*
X169435600Y-66250675D02*
X168435600Y-66250675D01*
X168435600Y-65869722D01*
X168483220Y-65774484D01*
X168530839Y-65726865D01*
X168626077Y-65679246D01*
X168768934Y-65679246D01*
X168864172Y-65726865D01*
X168911791Y-65774484D01*
X168959410Y-65869722D01*
X168959410Y-66250675D01*
X168435600Y-64822103D02*
X168435600Y-65012580D01*
X168483220Y-65107818D01*
X168530839Y-65155437D01*
X168673696Y-65250675D01*
X168864172Y-65298294D01*
X169245124Y-65298294D01*
X169340362Y-65250675D01*
X169387981Y-65203056D01*
X169435600Y-65107818D01*
X169435600Y-64917341D01*
X169387981Y-64822103D01*
X169340362Y-64774484D01*
X169245124Y-64726865D01*
X169007029Y-64726865D01*
X168911791Y-64774484D01*
X168864172Y-64822103D01*
X168816553Y-64917341D01*
X168816553Y-65107818D01*
X168864172Y-65203056D01*
X168911791Y-65250675D01*
X169007029Y-65298294D01*
X166021319Y-62019604D02*
X165973700Y-61971985D01*
X165926080Y-61876747D01*
X165926080Y-61638652D01*
X165973700Y-61543414D01*
X166021319Y-61495795D01*
X166116557Y-61448176D01*
X166211795Y-61448176D01*
X166354652Y-61495795D01*
X166926080Y-62067223D01*
X166926080Y-61448176D01*
X166926080Y-61019604D02*
X165926080Y-61019604D01*
X166926080Y-60448176D02*
X166354652Y-60876747D01*
X165926080Y-60448176D02*
X166497509Y-61019604D01*
X166021319Y-60067223D02*
X165973700Y-60019604D01*
X165926080Y-59924366D01*
X165926080Y-59686271D01*
X165973700Y-59591033D01*
X166021319Y-59543414D01*
X166116557Y-59495795D01*
X166211795Y-59495795D01*
X166354652Y-59543414D01*
X166926080Y-60114842D01*
X166926080Y-59495795D01*
G04 #@! TO.C,R7*
X169435600Y-72092746D02*
X168959410Y-72426080D01*
X169435600Y-72664175D02*
X168435600Y-72664175D01*
X168435600Y-72283222D01*
X168483220Y-72187984D01*
X168530839Y-72140365D01*
X168626077Y-72092746D01*
X168768934Y-72092746D01*
X168864172Y-72140365D01*
X168911791Y-72187984D01*
X168959410Y-72283222D01*
X168959410Y-72664175D01*
X168435600Y-71759413D02*
X168435600Y-71092746D01*
X169435600Y-71521318D01*
X166322914Y-77037414D02*
X166989580Y-77037414D01*
X165941961Y-77275509D02*
X166656247Y-77513604D01*
X166656247Y-76894557D01*
X166989580Y-76513604D02*
X165989580Y-76513604D01*
X166989580Y-75942176D02*
X166418152Y-76370747D01*
X165989580Y-75942176D02*
X166561009Y-76513604D01*
X165989580Y-75608842D02*
X165989580Y-74942176D01*
X166989580Y-75370747D01*
G04 #@! TO.C,R8*
X171988300Y-72186726D02*
X171512110Y-72520060D01*
X171988300Y-72758155D02*
X170988300Y-72758155D01*
X170988300Y-72377202D01*
X171035920Y-72281964D01*
X171083539Y-72234345D01*
X171178777Y-72186726D01*
X171321634Y-72186726D01*
X171416872Y-72234345D01*
X171464491Y-72281964D01*
X171512110Y-72377202D01*
X171512110Y-72758155D01*
X171416872Y-71615298D02*
X171369253Y-71710536D01*
X171321634Y-71758155D01*
X171226396Y-71805774D01*
X171178777Y-71805774D01*
X171083539Y-71758155D01*
X171035920Y-71710536D01*
X170988300Y-71615298D01*
X170988300Y-71424821D01*
X171035920Y-71329583D01*
X171083539Y-71281964D01*
X171178777Y-71234345D01*
X171226396Y-71234345D01*
X171321634Y-71281964D01*
X171369253Y-71329583D01*
X171416872Y-71424821D01*
X171416872Y-71615298D01*
X171464491Y-71710536D01*
X171512110Y-71758155D01*
X171607348Y-71805774D01*
X171797824Y-71805774D01*
X171893062Y-71758155D01*
X171940681Y-71710536D01*
X171988300Y-71615298D01*
X171988300Y-71424821D01*
X171940681Y-71329583D01*
X171893062Y-71281964D01*
X171797824Y-71234345D01*
X171607348Y-71234345D01*
X171512110Y-71281964D01*
X171464491Y-71329583D01*
X171416872Y-71424821D01*
X172269719Y-76853204D02*
X172222100Y-76805585D01*
X172174480Y-76710347D01*
X172174480Y-76472252D01*
X172222100Y-76377014D01*
X172269719Y-76329395D01*
X172364957Y-76281776D01*
X172460195Y-76281776D01*
X172603052Y-76329395D01*
X173174480Y-76900823D01*
X173174480Y-76281776D01*
X173174480Y-75853204D02*
X172174480Y-75853204D01*
X173174480Y-75281776D02*
X172603052Y-75710347D01*
X172174480Y-75281776D02*
X172745909Y-75853204D01*
X172269719Y-74900823D02*
X172222100Y-74853204D01*
X172174480Y-74757966D01*
X172174480Y-74519871D01*
X172222100Y-74424633D01*
X172269719Y-74377014D01*
X172364957Y-74329395D01*
X172460195Y-74329395D01*
X172603052Y-74377014D01*
X173174480Y-74948442D01*
X173174480Y-74329395D01*
G04 #@! TO.C,J6*
X184618866Y-78040880D02*
X184618866Y-78755166D01*
X184571247Y-78898023D01*
X184476009Y-78993261D01*
X184333152Y-79040880D01*
X184237914Y-79040880D01*
X185523628Y-78040880D02*
X185333152Y-78040880D01*
X185237914Y-78088500D01*
X185190295Y-78136119D01*
X185095057Y-78278976D01*
X185047438Y-78469452D01*
X185047438Y-78850404D01*
X185095057Y-78945642D01*
X185142676Y-78993261D01*
X185237914Y-79040880D01*
X185428390Y-79040880D01*
X185523628Y-78993261D01*
X185571247Y-78945642D01*
X185618866Y-78850404D01*
X185618866Y-78612309D01*
X185571247Y-78517071D01*
X185523628Y-78469452D01*
X185428390Y-78421833D01*
X185237914Y-78421833D01*
X185142676Y-78469452D01*
X185095057Y-78517071D01*
X185047438Y-78612309D01*
X181022085Y-79323580D02*
X181355419Y-80323580D01*
X181688752Y-79323580D01*
X182022085Y-79799771D02*
X182355419Y-79799771D01*
X182498276Y-80323580D02*
X182022085Y-80323580D01*
X182022085Y-79323580D01*
X182498276Y-79323580D01*
X182926847Y-80323580D02*
X182926847Y-79323580D01*
X183498276Y-80323580D01*
X183498276Y-79323580D01*
X183831609Y-79323580D02*
X184403038Y-79323580D01*
X184117323Y-80323580D02*
X184117323Y-79323580D01*
X184736371Y-80323580D02*
X184736371Y-79323580D01*
X185688752Y-80323580D02*
X185212561Y-80323580D01*
X185212561Y-79323580D01*
X185974466Y-80037866D02*
X186450657Y-80037866D01*
X185879228Y-80323580D02*
X186212561Y-79323580D01*
X186545895Y-80323580D01*
X186879228Y-80323580D02*
X186879228Y-79323580D01*
X187117323Y-79323580D01*
X187260180Y-79371200D01*
X187355419Y-79466438D01*
X187403038Y-79561676D01*
X187450657Y-79752152D01*
X187450657Y-79895009D01*
X187403038Y-80085485D01*
X187355419Y-80180723D01*
X187260180Y-80275961D01*
X187117323Y-80323580D01*
X186879228Y-80323580D01*
X188069704Y-79323580D02*
X188260180Y-79323580D01*
X188355419Y-79371200D01*
X188450657Y-79466438D01*
X188498276Y-79656914D01*
X188498276Y-79990247D01*
X188450657Y-80180723D01*
X188355419Y-80275961D01*
X188260180Y-80323580D01*
X188069704Y-80323580D01*
X187974466Y-80275961D01*
X187879228Y-80180723D01*
X187831609Y-79990247D01*
X187831609Y-79656914D01*
X187879228Y-79466438D01*
X187974466Y-79371200D01*
X188069704Y-79323580D01*
X189498276Y-80323580D02*
X189164942Y-79847390D01*
X188926847Y-80323580D02*
X188926847Y-79323580D01*
X189307800Y-79323580D01*
X189403038Y-79371200D01*
X189450657Y-79418819D01*
X189498276Y-79514057D01*
X189498276Y-79656914D01*
X189450657Y-79752152D01*
X189403038Y-79799771D01*
X189307800Y-79847390D01*
X188926847Y-79847390D01*
G04 #@! TO.C,J5*
X164376680Y-69333333D02*
X165090966Y-69333333D01*
X165233823Y-69380952D01*
X165329061Y-69476190D01*
X165376680Y-69619047D01*
X165376680Y-69714285D01*
X164376680Y-68380952D02*
X164376680Y-68857142D01*
X164852871Y-68904761D01*
X164805252Y-68857142D01*
X164757633Y-68761904D01*
X164757633Y-68523809D01*
X164805252Y-68428571D01*
X164852871Y-68380952D01*
X164948109Y-68333333D01*
X165186204Y-68333333D01*
X165281442Y-68380952D01*
X165329061Y-68428571D01*
X165376680Y-68523809D01*
X165376680Y-68761904D01*
X165329061Y-68857142D01*
X165281442Y-68904761D01*
G04 #@! TO.C,RV_DER*
X190823019Y-81364980D02*
X190489685Y-80888790D01*
X190251590Y-81364980D02*
X190251590Y-80364980D01*
X190632542Y-80364980D01*
X190727780Y-80412600D01*
X190775400Y-80460219D01*
X190823019Y-80555457D01*
X190823019Y-80698314D01*
X190775400Y-80793552D01*
X190727780Y-80841171D01*
X190632542Y-80888790D01*
X190251590Y-80888790D01*
X191108733Y-80364980D02*
X191442066Y-81364980D01*
X191775400Y-80364980D01*
X191870638Y-81460219D02*
X192632542Y-81460219D01*
X192870638Y-81364980D02*
X192870638Y-80364980D01*
X193108733Y-80364980D01*
X193251590Y-80412600D01*
X193346828Y-80507838D01*
X193394447Y-80603076D01*
X193442066Y-80793552D01*
X193442066Y-80936409D01*
X193394447Y-81126885D01*
X193346828Y-81222123D01*
X193251590Y-81317361D01*
X193108733Y-81364980D01*
X192870638Y-81364980D01*
X193870638Y-80841171D02*
X194203971Y-80841171D01*
X194346828Y-81364980D02*
X193870638Y-81364980D01*
X193870638Y-80364980D01*
X194346828Y-80364980D01*
X195346828Y-81364980D02*
X195013495Y-80888790D01*
X194775400Y-81364980D02*
X194775400Y-80364980D01*
X195156352Y-80364980D01*
X195251590Y-80412600D01*
X195299209Y-80460219D01*
X195346828Y-80555457D01*
X195346828Y-80698314D01*
X195299209Y-80793552D01*
X195251590Y-80841171D01*
X195156352Y-80888790D01*
X194775400Y-80888790D01*
X191424380Y-86708476D02*
X191424380Y-87279904D01*
X191424380Y-86994190D02*
X190424380Y-86994190D01*
X190567238Y-87089428D01*
X190662476Y-87184666D01*
X190710095Y-87279904D01*
X190424380Y-86089428D02*
X190424380Y-85994190D01*
X190472000Y-85898952D01*
X190519619Y-85851333D01*
X190614857Y-85803714D01*
X190805333Y-85756095D01*
X191043428Y-85756095D01*
X191233904Y-85803714D01*
X191329142Y-85851333D01*
X191376761Y-85898952D01*
X191424380Y-85994190D01*
X191424380Y-86089428D01*
X191376761Y-86184666D01*
X191329142Y-86232285D01*
X191233904Y-86279904D01*
X191043428Y-86327523D01*
X190805333Y-86327523D01*
X190614857Y-86279904D01*
X190519619Y-86232285D01*
X190472000Y-86184666D01*
X190424380Y-86089428D01*
X191424380Y-85327523D02*
X190424380Y-85327523D01*
X191424380Y-84756095D02*
X190852952Y-85184666D01*
X190424380Y-84756095D02*
X190995809Y-85327523D01*
G04 #@! TO.C,RV_IZQ*
X176015744Y-81124839D02*
X175682411Y-80648649D01*
X175444316Y-81124839D02*
X175444316Y-80124839D01*
X175825268Y-80124839D01*
X175920506Y-80172459D01*
X175968125Y-80220078D01*
X176015744Y-80315316D01*
X176015744Y-80458173D01*
X175968125Y-80553411D01*
X175920506Y-80601030D01*
X175825268Y-80648649D01*
X175444316Y-80648649D01*
X176301459Y-80124839D02*
X176634792Y-81124839D01*
X176968125Y-80124839D01*
X177063363Y-81220078D02*
X177825268Y-81220078D01*
X178063363Y-81124839D02*
X178063363Y-80124839D01*
X178444316Y-80124839D02*
X179110982Y-80124839D01*
X178444316Y-81124839D01*
X179110982Y-81124839D01*
X180158601Y-81220078D02*
X180063363Y-81172459D01*
X179968125Y-81077220D01*
X179825268Y-80934363D01*
X179730030Y-80886744D01*
X179634792Y-80886744D01*
X179682411Y-81124839D02*
X179587173Y-81077220D01*
X179491935Y-80981982D01*
X179444316Y-80791506D01*
X179444316Y-80458173D01*
X179491935Y-80267697D01*
X179587173Y-80172459D01*
X179682411Y-80124839D01*
X179872887Y-80124839D01*
X179968125Y-80172459D01*
X180063363Y-80267697D01*
X180110982Y-80458173D01*
X180110982Y-80791506D01*
X180063363Y-80981982D01*
X179968125Y-81077220D01*
X179872887Y-81124839D01*
X179682411Y-81124839D01*
X180616680Y-86657676D02*
X180616680Y-87229104D01*
X180616680Y-86943390D02*
X179616680Y-86943390D01*
X179759538Y-87038628D01*
X179854776Y-87133866D01*
X179902395Y-87229104D01*
X179616680Y-86038628D02*
X179616680Y-85943390D01*
X179664300Y-85848152D01*
X179711919Y-85800533D01*
X179807157Y-85752914D01*
X179997633Y-85705295D01*
X180235728Y-85705295D01*
X180426204Y-85752914D01*
X180521442Y-85800533D01*
X180569061Y-85848152D01*
X180616680Y-85943390D01*
X180616680Y-86038628D01*
X180569061Y-86133866D01*
X180521442Y-86181485D01*
X180426204Y-86229104D01*
X180235728Y-86276723D01*
X179997633Y-86276723D01*
X179807157Y-86229104D01*
X179711919Y-86181485D01*
X179664300Y-86133866D01*
X179616680Y-86038628D01*
X180616680Y-85276723D02*
X179616680Y-85276723D01*
X180616680Y-84705295D02*
X180045252Y-85133866D01*
X179616680Y-84705295D02*
X180188109Y-85276723D01*
G04 #@! TD*
M02*
