G04 #@! TF.GenerationSoftware,KiCad,Pcbnew,5.0.2-bee76a0~70~ubuntu18.04.1*
G04 #@! TF.CreationDate,2019-01-29T19:41:56+01:00*
G04 #@! TF.ProjectId,ustepper_41_pololu,75737465-7070-4657-925f-34315f706f6c,rev?*
G04 #@! TF.SameCoordinates,Original*
G04 #@! TF.FileFunction,Legend,Bot*
G04 #@! TF.FilePolarity,Positive*
%FSLAX46Y46*%
G04 Gerber Fmt 4.6, Leading zero omitted, Abs format (unit mm)*
G04 Created by KiCad (PCBNEW 5.0.2-bee76a0~70~ubuntu18.04.1) date mar 29 ene 2019 19:41:56 CET*
%MOMM*%
%LPD*%
G01*
G04 APERTURE LIST*
%ADD10C,0.300000*%
%ADD11C,0.200000*%
%ADD12C,0.120000*%
%ADD13C,0.150000*%
G04 APERTURE END LIST*
D10*
X180481337Y-81614031D02*
X180338480Y-81542602D01*
X180267051Y-81471174D01*
X180195622Y-81328317D01*
X180195622Y-80899745D01*
X180267051Y-80756888D01*
X180338480Y-80685460D01*
X180481337Y-80614031D01*
X180695622Y-80614031D01*
X180838480Y-80685460D01*
X180909908Y-80756888D01*
X180981337Y-80899745D01*
X180981337Y-81328317D01*
X180909908Y-81471174D01*
X180838480Y-81542602D01*
X180695622Y-81614031D01*
X180481337Y-81614031D01*
D11*
X164400000Y-86000000D02*
X164400000Y-52600000D01*
X168600000Y-90200000D02*
X164400000Y-86000000D01*
X202000000Y-90200000D02*
X168600000Y-90200000D01*
X206300000Y-85900000D02*
X202000000Y-90200000D01*
X206300000Y-52700000D02*
X206300000Y-85900000D01*
X201900000Y-48300000D02*
X206300000Y-52700000D01*
X168600000Y-48300000D02*
X201900000Y-48300000D01*
X164400000Y-52600000D02*
X168600000Y-48300000D01*
D12*
G04 #@! TO.C,J2*
X197839200Y-50956800D02*
X196509200Y-50956800D01*
X197839200Y-52286800D02*
X197839200Y-50956800D01*
X197839200Y-53556800D02*
X195179200Y-53556800D01*
X195179200Y-53556800D02*
X195179200Y-89176800D01*
X197839200Y-53556800D02*
X197839200Y-89176800D01*
X197839200Y-89176800D02*
X195179200Y-89176800D01*
G04 #@! TO.C,C2*
X192834500Y-80353884D02*
X192834500Y-79149756D01*
X191014500Y-80353884D02*
X191014500Y-79149756D01*
G04 #@! TO.C,J1*
X175733580Y-89176800D02*
X173073580Y-89176800D01*
X175733580Y-53556800D02*
X175733580Y-89176800D01*
X173073580Y-53556800D02*
X173073580Y-89176800D01*
X175733580Y-53556800D02*
X173073580Y-53556800D01*
X175733580Y-52286800D02*
X175733580Y-50956800D01*
X175733580Y-50956800D02*
X174403580Y-50956800D01*
G04 #@! TO.C,U1*
X203429740Y-61604280D02*
G75*
G03X203429740Y-63604280I0J-1000000D01*
G01*
X203429740Y-63604280D02*
X203429740Y-65839280D01*
X203429740Y-65839280D02*
X198229740Y-65839280D01*
X198229740Y-65839280D02*
X198229740Y-59369280D01*
X198229740Y-59369280D02*
X203429740Y-59369280D01*
X203429740Y-59369280D02*
X203429740Y-61604280D01*
G04 #@! TO.C,U2*
X198211960Y-78821220D02*
X198211960Y-76586220D01*
X203411960Y-78821220D02*
X198211960Y-78821220D01*
X203411960Y-72351220D02*
X203411960Y-78821220D01*
X198211960Y-72351220D02*
X203411960Y-72351220D01*
X198211960Y-74586220D02*
X198211960Y-72351220D01*
X198211960Y-76586220D02*
G75*
G03X198211960Y-74586220I0J1000000D01*
G01*
G04 #@! TO.C,U3*
X172357920Y-58998440D02*
X172357920Y-61233440D01*
X167157920Y-58998440D02*
X172357920Y-58998440D01*
X167157920Y-65468440D02*
X167157920Y-58998440D01*
X172357920Y-65468440D02*
X167157920Y-65468440D01*
X172357920Y-63233440D02*
X172357920Y-65468440D01*
X172357920Y-61233440D02*
G75*
G03X172357920Y-63233440I0J-1000000D01*
G01*
G04 #@! TO.C,U4*
X167239200Y-76410960D02*
G75*
G03X167239200Y-74410960I0J1000000D01*
G01*
X167239200Y-74410960D02*
X167239200Y-72175960D01*
X167239200Y-72175960D02*
X172439200Y-72175960D01*
X172439200Y-72175960D02*
X172439200Y-78645960D01*
X172439200Y-78645960D02*
X167239200Y-78645960D01*
X167239200Y-78645960D02*
X167239200Y-76410960D01*
D13*
G04 #@! TO.C,U5*
X183133740Y-81300660D02*
X183133740Y-81250660D01*
X187283740Y-81300660D02*
X187283740Y-81155660D01*
X187283740Y-76150660D02*
X187283740Y-76295660D01*
X183133740Y-76150660D02*
X183133740Y-76295660D01*
X183133740Y-81300660D02*
X187283740Y-81300660D01*
X183133740Y-76150660D02*
X187283740Y-76150660D01*
X183133740Y-81250660D02*
X181733740Y-81250660D01*
G04 #@! TO.C,J2*
X196842533Y-49409180D02*
X196842533Y-50123466D01*
X196890152Y-50266323D01*
X196985390Y-50361561D01*
X197128247Y-50409180D01*
X197223485Y-50409180D01*
X196413961Y-49504419D02*
X196366342Y-49456800D01*
X196271104Y-49409180D01*
X196033009Y-49409180D01*
X195937771Y-49456800D01*
X195890152Y-49504419D01*
X195842533Y-49599657D01*
X195842533Y-49694895D01*
X195890152Y-49837752D01*
X196461580Y-50409180D01*
X195842533Y-50409180D01*
G04 #@! TO.C,C2*
X194101642Y-79585153D02*
X194149261Y-79537534D01*
X194196880Y-79394677D01*
X194196880Y-79299439D01*
X194149261Y-79156581D01*
X194054023Y-79061343D01*
X193958785Y-79013724D01*
X193768309Y-78966105D01*
X193625452Y-78966105D01*
X193434976Y-79013724D01*
X193339738Y-79061343D01*
X193244500Y-79156581D01*
X193196880Y-79299439D01*
X193196880Y-79394677D01*
X193244500Y-79537534D01*
X193292119Y-79585153D01*
X193292119Y-79966105D02*
X193244500Y-80013724D01*
X193196880Y-80108962D01*
X193196880Y-80347058D01*
X193244500Y-80442296D01*
X193292119Y-80489915D01*
X193387357Y-80537534D01*
X193482595Y-80537534D01*
X193625452Y-80489915D01*
X194196880Y-79918486D01*
X194196880Y-80537534D01*
G04 #@! TO.C,J1*
X174736913Y-49409180D02*
X174736913Y-50123466D01*
X174784532Y-50266323D01*
X174879770Y-50361561D01*
X175022627Y-50409180D01*
X175117865Y-50409180D01*
X173736913Y-50409180D02*
X174308341Y-50409180D01*
X174022627Y-50409180D02*
X174022627Y-49409180D01*
X174117865Y-49552038D01*
X174213103Y-49647276D01*
X174308341Y-49694895D01*
G04 #@! TO.C,U1*
X204264840Y-58367655D02*
X205074364Y-58367655D01*
X205169602Y-58415274D01*
X205217221Y-58462893D01*
X205264840Y-58558131D01*
X205264840Y-58748607D01*
X205217221Y-58843845D01*
X205169602Y-58891464D01*
X205074364Y-58939083D01*
X204264840Y-58939083D01*
X205264840Y-59939083D02*
X205264840Y-59367655D01*
X205264840Y-59653369D02*
X204264840Y-59653369D01*
X204407698Y-59558131D01*
X204502936Y-59462893D01*
X204550555Y-59367655D01*
G04 #@! TO.C,U2*
X204099740Y-77735155D02*
X204909264Y-77735155D01*
X205004502Y-77782774D01*
X205052121Y-77830393D01*
X205099740Y-77925631D01*
X205099740Y-78116107D01*
X205052121Y-78211345D01*
X205004502Y-78258964D01*
X204909264Y-78306583D01*
X204099740Y-78306583D01*
X204194979Y-78735155D02*
X204147360Y-78782774D01*
X204099740Y-78878012D01*
X204099740Y-79116107D01*
X204147360Y-79211345D01*
X204194979Y-79258964D01*
X204290217Y-79306583D01*
X204385455Y-79306583D01*
X204528312Y-79258964D01*
X205099740Y-78687536D01*
X205099740Y-79306583D01*
G04 #@! TO.C,U3*
X165606040Y-57308475D02*
X166415564Y-57308475D01*
X166510802Y-57356094D01*
X166558421Y-57403713D01*
X166606040Y-57498951D01*
X166606040Y-57689427D01*
X166558421Y-57784665D01*
X166510802Y-57832284D01*
X166415564Y-57879903D01*
X165606040Y-57879903D01*
X165606040Y-58260856D02*
X165606040Y-58879903D01*
X165986993Y-58546570D01*
X165986993Y-58689427D01*
X166034612Y-58784665D01*
X166082231Y-58832284D01*
X166177469Y-58879903D01*
X166415564Y-58879903D01*
X166510802Y-58832284D01*
X166558421Y-58784665D01*
X166606040Y-58689427D01*
X166606040Y-58403713D01*
X166558421Y-58308475D01*
X166510802Y-58260856D01*
G04 #@! TO.C,U4*
X165926080Y-78342215D02*
X166735604Y-78342215D01*
X166830842Y-78389834D01*
X166878461Y-78437453D01*
X166926080Y-78532691D01*
X166926080Y-78723167D01*
X166878461Y-78818405D01*
X166830842Y-78866024D01*
X166735604Y-78913643D01*
X165926080Y-78913643D01*
X166259414Y-79818405D02*
X166926080Y-79818405D01*
X165878461Y-79580310D02*
X166592747Y-79342215D01*
X166592747Y-79961262D01*
G04 #@! TO.C,U5*
X185970644Y-81678040D02*
X185970644Y-82487564D01*
X185923025Y-82582802D01*
X185875406Y-82630421D01*
X185780168Y-82678040D01*
X185589692Y-82678040D01*
X185494454Y-82630421D01*
X185446835Y-82582802D01*
X185399216Y-82487564D01*
X185399216Y-81678040D01*
X184446835Y-81678040D02*
X184923025Y-81678040D01*
X184970644Y-82154231D01*
X184923025Y-82106612D01*
X184827787Y-82058993D01*
X184589692Y-82058993D01*
X184494454Y-82106612D01*
X184446835Y-82154231D01*
X184399216Y-82249469D01*
X184399216Y-82487564D01*
X184446835Y-82582802D01*
X184494454Y-82630421D01*
X184589692Y-82678040D01*
X184827787Y-82678040D01*
X184923025Y-82630421D01*
X184970644Y-82582802D01*
G04 #@! TD*
M02*
