G04 #@! TF.GenerationSoftware,KiCad,Pcbnew,5.0.2-bee76a0~70~ubuntu18.04.1*
G04 #@! TF.CreationDate,2019-01-29T19:41:56+01:00*
G04 #@! TF.ProjectId,ustepper_41_pololu,75737465-7070-4657-925f-34315f706f6c,rev?*
G04 #@! TF.SameCoordinates,Original*
G04 #@! TF.FileFunction,Soldermask,Bot*
G04 #@! TF.FilePolarity,Negative*
%FSLAX46Y46*%
G04 Gerber Fmt 4.6, Leading zero omitted, Abs format (unit mm)*
G04 Created by KiCad (PCBNEW 5.0.2-bee76a0~70~ubuntu18.04.1) date mar 29 ene 2019 19:41:56 CET*
%MOMM*%
%LPD*%
G01*
G04 APERTURE LIST*
%ADD10C,0.100000*%
G04 APERTURE END LIST*
D10*
G36*
X193401947Y-87480055D02*
X193479076Y-87487652D01*
X193611027Y-87527679D01*
X193677003Y-87547692D01*
X193859412Y-87645192D01*
X194019294Y-87776405D01*
X194150507Y-87936287D01*
X194248007Y-88118696D01*
X194248007Y-88118697D01*
X194308047Y-88316623D01*
X194328320Y-88522459D01*
X194308047Y-88728295D01*
X194279753Y-88821567D01*
X194248007Y-88926222D01*
X194150507Y-89108631D01*
X194019294Y-89268513D01*
X193859412Y-89399726D01*
X193677003Y-89497226D01*
X193611027Y-89517239D01*
X193479076Y-89557266D01*
X193401947Y-89564863D01*
X193324820Y-89572459D01*
X193221660Y-89572459D01*
X193144533Y-89564862D01*
X193067404Y-89557266D01*
X192935453Y-89517239D01*
X192869477Y-89497226D01*
X192687068Y-89399726D01*
X192527186Y-89268513D01*
X192395973Y-89108631D01*
X192298473Y-88926222D01*
X192266727Y-88821567D01*
X192238433Y-88728295D01*
X192218160Y-88522459D01*
X192238433Y-88316623D01*
X192298473Y-88118697D01*
X192298473Y-88118696D01*
X192395973Y-87936287D01*
X192527186Y-87776405D01*
X192687068Y-87645192D01*
X192869477Y-87547692D01*
X192935453Y-87527679D01*
X193067404Y-87487652D01*
X193144533Y-87480056D01*
X193221660Y-87472459D01*
X193324820Y-87472459D01*
X193401947Y-87480055D01*
X193401947Y-87480055D01*
G37*
G36*
X177882547Y-87480055D02*
X177959676Y-87487652D01*
X178091627Y-87527679D01*
X178157603Y-87547692D01*
X178340012Y-87645192D01*
X178499894Y-87776405D01*
X178631107Y-87936287D01*
X178728607Y-88118696D01*
X178728607Y-88118697D01*
X178788647Y-88316623D01*
X178808920Y-88522459D01*
X178788647Y-88728295D01*
X178760353Y-88821567D01*
X178728607Y-88926222D01*
X178631107Y-89108631D01*
X178499894Y-89268513D01*
X178340012Y-89399726D01*
X178157603Y-89497226D01*
X178091627Y-89517239D01*
X177959676Y-89557266D01*
X177882547Y-89564863D01*
X177805420Y-89572459D01*
X177702260Y-89572459D01*
X177625133Y-89564862D01*
X177548004Y-89557266D01*
X177416053Y-89517239D01*
X177350077Y-89497226D01*
X177167668Y-89399726D01*
X177007786Y-89268513D01*
X176876573Y-89108631D01*
X176779073Y-88926222D01*
X176747327Y-88821567D01*
X176719033Y-88728295D01*
X176698760Y-88522459D01*
X176719033Y-88316623D01*
X176779073Y-88118697D01*
X176779073Y-88118696D01*
X176876573Y-87936287D01*
X177007786Y-87776405D01*
X177167668Y-87645192D01*
X177350077Y-87547692D01*
X177416053Y-87527679D01*
X177548004Y-87487652D01*
X177625133Y-87480055D01*
X177702260Y-87472459D01*
X177805420Y-87472459D01*
X177882547Y-87480055D01*
X177882547Y-87480055D01*
G37*
G36*
X196637907Y-86804396D02*
X196715036Y-86811993D01*
X196846987Y-86852020D01*
X196912963Y-86872033D01*
X197095372Y-86969533D01*
X197255254Y-87100746D01*
X197386467Y-87260628D01*
X197483967Y-87443037D01*
X197503980Y-87509013D01*
X197544007Y-87640964D01*
X197564280Y-87846800D01*
X197544007Y-88052636D01*
X197514232Y-88150791D01*
X197483967Y-88250563D01*
X197386467Y-88432972D01*
X197255254Y-88592854D01*
X197095372Y-88724067D01*
X196912963Y-88821567D01*
X196846987Y-88841580D01*
X196715036Y-88881607D01*
X196637907Y-88889204D01*
X196560780Y-88896800D01*
X196457620Y-88896800D01*
X196380493Y-88889204D01*
X196303364Y-88881607D01*
X196171413Y-88841580D01*
X196105437Y-88821567D01*
X195923028Y-88724067D01*
X195763146Y-88592854D01*
X195631933Y-88432972D01*
X195534433Y-88250563D01*
X195504168Y-88150791D01*
X195474393Y-88052636D01*
X195454120Y-87846800D01*
X195474393Y-87640964D01*
X195514420Y-87509013D01*
X195534433Y-87443037D01*
X195631933Y-87260628D01*
X195763146Y-87100746D01*
X195923028Y-86969533D01*
X196105437Y-86872033D01*
X196171413Y-86852020D01*
X196303364Y-86811993D01*
X196380493Y-86804397D01*
X196457620Y-86796800D01*
X196560780Y-86796800D01*
X196637907Y-86804396D01*
X196637907Y-86804396D01*
G37*
G36*
X174532287Y-86804396D02*
X174609416Y-86811993D01*
X174741367Y-86852020D01*
X174807343Y-86872033D01*
X174989752Y-86969533D01*
X175149634Y-87100746D01*
X175280847Y-87260628D01*
X175378347Y-87443037D01*
X175398360Y-87509013D01*
X175438387Y-87640964D01*
X175458660Y-87846800D01*
X175438387Y-88052636D01*
X175408612Y-88150791D01*
X175378347Y-88250563D01*
X175280847Y-88432972D01*
X175149634Y-88592854D01*
X174989752Y-88724067D01*
X174807343Y-88821567D01*
X174741367Y-88841580D01*
X174609416Y-88881607D01*
X174532287Y-88889204D01*
X174455160Y-88896800D01*
X174352000Y-88896800D01*
X174274873Y-88889204D01*
X174197744Y-88881607D01*
X174065793Y-88841580D01*
X173999817Y-88821567D01*
X173817408Y-88724067D01*
X173657526Y-88592854D01*
X173526313Y-88432972D01*
X173428813Y-88250563D01*
X173398548Y-88150791D01*
X173368773Y-88052636D01*
X173348500Y-87846800D01*
X173368773Y-87640964D01*
X173408800Y-87509013D01*
X173428813Y-87443037D01*
X173526313Y-87260628D01*
X173657526Y-87100746D01*
X173817408Y-86969533D01*
X173999817Y-86872033D01*
X174065793Y-86852020D01*
X174197744Y-86811993D01*
X174274873Y-86804396D01*
X174352000Y-86796800D01*
X174455160Y-86796800D01*
X174532287Y-86804396D01*
X174532287Y-86804396D01*
G37*
G36*
X188028440Y-84365563D02*
X188254641Y-84434181D01*
X188254643Y-84434182D01*
X188254646Y-84434183D01*
X188463105Y-84545606D01*
X188463108Y-84545608D01*
X188463109Y-84545609D01*
X188645834Y-84695566D01*
X188645835Y-84695568D01*
X188645837Y-84695569D01*
X188795792Y-84878290D01*
X188907217Y-85086753D01*
X188907217Y-85086754D01*
X188907219Y-85086758D01*
X188975837Y-85312959D01*
X188993200Y-85489250D01*
X188993200Y-87207150D01*
X188975837Y-87383441D01*
X188907219Y-87609642D01*
X188907217Y-87609647D01*
X188795792Y-87818110D01*
X188645834Y-88000834D01*
X188463110Y-88150792D01*
X188254647Y-88262217D01*
X188254644Y-88262218D01*
X188254642Y-88262219D01*
X188028441Y-88330837D01*
X187793200Y-88354006D01*
X187557960Y-88330837D01*
X187331759Y-88262219D01*
X187331757Y-88262218D01*
X187331754Y-88262217D01*
X187123291Y-88150792D01*
X186940567Y-88000834D01*
X186790609Y-87818110D01*
X186679181Y-87609642D01*
X186610563Y-87383442D01*
X186593200Y-87207151D01*
X186593200Y-85489250D01*
X186610563Y-85312964D01*
X186610563Y-85312960D01*
X186679181Y-85086759D01*
X186679182Y-85086757D01*
X186679183Y-85086754D01*
X186790606Y-84878295D01*
X186919998Y-84720629D01*
X186940566Y-84695566D01*
X186940568Y-84695565D01*
X186940569Y-84695563D01*
X187123290Y-84545608D01*
X187331753Y-84434183D01*
X187331756Y-84434182D01*
X187331758Y-84434181D01*
X187557959Y-84365563D01*
X187793200Y-84342394D01*
X188028440Y-84365563D01*
X188028440Y-84365563D01*
G37*
G36*
X183993200Y-88348200D02*
X181593200Y-88348200D01*
X181593200Y-84348200D01*
X183993200Y-84348200D01*
X183993200Y-88348200D01*
X183993200Y-88348200D01*
G37*
G36*
X177882547Y-84940056D02*
X177959676Y-84947652D01*
X178091627Y-84987679D01*
X178157603Y-85007692D01*
X178340012Y-85105192D01*
X178499894Y-85236405D01*
X178631107Y-85396287D01*
X178728607Y-85578696D01*
X178728607Y-85578697D01*
X178788647Y-85776623D01*
X178808920Y-85982459D01*
X178788647Y-86188295D01*
X178760353Y-86281567D01*
X178728607Y-86386222D01*
X178631107Y-86568631D01*
X178499894Y-86728513D01*
X178340012Y-86859726D01*
X178157603Y-86957226D01*
X178091627Y-86977239D01*
X177959676Y-87017266D01*
X177882547Y-87024863D01*
X177805420Y-87032459D01*
X177702260Y-87032459D01*
X177625133Y-87024863D01*
X177548004Y-87017266D01*
X177416053Y-86977239D01*
X177350077Y-86957226D01*
X177167668Y-86859726D01*
X177007786Y-86728513D01*
X176876573Y-86568631D01*
X176779073Y-86386222D01*
X176747327Y-86281567D01*
X176719033Y-86188295D01*
X176698760Y-85982459D01*
X176719033Y-85776623D01*
X176779073Y-85578697D01*
X176779073Y-85578696D01*
X176876573Y-85396287D01*
X177007786Y-85236405D01*
X177167668Y-85105192D01*
X177350077Y-85007692D01*
X177416053Y-84987679D01*
X177548004Y-84947652D01*
X177625133Y-84940056D01*
X177702260Y-84932459D01*
X177805420Y-84932459D01*
X177882547Y-84940056D01*
X177882547Y-84940056D01*
G37*
G36*
X193401947Y-84940056D02*
X193479076Y-84947652D01*
X193611027Y-84987679D01*
X193677003Y-85007692D01*
X193859412Y-85105192D01*
X194019294Y-85236405D01*
X194150507Y-85396287D01*
X194248007Y-85578696D01*
X194248007Y-85578697D01*
X194308047Y-85776623D01*
X194328320Y-85982459D01*
X194308047Y-86188295D01*
X194279753Y-86281567D01*
X194248007Y-86386222D01*
X194150507Y-86568631D01*
X194019294Y-86728513D01*
X193859412Y-86859726D01*
X193677003Y-86957226D01*
X193611027Y-86977239D01*
X193479076Y-87017266D01*
X193401947Y-87024863D01*
X193324820Y-87032459D01*
X193221660Y-87032459D01*
X193144533Y-87024863D01*
X193067404Y-87017266D01*
X192935453Y-86977239D01*
X192869477Y-86957226D01*
X192687068Y-86859726D01*
X192527186Y-86728513D01*
X192395973Y-86568631D01*
X192298473Y-86386222D01*
X192266727Y-86281567D01*
X192238433Y-86188295D01*
X192218160Y-85982459D01*
X192238433Y-85776623D01*
X192298473Y-85578697D01*
X192298473Y-85578696D01*
X192395973Y-85396287D01*
X192527186Y-85236405D01*
X192687068Y-85105192D01*
X192869477Y-85007692D01*
X192935453Y-84987679D01*
X193067404Y-84947652D01*
X193144533Y-84940056D01*
X193221660Y-84932459D01*
X193324820Y-84932459D01*
X193401947Y-84940056D01*
X193401947Y-84940056D01*
G37*
G36*
X174532287Y-84264397D02*
X174609416Y-84271993D01*
X174741367Y-84312020D01*
X174807343Y-84332033D01*
X174989752Y-84429533D01*
X175149634Y-84560746D01*
X175280847Y-84720628D01*
X175378347Y-84903037D01*
X175398360Y-84969013D01*
X175438387Y-85100964D01*
X175458660Y-85306800D01*
X175438387Y-85512636D01*
X175398360Y-85644587D01*
X175378347Y-85710563D01*
X175280847Y-85892972D01*
X175149634Y-86052854D01*
X174989752Y-86184067D01*
X174807343Y-86281567D01*
X174741367Y-86301580D01*
X174609416Y-86341607D01*
X174532287Y-86349204D01*
X174455160Y-86356800D01*
X174352000Y-86356800D01*
X174274873Y-86349204D01*
X174197744Y-86341607D01*
X174065793Y-86301580D01*
X173999817Y-86281567D01*
X173817408Y-86184067D01*
X173657526Y-86052854D01*
X173526313Y-85892972D01*
X173428813Y-85710563D01*
X173408800Y-85644587D01*
X173368773Y-85512636D01*
X173348500Y-85306800D01*
X173368773Y-85100964D01*
X173408800Y-84969013D01*
X173428813Y-84903037D01*
X173526313Y-84720628D01*
X173657526Y-84560746D01*
X173817408Y-84429533D01*
X173999817Y-84332033D01*
X174065793Y-84312020D01*
X174197744Y-84271993D01*
X174274873Y-84264397D01*
X174352000Y-84256800D01*
X174455160Y-84256800D01*
X174532287Y-84264397D01*
X174532287Y-84264397D01*
G37*
G36*
X196637907Y-84264397D02*
X196715036Y-84271993D01*
X196846987Y-84312020D01*
X196912963Y-84332033D01*
X197095372Y-84429533D01*
X197255254Y-84560746D01*
X197386467Y-84720628D01*
X197483967Y-84903037D01*
X197503980Y-84969013D01*
X197544007Y-85100964D01*
X197564280Y-85306800D01*
X197544007Y-85512636D01*
X197503980Y-85644587D01*
X197483967Y-85710563D01*
X197386467Y-85892972D01*
X197255254Y-86052854D01*
X197095372Y-86184067D01*
X196912963Y-86281567D01*
X196846987Y-86301580D01*
X196715036Y-86341607D01*
X196637907Y-86349204D01*
X196560780Y-86356800D01*
X196457620Y-86356800D01*
X196380493Y-86349204D01*
X196303364Y-86341607D01*
X196171413Y-86301580D01*
X196105437Y-86281567D01*
X195923028Y-86184067D01*
X195763146Y-86052854D01*
X195631933Y-85892972D01*
X195534433Y-85710563D01*
X195514420Y-85644587D01*
X195474393Y-85512636D01*
X195454120Y-85306800D01*
X195474393Y-85100964D01*
X195514420Y-84969013D01*
X195534433Y-84903037D01*
X195631933Y-84720628D01*
X195763146Y-84560746D01*
X195923028Y-84429533D01*
X196105437Y-84332033D01*
X196171413Y-84312020D01*
X196303364Y-84271993D01*
X196380493Y-84264397D01*
X196457620Y-84256800D01*
X196560780Y-84256800D01*
X196637907Y-84264397D01*
X196637907Y-84264397D01*
G37*
G36*
X178803840Y-84492459D02*
X176703840Y-84492459D01*
X176703840Y-82392459D01*
X178803840Y-82392459D01*
X178803840Y-84492459D01*
X178803840Y-84492459D01*
G37*
G36*
X192806982Y-80332006D02*
X192851704Y-80345573D01*
X192892933Y-80367610D01*
X192929061Y-80397259D01*
X192958710Y-80433387D01*
X192980747Y-80474616D01*
X192994314Y-80519338D01*
X192999500Y-80571995D01*
X192999500Y-81906645D01*
X192994314Y-81959302D01*
X192980747Y-82004024D01*
X192958710Y-82045253D01*
X192929061Y-82081381D01*
X192892933Y-82111030D01*
X192851704Y-82133067D01*
X192802998Y-82147842D01*
X192780359Y-82157219D01*
X192759984Y-82170833D01*
X192742657Y-82188160D01*
X192729044Y-82208535D01*
X192719666Y-82231174D01*
X192714886Y-82255207D01*
X192714886Y-82279712D01*
X192719667Y-82303745D01*
X192729044Y-82326384D01*
X192742658Y-82346759D01*
X192759985Y-82364086D01*
X192780360Y-82377699D01*
X192802999Y-82387077D01*
X192839284Y-82392459D01*
X194323240Y-82392459D01*
X194323240Y-84492459D01*
X192223240Y-84492459D01*
X192223240Y-82276820D01*
X192220838Y-82252434D01*
X192213725Y-82228985D01*
X192202174Y-82207374D01*
X192186628Y-82188432D01*
X192167686Y-82172886D01*
X192146075Y-82161335D01*
X192122626Y-82154222D01*
X192098240Y-82151820D01*
X191094675Y-82151820D01*
X191042018Y-82146634D01*
X190997296Y-82133067D01*
X190956067Y-82111030D01*
X190919939Y-82081381D01*
X190890290Y-82045253D01*
X190868253Y-82004024D01*
X190854686Y-81959302D01*
X190849500Y-81906645D01*
X190849500Y-80571995D01*
X190854686Y-80519338D01*
X190868253Y-80474616D01*
X190890290Y-80433387D01*
X190919939Y-80397259D01*
X190956067Y-80367610D01*
X190997296Y-80345573D01*
X191042018Y-80332006D01*
X191094675Y-80326820D01*
X192754325Y-80326820D01*
X192806982Y-80332006D01*
X192806982Y-80332006D01*
G37*
G36*
X196637907Y-81724396D02*
X196715036Y-81731993D01*
X196846987Y-81772020D01*
X196912963Y-81792033D01*
X197095372Y-81889533D01*
X197255254Y-82020746D01*
X197386467Y-82180628D01*
X197483967Y-82363037D01*
X197491259Y-82387077D01*
X197544007Y-82560964D01*
X197564280Y-82766800D01*
X197544007Y-82972636D01*
X197503980Y-83104587D01*
X197483967Y-83170563D01*
X197386467Y-83352972D01*
X197255254Y-83512854D01*
X197095372Y-83644067D01*
X196912963Y-83741567D01*
X196846987Y-83761580D01*
X196715036Y-83801607D01*
X196637907Y-83809203D01*
X196560780Y-83816800D01*
X196457620Y-83816800D01*
X196380493Y-83809203D01*
X196303364Y-83801607D01*
X196171413Y-83761580D01*
X196105437Y-83741567D01*
X195923028Y-83644067D01*
X195763146Y-83512854D01*
X195631933Y-83352972D01*
X195534433Y-83170563D01*
X195514420Y-83104587D01*
X195474393Y-82972636D01*
X195454120Y-82766800D01*
X195474393Y-82560964D01*
X195527141Y-82387077D01*
X195534433Y-82363037D01*
X195631933Y-82180628D01*
X195763146Y-82020746D01*
X195923028Y-81889533D01*
X196105437Y-81792033D01*
X196171413Y-81772020D01*
X196303364Y-81731993D01*
X196380493Y-81724396D01*
X196457620Y-81716800D01*
X196560780Y-81716800D01*
X196637907Y-81724396D01*
X196637907Y-81724396D01*
G37*
G36*
X174532287Y-81724396D02*
X174609416Y-81731993D01*
X174741367Y-81772020D01*
X174807343Y-81792033D01*
X174989752Y-81889533D01*
X175149634Y-82020746D01*
X175280847Y-82180628D01*
X175378347Y-82363037D01*
X175385639Y-82387077D01*
X175438387Y-82560964D01*
X175458660Y-82766800D01*
X175438387Y-82972636D01*
X175398360Y-83104587D01*
X175378347Y-83170563D01*
X175280847Y-83352972D01*
X175149634Y-83512854D01*
X174989752Y-83644067D01*
X174807343Y-83741567D01*
X174741367Y-83761580D01*
X174609416Y-83801607D01*
X174532287Y-83809203D01*
X174455160Y-83816800D01*
X174352000Y-83816800D01*
X174274873Y-83809203D01*
X174197744Y-83801607D01*
X174065793Y-83761580D01*
X173999817Y-83741567D01*
X173817408Y-83644067D01*
X173657526Y-83512854D01*
X173526313Y-83352972D01*
X173428813Y-83170563D01*
X173408800Y-83104587D01*
X173368773Y-82972636D01*
X173348500Y-82766800D01*
X173368773Y-82560964D01*
X173421521Y-82387077D01*
X173428813Y-82363037D01*
X173526313Y-82180628D01*
X173657526Y-82020746D01*
X173817408Y-81889533D01*
X173999817Y-81792033D01*
X174065793Y-81772020D01*
X174197744Y-81731993D01*
X174274873Y-81724396D01*
X174352000Y-81716800D01*
X174455160Y-81716800D01*
X174532287Y-81724396D01*
X174532287Y-81724396D01*
G37*
G36*
X186543947Y-81719316D02*
X186621076Y-81726913D01*
X186753027Y-81766940D01*
X186819003Y-81786953D01*
X187001412Y-81884453D01*
X187161294Y-82015666D01*
X187292507Y-82175548D01*
X187390007Y-82357957D01*
X187398840Y-82387077D01*
X187450047Y-82555884D01*
X187470320Y-82761720D01*
X187450047Y-82967556D01*
X187410020Y-83099507D01*
X187390007Y-83165483D01*
X187292507Y-83347892D01*
X187161294Y-83507774D01*
X187001412Y-83638987D01*
X186819003Y-83736487D01*
X186753027Y-83756500D01*
X186621076Y-83796527D01*
X186543947Y-83804123D01*
X186466820Y-83811720D01*
X186363660Y-83811720D01*
X186286533Y-83804123D01*
X186209404Y-83796527D01*
X186077453Y-83756500D01*
X186011477Y-83736487D01*
X185829068Y-83638987D01*
X185669186Y-83507774D01*
X185537973Y-83347892D01*
X185440473Y-83165483D01*
X185420460Y-83099507D01*
X185380433Y-82967556D01*
X185360160Y-82761720D01*
X185380433Y-82555884D01*
X185431640Y-82387077D01*
X185440473Y-82357957D01*
X185537973Y-82175548D01*
X185669186Y-82015666D01*
X185829068Y-81884453D01*
X186011477Y-81786953D01*
X186077453Y-81766940D01*
X186209404Y-81726913D01*
X186286533Y-81719316D01*
X186363660Y-81711720D01*
X186466820Y-81711720D01*
X186543947Y-81719316D01*
X186543947Y-81719316D01*
G37*
G36*
X184925240Y-83811720D02*
X182825240Y-83811720D01*
X182825240Y-81711720D01*
X184925240Y-81711720D01*
X184925240Y-83811720D01*
X184925240Y-83811720D01*
G37*
G36*
X203171960Y-81551220D02*
X200991960Y-81551220D01*
X200991960Y-79151220D01*
X203171960Y-79151220D01*
X203171960Y-81551220D01*
X203171960Y-81551220D01*
G37*
G36*
X200631960Y-81551220D02*
X198451960Y-81551220D01*
X198451960Y-79151220D01*
X200631960Y-79151220D01*
X200631960Y-81551220D01*
X200631960Y-81551220D01*
G37*
G36*
X169659200Y-81375960D02*
X167479200Y-81375960D01*
X167479200Y-78975960D01*
X169659200Y-78975960D01*
X169659200Y-81375960D01*
X169659200Y-81375960D01*
G37*
G36*
X172199200Y-81375960D02*
X170019200Y-81375960D01*
X170019200Y-78975960D01*
X172199200Y-78975960D01*
X172199200Y-81375960D01*
X172199200Y-81375960D01*
G37*
G36*
X196637907Y-79184397D02*
X196715036Y-79191993D01*
X196846987Y-79232020D01*
X196912963Y-79252033D01*
X197095372Y-79349533D01*
X197255254Y-79480746D01*
X197386467Y-79640628D01*
X197483967Y-79823037D01*
X197503980Y-79889013D01*
X197544007Y-80020964D01*
X197564280Y-80226800D01*
X197544007Y-80432636D01*
X197503980Y-80564587D01*
X197483967Y-80630563D01*
X197386467Y-80812972D01*
X197255254Y-80972854D01*
X197095372Y-81104067D01*
X196912963Y-81201567D01*
X196846987Y-81221580D01*
X196715036Y-81261607D01*
X196637907Y-81269204D01*
X196560780Y-81276800D01*
X196457620Y-81276800D01*
X196380493Y-81269204D01*
X196303364Y-81261607D01*
X196171413Y-81221580D01*
X196105437Y-81201567D01*
X195923028Y-81104067D01*
X195763146Y-80972854D01*
X195631933Y-80812972D01*
X195534433Y-80630563D01*
X195514420Y-80564587D01*
X195474393Y-80432636D01*
X195454120Y-80226800D01*
X195474393Y-80020964D01*
X195514420Y-79889013D01*
X195534433Y-79823037D01*
X195631933Y-79640628D01*
X195763146Y-79480746D01*
X195923028Y-79349533D01*
X196105437Y-79252033D01*
X196171413Y-79232020D01*
X196303364Y-79191993D01*
X196380493Y-79184397D01*
X196457620Y-79176800D01*
X196560780Y-79176800D01*
X196637907Y-79184397D01*
X196637907Y-79184397D01*
G37*
G36*
X174532287Y-79184397D02*
X174609416Y-79191993D01*
X174741367Y-79232020D01*
X174807343Y-79252033D01*
X174989752Y-79349533D01*
X175149634Y-79480746D01*
X175280847Y-79640628D01*
X175378347Y-79823037D01*
X175398360Y-79889013D01*
X175438387Y-80020964D01*
X175458660Y-80226800D01*
X175438387Y-80432636D01*
X175398360Y-80564587D01*
X175378347Y-80630563D01*
X175280847Y-80812972D01*
X175149634Y-80972854D01*
X174989752Y-81104067D01*
X174807343Y-81201567D01*
X174741367Y-81221580D01*
X174609416Y-81261607D01*
X174532287Y-81269204D01*
X174455160Y-81276800D01*
X174352000Y-81276800D01*
X174274873Y-81269204D01*
X174197744Y-81261607D01*
X174065793Y-81221580D01*
X173999817Y-81201567D01*
X173817408Y-81104067D01*
X173657526Y-80972854D01*
X173526313Y-80812972D01*
X173428813Y-80630563D01*
X173408800Y-80564587D01*
X173368773Y-80432636D01*
X173348500Y-80226800D01*
X173368773Y-80020964D01*
X173408800Y-79889013D01*
X173428813Y-79823037D01*
X173526313Y-79640628D01*
X173657526Y-79480746D01*
X173817408Y-79349533D01*
X173999817Y-79252033D01*
X174065793Y-79232020D01*
X174197744Y-79191993D01*
X174274873Y-79184397D01*
X174352000Y-79176800D01*
X174455160Y-79176800D01*
X174532287Y-79184397D01*
X174532287Y-79184397D01*
G37*
G36*
X188883740Y-81130660D02*
X186933740Y-81130660D01*
X186933740Y-80130660D01*
X188883740Y-80130660D01*
X188883740Y-81130660D01*
X188883740Y-81130660D01*
G37*
G36*
X183483740Y-81130660D02*
X181533740Y-81130660D01*
X181533740Y-80130660D01*
X183483740Y-80130660D01*
X183483740Y-81130660D01*
X183483740Y-81130660D01*
G37*
G36*
X188883740Y-79860660D02*
X186933740Y-79860660D01*
X186933740Y-78860660D01*
X188883740Y-78860660D01*
X188883740Y-79860660D01*
X188883740Y-79860660D01*
G37*
G36*
X183483740Y-79860660D02*
X181533740Y-79860660D01*
X181533740Y-78860660D01*
X183483740Y-78860660D01*
X183483740Y-79860660D01*
X183483740Y-79860660D01*
G37*
G36*
X192806982Y-77357006D02*
X192851704Y-77370573D01*
X192892933Y-77392610D01*
X192929061Y-77422259D01*
X192958710Y-77458387D01*
X192980747Y-77499616D01*
X192994314Y-77544338D01*
X192999500Y-77596995D01*
X192999500Y-78931645D01*
X192994314Y-78984302D01*
X192980747Y-79029024D01*
X192958710Y-79070253D01*
X192929061Y-79106381D01*
X192892933Y-79136030D01*
X192851704Y-79158067D01*
X192806982Y-79171634D01*
X192754325Y-79176820D01*
X191094675Y-79176820D01*
X191042018Y-79171634D01*
X190997296Y-79158067D01*
X190956067Y-79136030D01*
X190919939Y-79106381D01*
X190890290Y-79070253D01*
X190868253Y-79029024D01*
X190854686Y-78984302D01*
X190849500Y-78931645D01*
X190849500Y-77596995D01*
X190854686Y-77544338D01*
X190868253Y-77499616D01*
X190890290Y-77458387D01*
X190919939Y-77422259D01*
X190956067Y-77392610D01*
X190997296Y-77370573D01*
X191042018Y-77357006D01*
X191094675Y-77351820D01*
X192754325Y-77351820D01*
X192806982Y-77357006D01*
X192806982Y-77357006D01*
G37*
G36*
X196637907Y-76644396D02*
X196715036Y-76651993D01*
X196846987Y-76692020D01*
X196912963Y-76712033D01*
X197095372Y-76809533D01*
X197255254Y-76940746D01*
X197386467Y-77100628D01*
X197483967Y-77283037D01*
X197503980Y-77349013D01*
X197544007Y-77480964D01*
X197564280Y-77686800D01*
X197544007Y-77892636D01*
X197503980Y-78024587D01*
X197483967Y-78090563D01*
X197386467Y-78272972D01*
X197255254Y-78432854D01*
X197095372Y-78564067D01*
X196912963Y-78661567D01*
X196846987Y-78681580D01*
X196715036Y-78721607D01*
X196637907Y-78729203D01*
X196560780Y-78736800D01*
X196457620Y-78736800D01*
X196380493Y-78729203D01*
X196303364Y-78721607D01*
X196171413Y-78681580D01*
X196105437Y-78661567D01*
X195923028Y-78564067D01*
X195763146Y-78432854D01*
X195631933Y-78272972D01*
X195534433Y-78090563D01*
X195514420Y-78024587D01*
X195474393Y-77892636D01*
X195454120Y-77686800D01*
X195474393Y-77480964D01*
X195514420Y-77349013D01*
X195534433Y-77283037D01*
X195631933Y-77100628D01*
X195763146Y-76940746D01*
X195923028Y-76809533D01*
X196105437Y-76712033D01*
X196171413Y-76692020D01*
X196303364Y-76651993D01*
X196380493Y-76644396D01*
X196457620Y-76636800D01*
X196560780Y-76636800D01*
X196637907Y-76644396D01*
X196637907Y-76644396D01*
G37*
G36*
X174532287Y-76644396D02*
X174609416Y-76651993D01*
X174741367Y-76692020D01*
X174807343Y-76712033D01*
X174989752Y-76809533D01*
X175149634Y-76940746D01*
X175280847Y-77100628D01*
X175378347Y-77283037D01*
X175398360Y-77349013D01*
X175438387Y-77480964D01*
X175458660Y-77686800D01*
X175438387Y-77892636D01*
X175398360Y-78024587D01*
X175378347Y-78090563D01*
X175280847Y-78272972D01*
X175149634Y-78432854D01*
X174989752Y-78564067D01*
X174807343Y-78661567D01*
X174741367Y-78681580D01*
X174609416Y-78721607D01*
X174532287Y-78729203D01*
X174455160Y-78736800D01*
X174352000Y-78736800D01*
X174274873Y-78729203D01*
X174197744Y-78721607D01*
X174065793Y-78681580D01*
X173999817Y-78661567D01*
X173817408Y-78564067D01*
X173657526Y-78432854D01*
X173526313Y-78272972D01*
X173428813Y-78090563D01*
X173408800Y-78024587D01*
X173368773Y-77892636D01*
X173348500Y-77686800D01*
X173368773Y-77480964D01*
X173408800Y-77349013D01*
X173428813Y-77283037D01*
X173526313Y-77100628D01*
X173657526Y-76940746D01*
X173817408Y-76809533D01*
X173999817Y-76712033D01*
X174065793Y-76692020D01*
X174197744Y-76651993D01*
X174274873Y-76644396D01*
X174352000Y-76636800D01*
X174455160Y-76636800D01*
X174532287Y-76644396D01*
X174532287Y-76644396D01*
G37*
G36*
X188883740Y-78590660D02*
X186933740Y-78590660D01*
X186933740Y-77590660D01*
X188883740Y-77590660D01*
X188883740Y-78590660D01*
X188883740Y-78590660D01*
G37*
G36*
X183483740Y-78590660D02*
X181533740Y-78590660D01*
X181533740Y-77590660D01*
X183483740Y-77590660D01*
X183483740Y-78590660D01*
X183483740Y-78590660D01*
G37*
G36*
X183483740Y-77320660D02*
X181533740Y-77320660D01*
X181533740Y-76320660D01*
X183483740Y-76320660D01*
X183483740Y-77320660D01*
X183483740Y-77320660D01*
G37*
G36*
X188883740Y-77320660D02*
X186933740Y-77320660D01*
X186933740Y-76320660D01*
X188883740Y-76320660D01*
X188883740Y-77320660D01*
X188883740Y-77320660D01*
G37*
G36*
X174532287Y-74104397D02*
X174609416Y-74111993D01*
X174741367Y-74152020D01*
X174807343Y-74172033D01*
X174989752Y-74269533D01*
X175149634Y-74400746D01*
X175280847Y-74560628D01*
X175378347Y-74743037D01*
X175378347Y-74743038D01*
X175438387Y-74940964D01*
X175458660Y-75146800D01*
X175438387Y-75352636D01*
X175432303Y-75372691D01*
X175378347Y-75550563D01*
X175280847Y-75732972D01*
X175149634Y-75892854D01*
X174989752Y-76024067D01*
X174807343Y-76121567D01*
X174741367Y-76141580D01*
X174609416Y-76181607D01*
X174532287Y-76189204D01*
X174455160Y-76196800D01*
X174352000Y-76196800D01*
X174274873Y-76189204D01*
X174197744Y-76181607D01*
X174065793Y-76141580D01*
X173999817Y-76121567D01*
X173817408Y-76024067D01*
X173657526Y-75892854D01*
X173526313Y-75732972D01*
X173428813Y-75550563D01*
X173374857Y-75372691D01*
X173368773Y-75352636D01*
X173348500Y-75146800D01*
X173368773Y-74940964D01*
X173428813Y-74743038D01*
X173428813Y-74743037D01*
X173526313Y-74560628D01*
X173657526Y-74400746D01*
X173817408Y-74269533D01*
X173999817Y-74172033D01*
X174065793Y-74152020D01*
X174197744Y-74111993D01*
X174274873Y-74104397D01*
X174352000Y-74096800D01*
X174455160Y-74096800D01*
X174532287Y-74104397D01*
X174532287Y-74104397D01*
G37*
G36*
X196637907Y-74104397D02*
X196715036Y-74111993D01*
X196846987Y-74152020D01*
X196912963Y-74172033D01*
X197095372Y-74269533D01*
X197255254Y-74400746D01*
X197386467Y-74560628D01*
X197483967Y-74743037D01*
X197483967Y-74743038D01*
X197544007Y-74940964D01*
X197564280Y-75146800D01*
X197544007Y-75352636D01*
X197537923Y-75372691D01*
X197483967Y-75550563D01*
X197386467Y-75732972D01*
X197255254Y-75892854D01*
X197095372Y-76024067D01*
X196912963Y-76121567D01*
X196846987Y-76141580D01*
X196715036Y-76181607D01*
X196637907Y-76189204D01*
X196560780Y-76196800D01*
X196457620Y-76196800D01*
X196380493Y-76189204D01*
X196303364Y-76181607D01*
X196171413Y-76141580D01*
X196105437Y-76121567D01*
X195923028Y-76024067D01*
X195763146Y-75892854D01*
X195631933Y-75732972D01*
X195534433Y-75550563D01*
X195480477Y-75372691D01*
X195474393Y-75352636D01*
X195454120Y-75146800D01*
X195474393Y-74940964D01*
X195534433Y-74743038D01*
X195534433Y-74743037D01*
X195631933Y-74560628D01*
X195763146Y-74400746D01*
X195923028Y-74269533D01*
X196105437Y-74172033D01*
X196171413Y-74152020D01*
X196303364Y-74111993D01*
X196380493Y-74104397D01*
X196457620Y-74096800D01*
X196560780Y-74096800D01*
X196637907Y-74104397D01*
X196637907Y-74104397D01*
G37*
G36*
X179026830Y-73551669D02*
X179026833Y-73551670D01*
X179026834Y-73551670D01*
X179215335Y-73608851D01*
X179215337Y-73608852D01*
X179389060Y-73701709D01*
X179541328Y-73826672D01*
X179666291Y-73978940D01*
X179759148Y-74152663D01*
X179816331Y-74341170D01*
X179835638Y-74537200D01*
X179816331Y-74733230D01*
X179759148Y-74921737D01*
X179666291Y-75095460D01*
X179541328Y-75247728D01*
X179389060Y-75372691D01*
X179389058Y-75372692D01*
X179215335Y-75465549D01*
X179026834Y-75522730D01*
X179026833Y-75522730D01*
X179026830Y-75522731D01*
X178879924Y-75537200D01*
X178781676Y-75537200D01*
X178634770Y-75522731D01*
X178634767Y-75522730D01*
X178634766Y-75522730D01*
X178446265Y-75465549D01*
X178272542Y-75372692D01*
X178272540Y-75372691D01*
X178120272Y-75247728D01*
X177995309Y-75095460D01*
X177902452Y-74921737D01*
X177845269Y-74733230D01*
X177825962Y-74537200D01*
X177845269Y-74341170D01*
X177902452Y-74152663D01*
X177995309Y-73978940D01*
X178120272Y-73826672D01*
X178272540Y-73701709D01*
X178446263Y-73608852D01*
X178446265Y-73608851D01*
X178634766Y-73551670D01*
X178634767Y-73551670D01*
X178634770Y-73551669D01*
X178781676Y-73537200D01*
X178879924Y-73537200D01*
X179026830Y-73551669D01*
X179026830Y-73551669D01*
G37*
G36*
X192530800Y-75537200D02*
X190530800Y-75537200D01*
X190530800Y-73537200D01*
X192530800Y-73537200D01*
X192530800Y-75537200D01*
X192530800Y-75537200D01*
G37*
G36*
X204712567Y-71813317D02*
X204789696Y-71820913D01*
X204921008Y-71860746D01*
X204987623Y-71880953D01*
X205170032Y-71978453D01*
X205329914Y-72109666D01*
X205461127Y-72269548D01*
X205558627Y-72451957D01*
X205558627Y-72451958D01*
X205618667Y-72649884D01*
X205638940Y-72855720D01*
X205618667Y-73061556D01*
X205590518Y-73154351D01*
X205558627Y-73259483D01*
X205461127Y-73441892D01*
X205329914Y-73601774D01*
X205170032Y-73732987D01*
X204987623Y-73830487D01*
X204921647Y-73850500D01*
X204789696Y-73890527D01*
X204712567Y-73898124D01*
X204635440Y-73905720D01*
X204532280Y-73905720D01*
X204455153Y-73898124D01*
X204378024Y-73890527D01*
X204246073Y-73850500D01*
X204180097Y-73830487D01*
X203997688Y-73732987D01*
X203837806Y-73601774D01*
X203706593Y-73441892D01*
X203609093Y-73259483D01*
X203577202Y-73154351D01*
X203549053Y-73061556D01*
X203528780Y-72855720D01*
X203549053Y-72649884D01*
X203609093Y-72451958D01*
X203609093Y-72451957D01*
X203706593Y-72269548D01*
X203837806Y-72109666D01*
X203997688Y-71978453D01*
X204180097Y-71880953D01*
X204246712Y-71860746D01*
X204378024Y-71820913D01*
X204455153Y-71813317D01*
X204532280Y-71805720D01*
X204635440Y-71805720D01*
X204712567Y-71813317D01*
X204712567Y-71813317D01*
G37*
G36*
X165520367Y-71577096D02*
X165597496Y-71584693D01*
X165729447Y-71624720D01*
X165795423Y-71644733D01*
X165977832Y-71742233D01*
X166137714Y-71873446D01*
X166268927Y-72033328D01*
X166366427Y-72215737D01*
X166366427Y-72215738D01*
X166426467Y-72413664D01*
X166446740Y-72619500D01*
X166426467Y-72825336D01*
X166417250Y-72855720D01*
X166366427Y-73023263D01*
X166268927Y-73205672D01*
X166137714Y-73365554D01*
X165977832Y-73496767D01*
X165795423Y-73594267D01*
X165770675Y-73601774D01*
X165597496Y-73654307D01*
X165520367Y-73661903D01*
X165443240Y-73669500D01*
X165340080Y-73669500D01*
X165262953Y-73661903D01*
X165185824Y-73654307D01*
X165012645Y-73601774D01*
X164987897Y-73594267D01*
X164805488Y-73496767D01*
X164645606Y-73365554D01*
X164514393Y-73205672D01*
X164416893Y-73023263D01*
X164366070Y-72855720D01*
X164356853Y-72825336D01*
X164336580Y-72619500D01*
X164356853Y-72413664D01*
X164416893Y-72215738D01*
X164416893Y-72215737D01*
X164514393Y-72033328D01*
X164645606Y-71873446D01*
X164805488Y-71742233D01*
X164987897Y-71644733D01*
X165053873Y-71624720D01*
X165185824Y-71584693D01*
X165262953Y-71577096D01*
X165340080Y-71569500D01*
X165443240Y-71569500D01*
X165520367Y-71577096D01*
X165520367Y-71577096D01*
G37*
G36*
X174532287Y-71564396D02*
X174609416Y-71571993D01*
X174741367Y-71612020D01*
X174807343Y-71632033D01*
X174989752Y-71729533D01*
X175149634Y-71860746D01*
X175280847Y-72020628D01*
X175378347Y-72203037D01*
X175398360Y-72269013D01*
X175438387Y-72400964D01*
X175458660Y-72606800D01*
X175438387Y-72812636D01*
X175404136Y-72925548D01*
X175378347Y-73010563D01*
X175280847Y-73192972D01*
X175149634Y-73352854D01*
X174989752Y-73484067D01*
X174807343Y-73581567D01*
X174765476Y-73594267D01*
X174609416Y-73641607D01*
X174532287Y-73649203D01*
X174455160Y-73656800D01*
X174352000Y-73656800D01*
X174274873Y-73649203D01*
X174197744Y-73641607D01*
X174041684Y-73594267D01*
X173999817Y-73581567D01*
X173817408Y-73484067D01*
X173657526Y-73352854D01*
X173526313Y-73192972D01*
X173428813Y-73010563D01*
X173403024Y-72925548D01*
X173368773Y-72812636D01*
X173348500Y-72606800D01*
X173368773Y-72400964D01*
X173408800Y-72269013D01*
X173428813Y-72203037D01*
X173526313Y-72020628D01*
X173657526Y-71860746D01*
X173817408Y-71729533D01*
X173999817Y-71632033D01*
X174065793Y-71612020D01*
X174197744Y-71571993D01*
X174274873Y-71564396D01*
X174352000Y-71556800D01*
X174455160Y-71556800D01*
X174532287Y-71564396D01*
X174532287Y-71564396D01*
G37*
G36*
X196637907Y-71564396D02*
X196715036Y-71571993D01*
X196846987Y-71612020D01*
X196912963Y-71632033D01*
X197095372Y-71729533D01*
X197255254Y-71860746D01*
X197386467Y-72020628D01*
X197483967Y-72203037D01*
X197503980Y-72269013D01*
X197544007Y-72400964D01*
X197564280Y-72606800D01*
X197544007Y-72812636D01*
X197509756Y-72925548D01*
X197483967Y-73010563D01*
X197386467Y-73192972D01*
X197255254Y-73352854D01*
X197095372Y-73484067D01*
X196912963Y-73581567D01*
X196871096Y-73594267D01*
X196715036Y-73641607D01*
X196637907Y-73649203D01*
X196560780Y-73656800D01*
X196457620Y-73656800D01*
X196380493Y-73649203D01*
X196303364Y-73641607D01*
X196147304Y-73594267D01*
X196105437Y-73581567D01*
X195923028Y-73484067D01*
X195763146Y-73352854D01*
X195631933Y-73192972D01*
X195534433Y-73010563D01*
X195508644Y-72925548D01*
X195474393Y-72812636D01*
X195454120Y-72606800D01*
X195474393Y-72400964D01*
X195514420Y-72269013D01*
X195534433Y-72203037D01*
X195631933Y-72020628D01*
X195763146Y-71860746D01*
X195923028Y-71729533D01*
X196105437Y-71632033D01*
X196171413Y-71612020D01*
X196303364Y-71571993D01*
X196380493Y-71564396D01*
X196457620Y-71556800D01*
X196560780Y-71556800D01*
X196637907Y-71564396D01*
X196637907Y-71564396D01*
G37*
G36*
X184987000Y-73192780D02*
X182987000Y-73192780D01*
X182987000Y-71192780D01*
X184987000Y-71192780D01*
X184987000Y-73192780D01*
X184987000Y-73192780D01*
G37*
G36*
X186662770Y-71208152D02*
X186778689Y-71231209D01*
X186960678Y-71306591D01*
X187124463Y-71416029D01*
X187263751Y-71555317D01*
X187373189Y-71719102D01*
X187448571Y-71901091D01*
X187463959Y-71978453D01*
X187474875Y-72033329D01*
X187487000Y-72094289D01*
X187487000Y-72291271D01*
X187448571Y-72484469D01*
X187373189Y-72666458D01*
X187263751Y-72830243D01*
X187124463Y-72969531D01*
X186960678Y-73078969D01*
X186778689Y-73154351D01*
X186662770Y-73177408D01*
X186585493Y-73192780D01*
X186388507Y-73192780D01*
X186311230Y-73177408D01*
X186195311Y-73154351D01*
X186013322Y-73078969D01*
X185849537Y-72969531D01*
X185710249Y-72830243D01*
X185600811Y-72666458D01*
X185525429Y-72484469D01*
X185487000Y-72291271D01*
X185487000Y-72094289D01*
X185499126Y-72033329D01*
X185510041Y-71978453D01*
X185525429Y-71901091D01*
X185600811Y-71719102D01*
X185710249Y-71555317D01*
X185849537Y-71416029D01*
X186013322Y-71306591D01*
X186195311Y-71231209D01*
X186311230Y-71208152D01*
X186388507Y-71192780D01*
X186585493Y-71192780D01*
X186662770Y-71208152D01*
X186662770Y-71208152D01*
G37*
G36*
X191726830Y-71011669D02*
X191726833Y-71011670D01*
X191726834Y-71011670D01*
X191915335Y-71068851D01*
X191915337Y-71068852D01*
X192089060Y-71161709D01*
X192241328Y-71286672D01*
X192366291Y-71438940D01*
X192436077Y-71569500D01*
X192459149Y-71612665D01*
X192491436Y-71719102D01*
X192516331Y-71801170D01*
X192535638Y-71997200D01*
X192516331Y-72193230D01*
X192516330Y-72193233D01*
X192516330Y-72193234D01*
X192509504Y-72215738D01*
X192459148Y-72381737D01*
X192366291Y-72555460D01*
X192241328Y-72707728D01*
X192089060Y-72832691D01*
X192089058Y-72832692D01*
X191915335Y-72925549D01*
X191726834Y-72982730D01*
X191726833Y-72982730D01*
X191726830Y-72982731D01*
X191579924Y-72997200D01*
X191481676Y-72997200D01*
X191334770Y-72982731D01*
X191334767Y-72982730D01*
X191334766Y-72982730D01*
X191146265Y-72925549D01*
X190972542Y-72832692D01*
X190972540Y-72832691D01*
X190820272Y-72707728D01*
X190695309Y-72555460D01*
X190602452Y-72381737D01*
X190552097Y-72215738D01*
X190545270Y-72193234D01*
X190545270Y-72193233D01*
X190545269Y-72193230D01*
X190525962Y-71997200D01*
X190545269Y-71801170D01*
X190570164Y-71719102D01*
X190602451Y-71612665D01*
X190625523Y-71569500D01*
X190695309Y-71438940D01*
X190820272Y-71286672D01*
X190972540Y-71161709D01*
X191146263Y-71068852D01*
X191146265Y-71068851D01*
X191334766Y-71011670D01*
X191334767Y-71011670D01*
X191334770Y-71011669D01*
X191481676Y-70997200D01*
X191579924Y-70997200D01*
X191726830Y-71011669D01*
X191726830Y-71011669D01*
G37*
G36*
X179026830Y-71011669D02*
X179026833Y-71011670D01*
X179026834Y-71011670D01*
X179215335Y-71068851D01*
X179215337Y-71068852D01*
X179389060Y-71161709D01*
X179541328Y-71286672D01*
X179666291Y-71438940D01*
X179736077Y-71569500D01*
X179759149Y-71612665D01*
X179791436Y-71719102D01*
X179816331Y-71801170D01*
X179835638Y-71997200D01*
X179816331Y-72193230D01*
X179816330Y-72193233D01*
X179816330Y-72193234D01*
X179809504Y-72215738D01*
X179759148Y-72381737D01*
X179666291Y-72555460D01*
X179541328Y-72707728D01*
X179389060Y-72832691D01*
X179389058Y-72832692D01*
X179215335Y-72925549D01*
X179026834Y-72982730D01*
X179026833Y-72982730D01*
X179026830Y-72982731D01*
X178879924Y-72997200D01*
X178781676Y-72997200D01*
X178634770Y-72982731D01*
X178634767Y-72982730D01*
X178634766Y-72982730D01*
X178446265Y-72925549D01*
X178272542Y-72832692D01*
X178272540Y-72832691D01*
X178120272Y-72707728D01*
X177995309Y-72555460D01*
X177902452Y-72381737D01*
X177852097Y-72215738D01*
X177845270Y-72193234D01*
X177845270Y-72193233D01*
X177845269Y-72193230D01*
X177825962Y-71997200D01*
X177845269Y-71801170D01*
X177870164Y-71719102D01*
X177902451Y-71612665D01*
X177925523Y-71569500D01*
X177995309Y-71438940D01*
X178120272Y-71286672D01*
X178272540Y-71161709D01*
X178446263Y-71068852D01*
X178446265Y-71068851D01*
X178634766Y-71011670D01*
X178634767Y-71011670D01*
X178634770Y-71011669D01*
X178781676Y-70997200D01*
X178879924Y-70997200D01*
X179026830Y-71011669D01*
X179026830Y-71011669D01*
G37*
G36*
X203171960Y-72021220D02*
X200991960Y-72021220D01*
X200991960Y-69621220D01*
X203171960Y-69621220D01*
X203171960Y-72021220D01*
X203171960Y-72021220D01*
G37*
G36*
X200631960Y-72021220D02*
X198451960Y-72021220D01*
X198451960Y-69621220D01*
X200631960Y-69621220D01*
X200631960Y-72021220D01*
X200631960Y-72021220D01*
G37*
G36*
X169659200Y-71845960D02*
X167479200Y-71845960D01*
X167479200Y-69445960D01*
X169659200Y-69445960D01*
X169659200Y-71845960D01*
X169659200Y-71845960D01*
G37*
G36*
X172199200Y-71845960D02*
X170019200Y-71845960D01*
X170019200Y-69445960D01*
X172199200Y-69445960D01*
X172199200Y-71845960D01*
X172199200Y-71845960D01*
G37*
G36*
X204712567Y-69273317D02*
X204789696Y-69280913D01*
X204921008Y-69320746D01*
X204987623Y-69340953D01*
X205170032Y-69438453D01*
X205329914Y-69569666D01*
X205461127Y-69729548D01*
X205558627Y-69911957D01*
X205558627Y-69911958D01*
X205618667Y-70109884D01*
X205638940Y-70315720D01*
X205618667Y-70521556D01*
X205578803Y-70652971D01*
X205558627Y-70719483D01*
X205461127Y-70901892D01*
X205329914Y-71061774D01*
X205170032Y-71192987D01*
X204987623Y-71290487D01*
X204934534Y-71306591D01*
X204789696Y-71350527D01*
X204712567Y-71358123D01*
X204635440Y-71365720D01*
X204532280Y-71365720D01*
X204455153Y-71358123D01*
X204378024Y-71350527D01*
X204233186Y-71306591D01*
X204180097Y-71290487D01*
X203997688Y-71192987D01*
X203837806Y-71061774D01*
X203706593Y-70901892D01*
X203609093Y-70719483D01*
X203588917Y-70652971D01*
X203549053Y-70521556D01*
X203528780Y-70315720D01*
X203549053Y-70109884D01*
X203609093Y-69911958D01*
X203609093Y-69911957D01*
X203706593Y-69729548D01*
X203837806Y-69569666D01*
X203997688Y-69438453D01*
X204180097Y-69340953D01*
X204246712Y-69320746D01*
X204378024Y-69280913D01*
X204455153Y-69273317D01*
X204532280Y-69265720D01*
X204635440Y-69265720D01*
X204712567Y-69273317D01*
X204712567Y-69273317D01*
G37*
G36*
X165520367Y-69037097D02*
X165597496Y-69044693D01*
X165729447Y-69084720D01*
X165795423Y-69104733D01*
X165977832Y-69202233D01*
X166137714Y-69333446D01*
X166268927Y-69493328D01*
X166366427Y-69675737D01*
X166366427Y-69675738D01*
X166426467Y-69873664D01*
X166446740Y-70079500D01*
X166426467Y-70285336D01*
X166417250Y-70315720D01*
X166366427Y-70483263D01*
X166268927Y-70665672D01*
X166137714Y-70825554D01*
X165977832Y-70956767D01*
X165795423Y-71054267D01*
X165770675Y-71061774D01*
X165597496Y-71114307D01*
X165520367Y-71121904D01*
X165443240Y-71129500D01*
X165340080Y-71129500D01*
X165262953Y-71121904D01*
X165185824Y-71114307D01*
X165012645Y-71061774D01*
X164987897Y-71054267D01*
X164805488Y-70956767D01*
X164645606Y-70825554D01*
X164514393Y-70665672D01*
X164416893Y-70483263D01*
X164366070Y-70315720D01*
X164356853Y-70285336D01*
X164336580Y-70079500D01*
X164356853Y-69873664D01*
X164416893Y-69675738D01*
X164416893Y-69675737D01*
X164514393Y-69493328D01*
X164645606Y-69333446D01*
X164805488Y-69202233D01*
X164987897Y-69104733D01*
X165053873Y-69084720D01*
X165185824Y-69044693D01*
X165262953Y-69037097D01*
X165340080Y-69029500D01*
X165443240Y-69029500D01*
X165520367Y-69037097D01*
X165520367Y-69037097D01*
G37*
G36*
X196637907Y-69024397D02*
X196715036Y-69031993D01*
X196846987Y-69072020D01*
X196912963Y-69092033D01*
X197095372Y-69189533D01*
X197255254Y-69320746D01*
X197386467Y-69480628D01*
X197483967Y-69663037D01*
X197503980Y-69729013D01*
X197544007Y-69860964D01*
X197564280Y-70066800D01*
X197544007Y-70272636D01*
X197509756Y-70385548D01*
X197483967Y-70470563D01*
X197386467Y-70652972D01*
X197255254Y-70812854D01*
X197095372Y-70944067D01*
X196912963Y-71041567D01*
X196871096Y-71054267D01*
X196715036Y-71101607D01*
X196637907Y-71109204D01*
X196560780Y-71116800D01*
X196457620Y-71116800D01*
X196380493Y-71109204D01*
X196303364Y-71101607D01*
X196147304Y-71054267D01*
X196105437Y-71041567D01*
X195923028Y-70944067D01*
X195763146Y-70812854D01*
X195631933Y-70652972D01*
X195534433Y-70470563D01*
X195508644Y-70385548D01*
X195474393Y-70272636D01*
X195454120Y-70066800D01*
X195474393Y-69860964D01*
X195514420Y-69729013D01*
X195534433Y-69663037D01*
X195631933Y-69480628D01*
X195763146Y-69320746D01*
X195923028Y-69189533D01*
X196105437Y-69092033D01*
X196171413Y-69072020D01*
X196303364Y-69031993D01*
X196380493Y-69024397D01*
X196457620Y-69016800D01*
X196560780Y-69016800D01*
X196637907Y-69024397D01*
X196637907Y-69024397D01*
G37*
G36*
X174532287Y-69024397D02*
X174609416Y-69031993D01*
X174741367Y-69072020D01*
X174807343Y-69092033D01*
X174989752Y-69189533D01*
X175149634Y-69320746D01*
X175280847Y-69480628D01*
X175378347Y-69663037D01*
X175398360Y-69729013D01*
X175438387Y-69860964D01*
X175458660Y-70066800D01*
X175438387Y-70272636D01*
X175404136Y-70385548D01*
X175378347Y-70470563D01*
X175280847Y-70652972D01*
X175149634Y-70812854D01*
X174989752Y-70944067D01*
X174807343Y-71041567D01*
X174765476Y-71054267D01*
X174609416Y-71101607D01*
X174532287Y-71109204D01*
X174455160Y-71116800D01*
X174352000Y-71116800D01*
X174274873Y-71109204D01*
X174197744Y-71101607D01*
X174041684Y-71054267D01*
X173999817Y-71041567D01*
X173817408Y-70944067D01*
X173657526Y-70812854D01*
X173526313Y-70652972D01*
X173428813Y-70470563D01*
X173403024Y-70385548D01*
X173368773Y-70272636D01*
X173348500Y-70066800D01*
X173368773Y-69860964D01*
X173408800Y-69729013D01*
X173428813Y-69663037D01*
X173526313Y-69480628D01*
X173657526Y-69320746D01*
X173817408Y-69189533D01*
X173999817Y-69092033D01*
X174065793Y-69072020D01*
X174197744Y-69031993D01*
X174274873Y-69024397D01*
X174352000Y-69016800D01*
X174455160Y-69016800D01*
X174532287Y-69024397D01*
X174532287Y-69024397D01*
G37*
G36*
X191726830Y-68471669D02*
X191726833Y-68471670D01*
X191726834Y-68471670D01*
X191915335Y-68528851D01*
X191915337Y-68528852D01*
X192089060Y-68621709D01*
X192241328Y-68746672D01*
X192366291Y-68898940D01*
X192436077Y-69029500D01*
X192459149Y-69072665D01*
X192494600Y-69189533D01*
X192516331Y-69261170D01*
X192535638Y-69457200D01*
X192516331Y-69653230D01*
X192516330Y-69653233D01*
X192516330Y-69653234D01*
X192509504Y-69675738D01*
X192459148Y-69841737D01*
X192366291Y-70015460D01*
X192241328Y-70167728D01*
X192089060Y-70292691D01*
X192089058Y-70292692D01*
X191915335Y-70385549D01*
X191726834Y-70442730D01*
X191726833Y-70442730D01*
X191726830Y-70442731D01*
X191579924Y-70457200D01*
X191481676Y-70457200D01*
X191334770Y-70442731D01*
X191334767Y-70442730D01*
X191334766Y-70442730D01*
X191146265Y-70385549D01*
X190972542Y-70292692D01*
X190972540Y-70292691D01*
X190820272Y-70167728D01*
X190695309Y-70015460D01*
X190602452Y-69841737D01*
X190552097Y-69675738D01*
X190545270Y-69653234D01*
X190545270Y-69653233D01*
X190545269Y-69653230D01*
X190525962Y-69457200D01*
X190545269Y-69261170D01*
X190567000Y-69189533D01*
X190602451Y-69072665D01*
X190625523Y-69029500D01*
X190695309Y-68898940D01*
X190820272Y-68746672D01*
X190972540Y-68621709D01*
X191146263Y-68528852D01*
X191146265Y-68528851D01*
X191334766Y-68471670D01*
X191334767Y-68471670D01*
X191334770Y-68471669D01*
X191481676Y-68457200D01*
X191579924Y-68457200D01*
X191726830Y-68471669D01*
X191726830Y-68471669D01*
G37*
G36*
X179026830Y-68471669D02*
X179026833Y-68471670D01*
X179026834Y-68471670D01*
X179215335Y-68528851D01*
X179215337Y-68528852D01*
X179389060Y-68621709D01*
X179541328Y-68746672D01*
X179666291Y-68898940D01*
X179736077Y-69029500D01*
X179759149Y-69072665D01*
X179794600Y-69189533D01*
X179816331Y-69261170D01*
X179835638Y-69457200D01*
X179816331Y-69653230D01*
X179816330Y-69653233D01*
X179816330Y-69653234D01*
X179809504Y-69675738D01*
X179759148Y-69841737D01*
X179666291Y-70015460D01*
X179541328Y-70167728D01*
X179389060Y-70292691D01*
X179389058Y-70292692D01*
X179215335Y-70385549D01*
X179026834Y-70442730D01*
X179026833Y-70442730D01*
X179026830Y-70442731D01*
X178879924Y-70457200D01*
X178781676Y-70457200D01*
X178634770Y-70442731D01*
X178634767Y-70442730D01*
X178634766Y-70442730D01*
X178446265Y-70385549D01*
X178272542Y-70292692D01*
X178272540Y-70292691D01*
X178120272Y-70167728D01*
X177995309Y-70015460D01*
X177902452Y-69841737D01*
X177852097Y-69675738D01*
X177845270Y-69653234D01*
X177845270Y-69653233D01*
X177845269Y-69653230D01*
X177825962Y-69457200D01*
X177845269Y-69261170D01*
X177867000Y-69189533D01*
X177902451Y-69072665D01*
X177925523Y-69029500D01*
X177995309Y-68898940D01*
X178120272Y-68746672D01*
X178272540Y-68621709D01*
X178446263Y-68528852D01*
X178446265Y-68528851D01*
X178634766Y-68471670D01*
X178634767Y-68471670D01*
X178634770Y-68471669D01*
X178781676Y-68457200D01*
X178879924Y-68457200D01*
X179026830Y-68471669D01*
X179026830Y-68471669D01*
G37*
G36*
X204712567Y-66733317D02*
X204789696Y-66740913D01*
X204921008Y-66780746D01*
X204987623Y-66800953D01*
X205170032Y-66898453D01*
X205329914Y-67029666D01*
X205461127Y-67189548D01*
X205558627Y-67371957D01*
X205558627Y-67371958D01*
X205618667Y-67569884D01*
X205638940Y-67775720D01*
X205618667Y-67981556D01*
X205578803Y-68112971D01*
X205558627Y-68179483D01*
X205461127Y-68361892D01*
X205329914Y-68521774D01*
X205170032Y-68652987D01*
X204987623Y-68750487D01*
X204921647Y-68770500D01*
X204789696Y-68810527D01*
X204712567Y-68818124D01*
X204635440Y-68825720D01*
X204532280Y-68825720D01*
X204455153Y-68818124D01*
X204378024Y-68810527D01*
X204246073Y-68770500D01*
X204180097Y-68750487D01*
X203997688Y-68652987D01*
X203837806Y-68521774D01*
X203706593Y-68361892D01*
X203609093Y-68179483D01*
X203588917Y-68112971D01*
X203549053Y-67981556D01*
X203528780Y-67775720D01*
X203549053Y-67569884D01*
X203609093Y-67371958D01*
X203609093Y-67371957D01*
X203706593Y-67189548D01*
X203837806Y-67029666D01*
X203997688Y-66898453D01*
X204180097Y-66800953D01*
X204246712Y-66780746D01*
X204378024Y-66740913D01*
X204455153Y-66733317D01*
X204532280Y-66725720D01*
X204635440Y-66725720D01*
X204712567Y-66733317D01*
X204712567Y-66733317D01*
G37*
G36*
X165520367Y-66497096D02*
X165597496Y-66504693D01*
X165729447Y-66544720D01*
X165795423Y-66564733D01*
X165977832Y-66662233D01*
X166137714Y-66793446D01*
X166268927Y-66953328D01*
X166366427Y-67135737D01*
X166366427Y-67135738D01*
X166426467Y-67333664D01*
X166446740Y-67539500D01*
X166426467Y-67745336D01*
X166417250Y-67775720D01*
X166366427Y-67943263D01*
X166268927Y-68125672D01*
X166137714Y-68285554D01*
X165977832Y-68416767D01*
X165795423Y-68514267D01*
X165770675Y-68521774D01*
X165597496Y-68574307D01*
X165520367Y-68581903D01*
X165443240Y-68589500D01*
X165340080Y-68589500D01*
X165262953Y-68581903D01*
X165185824Y-68574307D01*
X165012645Y-68521774D01*
X164987897Y-68514267D01*
X164805488Y-68416767D01*
X164645606Y-68285554D01*
X164514393Y-68125672D01*
X164416893Y-67943263D01*
X164366070Y-67775720D01*
X164356853Y-67745336D01*
X164336580Y-67539500D01*
X164356853Y-67333664D01*
X164416893Y-67135738D01*
X164416893Y-67135737D01*
X164514393Y-66953328D01*
X164645606Y-66793446D01*
X164805488Y-66662233D01*
X164987897Y-66564733D01*
X165053873Y-66544720D01*
X165185824Y-66504693D01*
X165262953Y-66497096D01*
X165340080Y-66489500D01*
X165443240Y-66489500D01*
X165520367Y-66497096D01*
X165520367Y-66497096D01*
G37*
G36*
X174532287Y-66484397D02*
X174609416Y-66491993D01*
X174741367Y-66532020D01*
X174807343Y-66552033D01*
X174989752Y-66649533D01*
X175149634Y-66780746D01*
X175280847Y-66940628D01*
X175378347Y-67123037D01*
X175398360Y-67189013D01*
X175438387Y-67320964D01*
X175458660Y-67526800D01*
X175438387Y-67732636D01*
X175404136Y-67845548D01*
X175378347Y-67930563D01*
X175280847Y-68112972D01*
X175149634Y-68272854D01*
X174989752Y-68404067D01*
X174807343Y-68501567D01*
X174765476Y-68514267D01*
X174609416Y-68561607D01*
X174532287Y-68569203D01*
X174455160Y-68576800D01*
X174352000Y-68576800D01*
X174274873Y-68569203D01*
X174197744Y-68561607D01*
X174041684Y-68514267D01*
X173999817Y-68501567D01*
X173817408Y-68404067D01*
X173657526Y-68272854D01*
X173526313Y-68112972D01*
X173428813Y-67930563D01*
X173403024Y-67845548D01*
X173368773Y-67732636D01*
X173348500Y-67526800D01*
X173368773Y-67320964D01*
X173408800Y-67189013D01*
X173428813Y-67123037D01*
X173526313Y-66940628D01*
X173657526Y-66780746D01*
X173817408Y-66649533D01*
X173999817Y-66552033D01*
X174065793Y-66532020D01*
X174197744Y-66491993D01*
X174274873Y-66484397D01*
X174352000Y-66476800D01*
X174455160Y-66476800D01*
X174532287Y-66484397D01*
X174532287Y-66484397D01*
G37*
G36*
X196637907Y-66484397D02*
X196715036Y-66491993D01*
X196846987Y-66532020D01*
X196912963Y-66552033D01*
X197095372Y-66649533D01*
X197255254Y-66780746D01*
X197386467Y-66940628D01*
X197483967Y-67123037D01*
X197503980Y-67189013D01*
X197544007Y-67320964D01*
X197564280Y-67526800D01*
X197544007Y-67732636D01*
X197509756Y-67845548D01*
X197483967Y-67930563D01*
X197386467Y-68112972D01*
X197255254Y-68272854D01*
X197095372Y-68404067D01*
X196912963Y-68501567D01*
X196871096Y-68514267D01*
X196715036Y-68561607D01*
X196637907Y-68569203D01*
X196560780Y-68576800D01*
X196457620Y-68576800D01*
X196380493Y-68569203D01*
X196303364Y-68561607D01*
X196147304Y-68514267D01*
X196105437Y-68501567D01*
X195923028Y-68404067D01*
X195763146Y-68272854D01*
X195631933Y-68112972D01*
X195534433Y-67930563D01*
X195508644Y-67845548D01*
X195474393Y-67732636D01*
X195454120Y-67526800D01*
X195474393Y-67320964D01*
X195514420Y-67189013D01*
X195534433Y-67123037D01*
X195631933Y-66940628D01*
X195763146Y-66780746D01*
X195923028Y-66649533D01*
X196105437Y-66552033D01*
X196171413Y-66532020D01*
X196303364Y-66491993D01*
X196380493Y-66484397D01*
X196457620Y-66476800D01*
X196560780Y-66476800D01*
X196637907Y-66484397D01*
X196637907Y-66484397D01*
G37*
G36*
X203189740Y-68569280D02*
X201009740Y-68569280D01*
X201009740Y-66169280D01*
X203189740Y-66169280D01*
X203189740Y-68569280D01*
X203189740Y-68569280D01*
G37*
G36*
X200649740Y-68569280D02*
X198469740Y-68569280D01*
X198469740Y-66169280D01*
X200649740Y-66169280D01*
X200649740Y-68569280D01*
X200649740Y-68569280D01*
G37*
G36*
X169577920Y-68198440D02*
X167397920Y-68198440D01*
X167397920Y-65798440D01*
X169577920Y-65798440D01*
X169577920Y-68198440D01*
X169577920Y-68198440D01*
G37*
G36*
X172117920Y-68198440D02*
X169937920Y-68198440D01*
X169937920Y-65798440D01*
X172117920Y-65798440D01*
X172117920Y-68198440D01*
X172117920Y-68198440D01*
G37*
G36*
X179026830Y-65931669D02*
X179026833Y-65931670D01*
X179026834Y-65931670D01*
X179215335Y-65988851D01*
X179215337Y-65988852D01*
X179389060Y-66081709D01*
X179541328Y-66206672D01*
X179666291Y-66358940D01*
X179736077Y-66489500D01*
X179759149Y-66532665D01*
X179794600Y-66649533D01*
X179816331Y-66721170D01*
X179835638Y-66917200D01*
X179816331Y-67113230D01*
X179816330Y-67113233D01*
X179816330Y-67113234D01*
X179809504Y-67135738D01*
X179759148Y-67301737D01*
X179666291Y-67475460D01*
X179541328Y-67627728D01*
X179389060Y-67752691D01*
X179389058Y-67752692D01*
X179215335Y-67845549D01*
X179026834Y-67902730D01*
X179026833Y-67902730D01*
X179026830Y-67902731D01*
X178879924Y-67917200D01*
X178781676Y-67917200D01*
X178634770Y-67902731D01*
X178634767Y-67902730D01*
X178634766Y-67902730D01*
X178446265Y-67845549D01*
X178272542Y-67752692D01*
X178272540Y-67752691D01*
X178120272Y-67627728D01*
X177995309Y-67475460D01*
X177902452Y-67301737D01*
X177852097Y-67135738D01*
X177845270Y-67113234D01*
X177845270Y-67113233D01*
X177845269Y-67113230D01*
X177825962Y-66917200D01*
X177845269Y-66721170D01*
X177867000Y-66649533D01*
X177902451Y-66532665D01*
X177925523Y-66489500D01*
X177995309Y-66358940D01*
X178120272Y-66206672D01*
X178272540Y-66081709D01*
X178446263Y-65988852D01*
X178446265Y-65988851D01*
X178634766Y-65931670D01*
X178634767Y-65931670D01*
X178634770Y-65931669D01*
X178781676Y-65917200D01*
X178879924Y-65917200D01*
X179026830Y-65931669D01*
X179026830Y-65931669D01*
G37*
G36*
X191726830Y-65931669D02*
X191726833Y-65931670D01*
X191726834Y-65931670D01*
X191915335Y-65988851D01*
X191915337Y-65988852D01*
X192089060Y-66081709D01*
X192241328Y-66206672D01*
X192366291Y-66358940D01*
X192436077Y-66489500D01*
X192459149Y-66532665D01*
X192494600Y-66649533D01*
X192516331Y-66721170D01*
X192535638Y-66917200D01*
X192516331Y-67113230D01*
X192516330Y-67113233D01*
X192516330Y-67113234D01*
X192509504Y-67135738D01*
X192459148Y-67301737D01*
X192366291Y-67475460D01*
X192241328Y-67627728D01*
X192089060Y-67752691D01*
X192089058Y-67752692D01*
X191915335Y-67845549D01*
X191726834Y-67902730D01*
X191726833Y-67902730D01*
X191726830Y-67902731D01*
X191579924Y-67917200D01*
X191481676Y-67917200D01*
X191334770Y-67902731D01*
X191334767Y-67902730D01*
X191334766Y-67902730D01*
X191146265Y-67845549D01*
X190972542Y-67752692D01*
X190972540Y-67752691D01*
X190820272Y-67627728D01*
X190695309Y-67475460D01*
X190602452Y-67301737D01*
X190552097Y-67135738D01*
X190545270Y-67113234D01*
X190545270Y-67113233D01*
X190545269Y-67113230D01*
X190525962Y-66917200D01*
X190545269Y-66721170D01*
X190567000Y-66649533D01*
X190602451Y-66532665D01*
X190625523Y-66489500D01*
X190695309Y-66358940D01*
X190820272Y-66206672D01*
X190972540Y-66081709D01*
X191146263Y-65988852D01*
X191146265Y-65988851D01*
X191334766Y-65931670D01*
X191334767Y-65931670D01*
X191334770Y-65931669D01*
X191481676Y-65917200D01*
X191579924Y-65917200D01*
X191726830Y-65931669D01*
X191726830Y-65931669D01*
G37*
G36*
X205633860Y-66285720D02*
X203533860Y-66285720D01*
X203533860Y-64185720D01*
X205633860Y-64185720D01*
X205633860Y-66285720D01*
X205633860Y-66285720D01*
G37*
G36*
X166441660Y-66049500D02*
X164341660Y-66049500D01*
X164341660Y-63949500D01*
X166441660Y-63949500D01*
X166441660Y-66049500D01*
X166441660Y-66049500D01*
G37*
G36*
X196637907Y-63944397D02*
X196715036Y-63951993D01*
X196846987Y-63992020D01*
X196912963Y-64012033D01*
X197095372Y-64109533D01*
X197255254Y-64240746D01*
X197386467Y-64400628D01*
X197483967Y-64583037D01*
X197483967Y-64583038D01*
X197544007Y-64780964D01*
X197564280Y-64986800D01*
X197544007Y-65192636D01*
X197537923Y-65212691D01*
X197483967Y-65390563D01*
X197386467Y-65572972D01*
X197255254Y-65732854D01*
X197095372Y-65864067D01*
X196912963Y-65961567D01*
X196846987Y-65981580D01*
X196715036Y-66021607D01*
X196637907Y-66029204D01*
X196560780Y-66036800D01*
X196457620Y-66036800D01*
X196380493Y-66029204D01*
X196303364Y-66021607D01*
X196171413Y-65981580D01*
X196105437Y-65961567D01*
X195923028Y-65864067D01*
X195763146Y-65732854D01*
X195631933Y-65572972D01*
X195534433Y-65390563D01*
X195480477Y-65212691D01*
X195474393Y-65192636D01*
X195454120Y-64986800D01*
X195474393Y-64780964D01*
X195534433Y-64583038D01*
X195534433Y-64583037D01*
X195631933Y-64400628D01*
X195763146Y-64240746D01*
X195923028Y-64109533D01*
X196105437Y-64012033D01*
X196171413Y-63992020D01*
X196303364Y-63951993D01*
X196380493Y-63944397D01*
X196457620Y-63936800D01*
X196560780Y-63936800D01*
X196637907Y-63944397D01*
X196637907Y-63944397D01*
G37*
G36*
X174532287Y-63944397D02*
X174609416Y-63951993D01*
X174741367Y-63992020D01*
X174807343Y-64012033D01*
X174989752Y-64109533D01*
X175149634Y-64240746D01*
X175280847Y-64400628D01*
X175378347Y-64583037D01*
X175378347Y-64583038D01*
X175438387Y-64780964D01*
X175458660Y-64986800D01*
X175438387Y-65192636D01*
X175432303Y-65212691D01*
X175378347Y-65390563D01*
X175280847Y-65572972D01*
X175149634Y-65732854D01*
X174989752Y-65864067D01*
X174807343Y-65961567D01*
X174741367Y-65981580D01*
X174609416Y-66021607D01*
X174532287Y-66029204D01*
X174455160Y-66036800D01*
X174352000Y-66036800D01*
X174274873Y-66029204D01*
X174197744Y-66021607D01*
X174065793Y-65981580D01*
X173999817Y-65961567D01*
X173817408Y-65864067D01*
X173657526Y-65732854D01*
X173526313Y-65572972D01*
X173428813Y-65390563D01*
X173374857Y-65212691D01*
X173368773Y-65192636D01*
X173348500Y-64986800D01*
X173368773Y-64780964D01*
X173428813Y-64583038D01*
X173428813Y-64583037D01*
X173526313Y-64400628D01*
X173657526Y-64240746D01*
X173817408Y-64109533D01*
X173999817Y-64012033D01*
X174065793Y-63992020D01*
X174197744Y-63951993D01*
X174274873Y-63944397D01*
X174352000Y-63936800D01*
X174455160Y-63936800D01*
X174532287Y-63944397D01*
X174532287Y-63944397D01*
G37*
G36*
X179026830Y-63391669D02*
X179026833Y-63391670D01*
X179026834Y-63391670D01*
X179215335Y-63448851D01*
X179215337Y-63448852D01*
X179389060Y-63541709D01*
X179541328Y-63666672D01*
X179666291Y-63818940D01*
X179759148Y-63992663D01*
X179816331Y-64181170D01*
X179835638Y-64377200D01*
X179816331Y-64573230D01*
X179759148Y-64761737D01*
X179666291Y-64935460D01*
X179541328Y-65087728D01*
X179389060Y-65212691D01*
X179389058Y-65212692D01*
X179215335Y-65305549D01*
X179026834Y-65362730D01*
X179026833Y-65362730D01*
X179026830Y-65362731D01*
X178879924Y-65377200D01*
X178781676Y-65377200D01*
X178634770Y-65362731D01*
X178634767Y-65362730D01*
X178634766Y-65362730D01*
X178446265Y-65305549D01*
X178272542Y-65212692D01*
X178272540Y-65212691D01*
X178120272Y-65087728D01*
X177995309Y-64935460D01*
X177902452Y-64761737D01*
X177845269Y-64573230D01*
X177825962Y-64377200D01*
X177845269Y-64181170D01*
X177902452Y-63992663D01*
X177995309Y-63818940D01*
X178120272Y-63666672D01*
X178272540Y-63541709D01*
X178446263Y-63448852D01*
X178446265Y-63448851D01*
X178634766Y-63391670D01*
X178634767Y-63391670D01*
X178634770Y-63391669D01*
X178781676Y-63377200D01*
X178879924Y-63377200D01*
X179026830Y-63391669D01*
X179026830Y-63391669D01*
G37*
G36*
X191726830Y-63391669D02*
X191726833Y-63391670D01*
X191726834Y-63391670D01*
X191915335Y-63448851D01*
X191915337Y-63448852D01*
X192089060Y-63541709D01*
X192241328Y-63666672D01*
X192366291Y-63818940D01*
X192459148Y-63992663D01*
X192516331Y-64181170D01*
X192535638Y-64377200D01*
X192516331Y-64573230D01*
X192459148Y-64761737D01*
X192366291Y-64935460D01*
X192241328Y-65087728D01*
X192089060Y-65212691D01*
X192089058Y-65212692D01*
X191915335Y-65305549D01*
X191726834Y-65362730D01*
X191726833Y-65362730D01*
X191726830Y-65362731D01*
X191579924Y-65377200D01*
X191481676Y-65377200D01*
X191334770Y-65362731D01*
X191334767Y-65362730D01*
X191334766Y-65362730D01*
X191146265Y-65305549D01*
X190972542Y-65212692D01*
X190972540Y-65212691D01*
X190820272Y-65087728D01*
X190695309Y-64935460D01*
X190602452Y-64761737D01*
X190545269Y-64573230D01*
X190525962Y-64377200D01*
X190545269Y-64181170D01*
X190602452Y-63992663D01*
X190695309Y-63818940D01*
X190820272Y-63666672D01*
X190972540Y-63541709D01*
X191146263Y-63448852D01*
X191146265Y-63448851D01*
X191334766Y-63391670D01*
X191334767Y-63391670D01*
X191334770Y-63391669D01*
X191481676Y-63377200D01*
X191579924Y-63377200D01*
X191726830Y-63391669D01*
X191726830Y-63391669D01*
G37*
G36*
X174532287Y-61404397D02*
X174609416Y-61411993D01*
X174741367Y-61452020D01*
X174807343Y-61472033D01*
X174989752Y-61569533D01*
X175149634Y-61700746D01*
X175280847Y-61860628D01*
X175378347Y-62043037D01*
X175378347Y-62043038D01*
X175438387Y-62240964D01*
X175458660Y-62446800D01*
X175438387Y-62652636D01*
X175432303Y-62672691D01*
X175378347Y-62850563D01*
X175280847Y-63032972D01*
X175149634Y-63192854D01*
X174989752Y-63324067D01*
X174807343Y-63421567D01*
X174741367Y-63441580D01*
X174609416Y-63481607D01*
X174532287Y-63489203D01*
X174455160Y-63496800D01*
X174352000Y-63496800D01*
X174274873Y-63489203D01*
X174197744Y-63481607D01*
X174065793Y-63441580D01*
X173999817Y-63421567D01*
X173817408Y-63324067D01*
X173657526Y-63192854D01*
X173526313Y-63032972D01*
X173428813Y-62850563D01*
X173374857Y-62672691D01*
X173368773Y-62652636D01*
X173348500Y-62446800D01*
X173368773Y-62240964D01*
X173428813Y-62043038D01*
X173428813Y-62043037D01*
X173526313Y-61860628D01*
X173657526Y-61700746D01*
X173817408Y-61569533D01*
X173999817Y-61472033D01*
X174065793Y-61452020D01*
X174197744Y-61411993D01*
X174274873Y-61404397D01*
X174352000Y-61396800D01*
X174455160Y-61396800D01*
X174532287Y-61404397D01*
X174532287Y-61404397D01*
G37*
G36*
X196637907Y-61404397D02*
X196715036Y-61411993D01*
X196846987Y-61452020D01*
X196912963Y-61472033D01*
X197095372Y-61569533D01*
X197255254Y-61700746D01*
X197386467Y-61860628D01*
X197483967Y-62043037D01*
X197483967Y-62043038D01*
X197544007Y-62240964D01*
X197564280Y-62446800D01*
X197544007Y-62652636D01*
X197537923Y-62672691D01*
X197483967Y-62850563D01*
X197386467Y-63032972D01*
X197255254Y-63192854D01*
X197095372Y-63324067D01*
X196912963Y-63421567D01*
X196846987Y-63441580D01*
X196715036Y-63481607D01*
X196637907Y-63489203D01*
X196560780Y-63496800D01*
X196457620Y-63496800D01*
X196380493Y-63489203D01*
X196303364Y-63481607D01*
X196171413Y-63441580D01*
X196105437Y-63421567D01*
X195923028Y-63324067D01*
X195763146Y-63192854D01*
X195631933Y-63032972D01*
X195534433Y-62850563D01*
X195480477Y-62672691D01*
X195474393Y-62652636D01*
X195454120Y-62446800D01*
X195474393Y-62240964D01*
X195534433Y-62043038D01*
X195534433Y-62043037D01*
X195631933Y-61860628D01*
X195763146Y-61700746D01*
X195923028Y-61569533D01*
X196105437Y-61472033D01*
X196171413Y-61452020D01*
X196303364Y-61411993D01*
X196380493Y-61404397D01*
X196457620Y-61396800D01*
X196560780Y-61396800D01*
X196637907Y-61404397D01*
X196637907Y-61404397D01*
G37*
G36*
X191726830Y-60851669D02*
X191726833Y-60851670D01*
X191726834Y-60851670D01*
X191915335Y-60908851D01*
X191915337Y-60908852D01*
X192089060Y-61001709D01*
X192241328Y-61126672D01*
X192366291Y-61278940D01*
X192459148Y-61452663D01*
X192516331Y-61641170D01*
X192535638Y-61837200D01*
X192516331Y-62033230D01*
X192459148Y-62221737D01*
X192366291Y-62395460D01*
X192241328Y-62547728D01*
X192089060Y-62672691D01*
X192089058Y-62672692D01*
X191915335Y-62765549D01*
X191726834Y-62822730D01*
X191726833Y-62822730D01*
X191726830Y-62822731D01*
X191579924Y-62837200D01*
X191481676Y-62837200D01*
X191334770Y-62822731D01*
X191334767Y-62822730D01*
X191334766Y-62822730D01*
X191146265Y-62765549D01*
X190972542Y-62672692D01*
X190972540Y-62672691D01*
X190820272Y-62547728D01*
X190695309Y-62395460D01*
X190602452Y-62221737D01*
X190545269Y-62033230D01*
X190525962Y-61837200D01*
X190545269Y-61641170D01*
X190602452Y-61452663D01*
X190695309Y-61278940D01*
X190820272Y-61126672D01*
X190972540Y-61001709D01*
X191146263Y-60908852D01*
X191146265Y-60908851D01*
X191334766Y-60851670D01*
X191334767Y-60851670D01*
X191334770Y-60851669D01*
X191481676Y-60837200D01*
X191579924Y-60837200D01*
X191726830Y-60851669D01*
X191726830Y-60851669D01*
G37*
G36*
X179026830Y-60851669D02*
X179026833Y-60851670D01*
X179026834Y-60851670D01*
X179215335Y-60908851D01*
X179215337Y-60908852D01*
X179389060Y-61001709D01*
X179541328Y-61126672D01*
X179666291Y-61278940D01*
X179759148Y-61452663D01*
X179816331Y-61641170D01*
X179835638Y-61837200D01*
X179816331Y-62033230D01*
X179759148Y-62221737D01*
X179666291Y-62395460D01*
X179541328Y-62547728D01*
X179389060Y-62672691D01*
X179389058Y-62672692D01*
X179215335Y-62765549D01*
X179026834Y-62822730D01*
X179026833Y-62822730D01*
X179026830Y-62822731D01*
X178879924Y-62837200D01*
X178781676Y-62837200D01*
X178634770Y-62822731D01*
X178634767Y-62822730D01*
X178634766Y-62822730D01*
X178446265Y-62765549D01*
X178272542Y-62672692D01*
X178272540Y-62672691D01*
X178120272Y-62547728D01*
X177995309Y-62395460D01*
X177902452Y-62221737D01*
X177845269Y-62033230D01*
X177825962Y-61837200D01*
X177845269Y-61641170D01*
X177902452Y-61452663D01*
X177995309Y-61278940D01*
X178120272Y-61126672D01*
X178272540Y-61001709D01*
X178446263Y-60908852D01*
X178446265Y-60908851D01*
X178634766Y-60851670D01*
X178634767Y-60851670D01*
X178634770Y-60851669D01*
X178781676Y-60837200D01*
X178879924Y-60837200D01*
X179026830Y-60851669D01*
X179026830Y-60851669D01*
G37*
G36*
X196637907Y-58864397D02*
X196715036Y-58871993D01*
X196846987Y-58912020D01*
X196912963Y-58932033D01*
X197095372Y-59029533D01*
X197255254Y-59160746D01*
X197386467Y-59320628D01*
X197483967Y-59503037D01*
X197483967Y-59503038D01*
X197544007Y-59700964D01*
X197564280Y-59906800D01*
X197544007Y-60112636D01*
X197537923Y-60132691D01*
X197483967Y-60310563D01*
X197386467Y-60492972D01*
X197255254Y-60652854D01*
X197095372Y-60784067D01*
X196912963Y-60881567D01*
X196846987Y-60901580D01*
X196715036Y-60941607D01*
X196637907Y-60949204D01*
X196560780Y-60956800D01*
X196457620Y-60956800D01*
X196380493Y-60949204D01*
X196303364Y-60941607D01*
X196171413Y-60901580D01*
X196105437Y-60881567D01*
X195923028Y-60784067D01*
X195763146Y-60652854D01*
X195631933Y-60492972D01*
X195534433Y-60310563D01*
X195480477Y-60132691D01*
X195474393Y-60112636D01*
X195454120Y-59906800D01*
X195474393Y-59700964D01*
X195534433Y-59503038D01*
X195534433Y-59503037D01*
X195631933Y-59320628D01*
X195763146Y-59160746D01*
X195923028Y-59029533D01*
X196105437Y-58932033D01*
X196171413Y-58912020D01*
X196303364Y-58871993D01*
X196380493Y-58864397D01*
X196457620Y-58856800D01*
X196560780Y-58856800D01*
X196637907Y-58864397D01*
X196637907Y-58864397D01*
G37*
G36*
X174532287Y-58864397D02*
X174609416Y-58871993D01*
X174741367Y-58912020D01*
X174807343Y-58932033D01*
X174989752Y-59029533D01*
X175149634Y-59160746D01*
X175280847Y-59320628D01*
X175378347Y-59503037D01*
X175378347Y-59503038D01*
X175438387Y-59700964D01*
X175458660Y-59906800D01*
X175438387Y-60112636D01*
X175432303Y-60132691D01*
X175378347Y-60310563D01*
X175280847Y-60492972D01*
X175149634Y-60652854D01*
X174989752Y-60784067D01*
X174807343Y-60881567D01*
X174741367Y-60901580D01*
X174609416Y-60941607D01*
X174532287Y-60949204D01*
X174455160Y-60956800D01*
X174352000Y-60956800D01*
X174274873Y-60949204D01*
X174197744Y-60941607D01*
X174065793Y-60901580D01*
X173999817Y-60881567D01*
X173817408Y-60784067D01*
X173657526Y-60652854D01*
X173526313Y-60492972D01*
X173428813Y-60310563D01*
X173374857Y-60132691D01*
X173368773Y-60112636D01*
X173348500Y-59906800D01*
X173368773Y-59700964D01*
X173428813Y-59503038D01*
X173428813Y-59503037D01*
X173526313Y-59320628D01*
X173657526Y-59160746D01*
X173817408Y-59029533D01*
X173999817Y-58932033D01*
X174065793Y-58912020D01*
X174197744Y-58871993D01*
X174274873Y-58864397D01*
X174352000Y-58856800D01*
X174455160Y-58856800D01*
X174532287Y-58864397D01*
X174532287Y-58864397D01*
G37*
G36*
X191726830Y-58311669D02*
X191726833Y-58311670D01*
X191726834Y-58311670D01*
X191915335Y-58368851D01*
X191915337Y-58368852D01*
X192089060Y-58461709D01*
X192241328Y-58586672D01*
X192366291Y-58738940D01*
X192459148Y-58912663D01*
X192516331Y-59101170D01*
X192535638Y-59297200D01*
X192516331Y-59493230D01*
X192459148Y-59681737D01*
X192366291Y-59855460D01*
X192241328Y-60007728D01*
X192089060Y-60132691D01*
X192089058Y-60132692D01*
X191915335Y-60225549D01*
X191726834Y-60282730D01*
X191726833Y-60282730D01*
X191726830Y-60282731D01*
X191579924Y-60297200D01*
X191481676Y-60297200D01*
X191334770Y-60282731D01*
X191334767Y-60282730D01*
X191334766Y-60282730D01*
X191146265Y-60225549D01*
X190972542Y-60132692D01*
X190972540Y-60132691D01*
X190820272Y-60007728D01*
X190695309Y-59855460D01*
X190602452Y-59681737D01*
X190545269Y-59493230D01*
X190525962Y-59297200D01*
X190545269Y-59101170D01*
X190602452Y-58912663D01*
X190695309Y-58738940D01*
X190820272Y-58586672D01*
X190972540Y-58461709D01*
X191146263Y-58368852D01*
X191146265Y-58368851D01*
X191334766Y-58311670D01*
X191334767Y-58311670D01*
X191334770Y-58311669D01*
X191481676Y-58297200D01*
X191579924Y-58297200D01*
X191726830Y-58311669D01*
X191726830Y-58311669D01*
G37*
G36*
X179026830Y-58311669D02*
X179026833Y-58311670D01*
X179026834Y-58311670D01*
X179215335Y-58368851D01*
X179215337Y-58368852D01*
X179389060Y-58461709D01*
X179541328Y-58586672D01*
X179666291Y-58738940D01*
X179759148Y-58912663D01*
X179816331Y-59101170D01*
X179835638Y-59297200D01*
X179816331Y-59493230D01*
X179759148Y-59681737D01*
X179666291Y-59855460D01*
X179541328Y-60007728D01*
X179389060Y-60132691D01*
X179389058Y-60132692D01*
X179215335Y-60225549D01*
X179026834Y-60282730D01*
X179026833Y-60282730D01*
X179026830Y-60282731D01*
X178879924Y-60297200D01*
X178781676Y-60297200D01*
X178634770Y-60282731D01*
X178634767Y-60282730D01*
X178634766Y-60282730D01*
X178446265Y-60225549D01*
X178272542Y-60132692D01*
X178272540Y-60132691D01*
X178120272Y-60007728D01*
X177995309Y-59855460D01*
X177902452Y-59681737D01*
X177845269Y-59493230D01*
X177825962Y-59297200D01*
X177845269Y-59101170D01*
X177902452Y-58912663D01*
X177995309Y-58738940D01*
X178120272Y-58586672D01*
X178272540Y-58461709D01*
X178446263Y-58368852D01*
X178446265Y-58368851D01*
X178634766Y-58311670D01*
X178634767Y-58311670D01*
X178634770Y-58311669D01*
X178781676Y-58297200D01*
X178879924Y-58297200D01*
X179026830Y-58311669D01*
X179026830Y-58311669D01*
G37*
G36*
X203189740Y-59039280D02*
X201009740Y-59039280D01*
X201009740Y-56639280D01*
X203189740Y-56639280D01*
X203189740Y-59039280D01*
X203189740Y-59039280D01*
G37*
G36*
X200649740Y-59039280D02*
X198469740Y-59039280D01*
X198469740Y-56639280D01*
X200649740Y-56639280D01*
X200649740Y-59039280D01*
X200649740Y-59039280D01*
G37*
G36*
X172117920Y-58668440D02*
X169937920Y-58668440D01*
X169937920Y-56268440D01*
X172117920Y-56268440D01*
X172117920Y-58668440D01*
X172117920Y-58668440D01*
G37*
G36*
X169577920Y-58668440D02*
X167397920Y-58668440D01*
X167397920Y-56268440D01*
X169577920Y-56268440D01*
X169577920Y-58668440D01*
X169577920Y-58668440D01*
G37*
G36*
X174532287Y-56324396D02*
X174609416Y-56331993D01*
X174741367Y-56372020D01*
X174807343Y-56392033D01*
X174989752Y-56489533D01*
X175149634Y-56620746D01*
X175280847Y-56780628D01*
X175378347Y-56963037D01*
X175378347Y-56963038D01*
X175438387Y-57160964D01*
X175458660Y-57366800D01*
X175438387Y-57572636D01*
X175432303Y-57592691D01*
X175378347Y-57770563D01*
X175280847Y-57952972D01*
X175149634Y-58112854D01*
X174989752Y-58244067D01*
X174807343Y-58341567D01*
X174741367Y-58361580D01*
X174609416Y-58401607D01*
X174532287Y-58409203D01*
X174455160Y-58416800D01*
X174352000Y-58416800D01*
X174274873Y-58409203D01*
X174197744Y-58401607D01*
X174065793Y-58361580D01*
X173999817Y-58341567D01*
X173817408Y-58244067D01*
X173657526Y-58112854D01*
X173526313Y-57952972D01*
X173428813Y-57770563D01*
X173374857Y-57592691D01*
X173368773Y-57572636D01*
X173348500Y-57366800D01*
X173368773Y-57160964D01*
X173428813Y-56963038D01*
X173428813Y-56963037D01*
X173526313Y-56780628D01*
X173657526Y-56620746D01*
X173817408Y-56489533D01*
X173999817Y-56392033D01*
X174065793Y-56372020D01*
X174197744Y-56331993D01*
X174274873Y-56324396D01*
X174352000Y-56316800D01*
X174455160Y-56316800D01*
X174532287Y-56324396D01*
X174532287Y-56324396D01*
G37*
G36*
X196637907Y-56324396D02*
X196715036Y-56331993D01*
X196846987Y-56372020D01*
X196912963Y-56392033D01*
X197095372Y-56489533D01*
X197255254Y-56620746D01*
X197386467Y-56780628D01*
X197483967Y-56963037D01*
X197483967Y-56963038D01*
X197544007Y-57160964D01*
X197564280Y-57366800D01*
X197544007Y-57572636D01*
X197537923Y-57592691D01*
X197483967Y-57770563D01*
X197386467Y-57952972D01*
X197255254Y-58112854D01*
X197095372Y-58244067D01*
X196912963Y-58341567D01*
X196846987Y-58361580D01*
X196715036Y-58401607D01*
X196637907Y-58409203D01*
X196560780Y-58416800D01*
X196457620Y-58416800D01*
X196380493Y-58409203D01*
X196303364Y-58401607D01*
X196171413Y-58361580D01*
X196105437Y-58341567D01*
X195923028Y-58244067D01*
X195763146Y-58112854D01*
X195631933Y-57952972D01*
X195534433Y-57770563D01*
X195480477Y-57592691D01*
X195474393Y-57572636D01*
X195454120Y-57366800D01*
X195474393Y-57160964D01*
X195534433Y-56963038D01*
X195534433Y-56963037D01*
X195631933Y-56780628D01*
X195763146Y-56620746D01*
X195923028Y-56489533D01*
X196105437Y-56392033D01*
X196171413Y-56372020D01*
X196303364Y-56331993D01*
X196380493Y-56324396D01*
X196457620Y-56316800D01*
X196560780Y-56316800D01*
X196637907Y-56324396D01*
X196637907Y-56324396D01*
G37*
G36*
X191726830Y-55771669D02*
X191726833Y-55771670D01*
X191726834Y-55771670D01*
X191915335Y-55828851D01*
X191915337Y-55828852D01*
X192089060Y-55921709D01*
X192241328Y-56046672D01*
X192366291Y-56198940D01*
X192459148Y-56372663D01*
X192516331Y-56561170D01*
X192535638Y-56757200D01*
X192516331Y-56953230D01*
X192459148Y-57141737D01*
X192366291Y-57315460D01*
X192241328Y-57467728D01*
X192089060Y-57592691D01*
X192089058Y-57592692D01*
X191915335Y-57685549D01*
X191726834Y-57742730D01*
X191726833Y-57742730D01*
X191726830Y-57742731D01*
X191579924Y-57757200D01*
X191481676Y-57757200D01*
X191334770Y-57742731D01*
X191334767Y-57742730D01*
X191334766Y-57742730D01*
X191146265Y-57685549D01*
X190972542Y-57592692D01*
X190972540Y-57592691D01*
X190820272Y-57467728D01*
X190695309Y-57315460D01*
X190602452Y-57141737D01*
X190545269Y-56953230D01*
X190525962Y-56757200D01*
X190545269Y-56561170D01*
X190602452Y-56372663D01*
X190695309Y-56198940D01*
X190820272Y-56046672D01*
X190972540Y-55921709D01*
X191146263Y-55828852D01*
X191146265Y-55828851D01*
X191334766Y-55771670D01*
X191334767Y-55771670D01*
X191334770Y-55771669D01*
X191481676Y-55757200D01*
X191579924Y-55757200D01*
X191726830Y-55771669D01*
X191726830Y-55771669D01*
G37*
G36*
X179026830Y-55771669D02*
X179026833Y-55771670D01*
X179026834Y-55771670D01*
X179215335Y-55828851D01*
X179215337Y-55828852D01*
X179389060Y-55921709D01*
X179541328Y-56046672D01*
X179666291Y-56198940D01*
X179759148Y-56372663D01*
X179816331Y-56561170D01*
X179835638Y-56757200D01*
X179816331Y-56953230D01*
X179759148Y-57141737D01*
X179666291Y-57315460D01*
X179541328Y-57467728D01*
X179389060Y-57592691D01*
X179389058Y-57592692D01*
X179215335Y-57685549D01*
X179026834Y-57742730D01*
X179026833Y-57742730D01*
X179026830Y-57742731D01*
X178879924Y-57757200D01*
X178781676Y-57757200D01*
X178634770Y-57742731D01*
X178634767Y-57742730D01*
X178634766Y-57742730D01*
X178446265Y-57685549D01*
X178272542Y-57592692D01*
X178272540Y-57592691D01*
X178120272Y-57467728D01*
X177995309Y-57315460D01*
X177902452Y-57141737D01*
X177845269Y-56953230D01*
X177825962Y-56757200D01*
X177845269Y-56561170D01*
X177902452Y-56372663D01*
X177995309Y-56198940D01*
X178120272Y-56046672D01*
X178272540Y-55921709D01*
X178446263Y-55828852D01*
X178446265Y-55828851D01*
X178634766Y-55771670D01*
X178634767Y-55771670D01*
X178634770Y-55771669D01*
X178781676Y-55757200D01*
X178879924Y-55757200D01*
X179026830Y-55771669D01*
X179026830Y-55771669D01*
G37*
G36*
X196637907Y-53784396D02*
X196715036Y-53791993D01*
X196846987Y-53832020D01*
X196912963Y-53852033D01*
X197095372Y-53949533D01*
X197255254Y-54080746D01*
X197386467Y-54240628D01*
X197483967Y-54423037D01*
X197483967Y-54423038D01*
X197544007Y-54620964D01*
X197564280Y-54826800D01*
X197544007Y-55032636D01*
X197503980Y-55164587D01*
X197483967Y-55230563D01*
X197386467Y-55412972D01*
X197255254Y-55572854D01*
X197095372Y-55704067D01*
X196912963Y-55801567D01*
X196846987Y-55821580D01*
X196715036Y-55861607D01*
X196637907Y-55869204D01*
X196560780Y-55876800D01*
X196457620Y-55876800D01*
X196380493Y-55869204D01*
X196303364Y-55861607D01*
X196171413Y-55821580D01*
X196105437Y-55801567D01*
X195923028Y-55704067D01*
X195763146Y-55572854D01*
X195631933Y-55412972D01*
X195534433Y-55230563D01*
X195514420Y-55164587D01*
X195474393Y-55032636D01*
X195454120Y-54826800D01*
X195474393Y-54620964D01*
X195534433Y-54423038D01*
X195534433Y-54423037D01*
X195631933Y-54240628D01*
X195763146Y-54080746D01*
X195923028Y-53949533D01*
X196105437Y-53852033D01*
X196171413Y-53832020D01*
X196303364Y-53791993D01*
X196380493Y-53784396D01*
X196457620Y-53776800D01*
X196560780Y-53776800D01*
X196637907Y-53784396D01*
X196637907Y-53784396D01*
G37*
G36*
X174532287Y-53784396D02*
X174609416Y-53791993D01*
X174741367Y-53832020D01*
X174807343Y-53852033D01*
X174989752Y-53949533D01*
X175149634Y-54080746D01*
X175280847Y-54240628D01*
X175378347Y-54423037D01*
X175378347Y-54423038D01*
X175438387Y-54620964D01*
X175458660Y-54826800D01*
X175438387Y-55032636D01*
X175398360Y-55164587D01*
X175378347Y-55230563D01*
X175280847Y-55412972D01*
X175149634Y-55572854D01*
X174989752Y-55704067D01*
X174807343Y-55801567D01*
X174741367Y-55821580D01*
X174609416Y-55861607D01*
X174532287Y-55869204D01*
X174455160Y-55876800D01*
X174352000Y-55876800D01*
X174274873Y-55869204D01*
X174197744Y-55861607D01*
X174065793Y-55821580D01*
X173999817Y-55801567D01*
X173817408Y-55704067D01*
X173657526Y-55572854D01*
X173526313Y-55412972D01*
X173428813Y-55230563D01*
X173408800Y-55164587D01*
X173368773Y-55032636D01*
X173348500Y-54826800D01*
X173368773Y-54620964D01*
X173428813Y-54423038D01*
X173428813Y-54423037D01*
X173526313Y-54240628D01*
X173657526Y-54080746D01*
X173817408Y-53949533D01*
X173999817Y-53852033D01*
X174065793Y-53832020D01*
X174197744Y-53791993D01*
X174274873Y-53784396D01*
X174352000Y-53776800D01*
X174455160Y-53776800D01*
X174532287Y-53784396D01*
X174532287Y-53784396D01*
G37*
G36*
X175453580Y-53336800D02*
X173353580Y-53336800D01*
X173353580Y-51236800D01*
X175453580Y-51236800D01*
X175453580Y-53336800D01*
X175453580Y-53336800D01*
G37*
G36*
X197559200Y-53336800D02*
X195459200Y-53336800D01*
X195459200Y-51236800D01*
X197559200Y-51236800D01*
X197559200Y-53336800D01*
X197559200Y-53336800D01*
G37*
G36*
X184293507Y-51091997D02*
X184370636Y-51099593D01*
X184502587Y-51139620D01*
X184568563Y-51159633D01*
X184750972Y-51257133D01*
X184910854Y-51388346D01*
X185042067Y-51548228D01*
X185139567Y-51730637D01*
X185139567Y-51730638D01*
X185199607Y-51928564D01*
X185219880Y-52134400D01*
X185199607Y-52340236D01*
X185159580Y-52472187D01*
X185139567Y-52538163D01*
X185042067Y-52720572D01*
X184910854Y-52880454D01*
X184750972Y-53011667D01*
X184568563Y-53109167D01*
X184502587Y-53129180D01*
X184370636Y-53169207D01*
X184293507Y-53176804D01*
X184216380Y-53184400D01*
X184113220Y-53184400D01*
X184036093Y-53176804D01*
X183958964Y-53169207D01*
X183827013Y-53129180D01*
X183761037Y-53109167D01*
X183578628Y-53011667D01*
X183418746Y-52880454D01*
X183287533Y-52720572D01*
X183190033Y-52538163D01*
X183170020Y-52472187D01*
X183129993Y-52340236D01*
X183109720Y-52134400D01*
X183129993Y-51928564D01*
X183190033Y-51730638D01*
X183190033Y-51730637D01*
X183287533Y-51548228D01*
X183418746Y-51388346D01*
X183578628Y-51257133D01*
X183761037Y-51159633D01*
X183827013Y-51139620D01*
X183958964Y-51099593D01*
X184036093Y-51091996D01*
X184113220Y-51084400D01*
X184216380Y-51084400D01*
X184293507Y-51091997D01*
X184293507Y-51091997D01*
G37*
G36*
X186833507Y-51091997D02*
X186910636Y-51099593D01*
X187042587Y-51139620D01*
X187108563Y-51159633D01*
X187290972Y-51257133D01*
X187450854Y-51388346D01*
X187582067Y-51548228D01*
X187679567Y-51730637D01*
X187679567Y-51730638D01*
X187739607Y-51928564D01*
X187759880Y-52134400D01*
X187739607Y-52340236D01*
X187699580Y-52472187D01*
X187679567Y-52538163D01*
X187582067Y-52720572D01*
X187450854Y-52880454D01*
X187290972Y-53011667D01*
X187108563Y-53109167D01*
X187042587Y-53129180D01*
X186910636Y-53169207D01*
X186833507Y-53176804D01*
X186756380Y-53184400D01*
X186653220Y-53184400D01*
X186576093Y-53176804D01*
X186498964Y-53169207D01*
X186367013Y-53129180D01*
X186301037Y-53109167D01*
X186118628Y-53011667D01*
X185958746Y-52880454D01*
X185827533Y-52720572D01*
X185730033Y-52538163D01*
X185710020Y-52472187D01*
X185669993Y-52340236D01*
X185649720Y-52134400D01*
X185669993Y-51928564D01*
X185730033Y-51730638D01*
X185730033Y-51730637D01*
X185827533Y-51548228D01*
X185958746Y-51388346D01*
X186118628Y-51257133D01*
X186301037Y-51159633D01*
X186367013Y-51139620D01*
X186498964Y-51099593D01*
X186576093Y-51091996D01*
X186653220Y-51084400D01*
X186756380Y-51084400D01*
X186833507Y-51091997D01*
X186833507Y-51091997D01*
G37*
G36*
X181753507Y-51091997D02*
X181830636Y-51099593D01*
X181962587Y-51139620D01*
X182028563Y-51159633D01*
X182210972Y-51257133D01*
X182370854Y-51388346D01*
X182502067Y-51548228D01*
X182599567Y-51730637D01*
X182599567Y-51730638D01*
X182659607Y-51928564D01*
X182679880Y-52134400D01*
X182659607Y-52340236D01*
X182619580Y-52472187D01*
X182599567Y-52538163D01*
X182502067Y-52720572D01*
X182370854Y-52880454D01*
X182210972Y-53011667D01*
X182028563Y-53109167D01*
X181962587Y-53129180D01*
X181830636Y-53169207D01*
X181753507Y-53176804D01*
X181676380Y-53184400D01*
X181573220Y-53184400D01*
X181496093Y-53176804D01*
X181418964Y-53169207D01*
X181287013Y-53129180D01*
X181221037Y-53109167D01*
X181038628Y-53011667D01*
X180878746Y-52880454D01*
X180747533Y-52720572D01*
X180650033Y-52538163D01*
X180630020Y-52472187D01*
X180589993Y-52340236D01*
X180569720Y-52134400D01*
X180589993Y-51928564D01*
X180650033Y-51730638D01*
X180650033Y-51730637D01*
X180747533Y-51548228D01*
X180878746Y-51388346D01*
X181038628Y-51257133D01*
X181221037Y-51159633D01*
X181287013Y-51139620D01*
X181418964Y-51099593D01*
X181496093Y-51091996D01*
X181573220Y-51084400D01*
X181676380Y-51084400D01*
X181753507Y-51091997D01*
X181753507Y-51091997D01*
G37*
G36*
X190294800Y-53184400D02*
X188194800Y-53184400D01*
X188194800Y-51084400D01*
X190294800Y-51084400D01*
X190294800Y-53184400D01*
X190294800Y-53184400D01*
G37*
M02*
