M48
;DRILL file {KiCad 5.0.2-bee76a0~70~ubuntu18.04.1} date mar 29 ene 2019 19:41:59 CET
;FORMAT={-:-/ absolute / metric / decimal}
FMAT,2
METRIC,TZ
T1C0.400
T2C0.800
T3C1.000
T4C1.400
T5C3.000
%
G90
G05
T1
X168.45Y-66.925
X168.457Y-63.544
X168.46Y-73.745
X168.488Y-57.468
X168.569Y-70.646
X171.084Y-70.671
X171.084Y-73.745
X171.109Y-80.151
X171.269Y-63.544
X171.269Y-66.757
X171.404Y-60.557
X172.811Y-58.662
X176.171Y-78.862
X180.413Y-59.447
X180.507Y-64.15
X180.748Y-88.698
X182.196Y-71.304
X182.262Y-69.447
X187.949Y-80.717
X190.728Y-88.699
X199.417Y-60.938
X199.461Y-64.029
X199.489Y-76.709
X199.56Y-67.616
X199.661Y-80.333
X199.674Y-70.781
X201.63Y-73.696
X202.209Y-63.851
X202.212Y-60.849
X202.3Y-70.821
X202.336Y-57.832
X202.425Y-76.724
T2
X183.987Y-72.193
X186.487Y-72.193
X178.831Y-56.757
X178.831Y-59.297
X178.831Y-61.837
X178.831Y-64.377
X178.831Y-66.917
X178.831Y-69.457
X178.831Y-71.997
X178.831Y-74.537
X191.531Y-56.757
X191.531Y-59.297
X191.531Y-61.837
X191.531Y-64.377
X191.531Y-66.917
X191.531Y-69.457
X191.531Y-71.997
X191.531Y-74.537
T3
X174.404Y-52.287
X174.404Y-54.827
X174.404Y-57.367
X174.404Y-59.907
X174.404Y-62.447
X174.404Y-64.987
X174.404Y-67.527
X174.404Y-70.067
X174.404Y-72.607
X174.404Y-75.147
X174.404Y-77.687
X174.404Y-80.227
X174.404Y-82.767
X174.404Y-85.307
X174.404Y-87.847
X183.875Y-82.762
X186.415Y-82.762
X196.509Y-52.287
X196.509Y-54.827
X196.509Y-57.367
X196.509Y-59.907
X196.509Y-62.447
X196.509Y-64.987
X196.509Y-67.527
X196.509Y-70.067
X196.509Y-72.607
X196.509Y-75.147
X196.509Y-77.687
X196.509Y-80.227
X196.509Y-82.767
X196.509Y-85.307
X196.509Y-87.847
X165.392Y-64.999
X165.392Y-67.54
X165.392Y-70.079
X165.392Y-72.62
X204.584Y-65.236
X204.584Y-67.776
X204.584Y-70.316
X204.584Y-72.856
X181.625Y-52.134
X184.165Y-52.134
X186.705Y-52.134
X189.245Y-52.134
X193.273Y-83.442
X193.273Y-85.982
X193.273Y-88.522
X177.754Y-83.442
X177.754Y-85.982
X177.754Y-88.522
T4
X182.793Y-86.348
X187.793Y-86.348
T5
X169.6Y-53.6
X169.7Y-84.9
X201.Y-53.6
X201.019Y-84.9
T0
M30
