G04 #@! TF.GenerationSoftware,KiCad,Pcbnew,5.0.2-bee76a0~70~ubuntu18.04.1*
G04 #@! TF.CreationDate,2019-01-29T19:41:14+01:00*
G04 #@! TF.ProjectId,ustepper_41_nano,75737465-7070-4657-925f-34315f6e616e,rev?*
G04 #@! TF.SameCoordinates,Original*
G04 #@! TF.FileFunction,Copper,L2,Bot*
G04 #@! TF.FilePolarity,Positive*
%FSLAX46Y46*%
G04 Gerber Fmt 4.6, Leading zero omitted, Abs format (unit mm)*
G04 Created by KiCad (PCBNEW 5.0.2-bee76a0~70~ubuntu18.04.1) date mar 29 ene 2019 19:41:14 CET*
%MOMM*%
%LPD*%
G01*
G04 APERTURE LIST*
G04 #@! TA.AperFunction,SMDPad,CuDef*
%ADD10R,1.550000X0.600000*%
G04 #@! TD*
G04 #@! TA.AperFunction,ComponentPad*
%ADD11R,1.600000X1.600000*%
G04 #@! TD*
G04 #@! TA.AperFunction,ComponentPad*
%ADD12O,1.600000X1.600000*%
G04 #@! TD*
G04 #@! TA.AperFunction,ComponentPad*
%ADD13O,1.700000X1.700000*%
G04 #@! TD*
G04 #@! TA.AperFunction,ComponentPad*
%ADD14R,1.700000X1.700000*%
G04 #@! TD*
G04 #@! TA.AperFunction,Conductor*
%ADD15C,0.100000*%
G04 #@! TD*
G04 #@! TA.AperFunction,SMDPad,CuDef*
%ADD16C,1.425000*%
G04 #@! TD*
G04 #@! TA.AperFunction,ViaPad*
%ADD17C,4.000000*%
G04 #@! TD*
G04 #@! TA.AperFunction,ViaPad*
%ADD18C,0.800000*%
G04 #@! TD*
G04 #@! TA.AperFunction,Conductor*
%ADD19C,0.500000*%
G04 #@! TD*
G04 APERTURE END LIST*
D10*
G04 #@! TO.P,U1,1*
G04 #@! TO.N,27-5V*
X139500000Y-70718920D03*
G04 #@! TO.P,U1,2*
G04 #@! TO.N,Net-(C3-Pad1)*
X139500000Y-69448920D03*
G04 #@! TO.P,U1,3*
G04 #@! TO.N,A7-ASA*
X139500000Y-68178920D03*
G04 #@! TO.P,U1,4*
G04 #@! TO.N,29-GND*
X139500000Y-66908920D03*
G04 #@! TO.P,U1,5*
G04 #@! TO.N,N/C*
X144900000Y-66908920D03*
G04 #@! TO.P,U1,6*
G04 #@! TO.N,A4-SDA*
X144900000Y-68178920D03*
G04 #@! TO.P,U1,7*
G04 #@! TO.N,A5-SCL*
X144900000Y-69448920D03*
G04 #@! TO.P,U1,8*
G04 #@! TO.N,N/C*
X144900000Y-70718920D03*
G04 #@! TD*
D11*
G04 #@! TO.P,A1,1*
G04 #@! TO.N,D1-TXD*
X134878640Y-52441740D03*
D12*
G04 #@! TO.P,A1,17*
G04 #@! TO.N,17-3V3*
X150118640Y-85461740D03*
G04 #@! TO.P,A1,2*
G04 #@! TO.N,D0-RXD*
X134878640Y-54981740D03*
G04 #@! TO.P,A1,18*
G04 #@! TO.N,18-AREF*
X150118640Y-82921740D03*
G04 #@! TO.P,A1,3*
G04 #@! TO.N,3-RST*
X134878640Y-57521740D03*
G04 #@! TO.P,A1,19*
G04 #@! TO.N,A0-V*
X150118640Y-80381740D03*
G04 #@! TO.P,A1,4*
G04 #@! TO.N,29-GND*
X134878640Y-60061740D03*
G04 #@! TO.P,A1,20*
G04 #@! TO.N,A1-I*
X150118640Y-77841740D03*
G04 #@! TO.P,A1,5*
G04 #@! TO.N,D2-*
X134878640Y-62601740D03*
G04 #@! TO.P,A1,21*
G04 #@! TO.N,A2-VEL_DER*
X150118640Y-75301740D03*
G04 #@! TO.P,A1,6*
G04 #@! TO.N,D3-*
X134878640Y-65141740D03*
G04 #@! TO.P,A1,22*
G04 #@! TO.N,A3-VEL_IZQ*
X150118640Y-72761740D03*
G04 #@! TO.P,A1,7*
G04 #@! TO.N,D4-STEP*
X134878640Y-67681740D03*
G04 #@! TO.P,A1,23*
G04 #@! TO.N,A4-SDA*
X150118640Y-70221740D03*
G04 #@! TO.P,A1,8*
G04 #@! TO.N,D5-*
X134878640Y-70221740D03*
G04 #@! TO.P,A1,24*
G04 #@! TO.N,A5-SCL*
X150118640Y-67681740D03*
G04 #@! TO.P,A1,9*
G04 #@! TO.N,D6-*
X134878640Y-72761740D03*
G04 #@! TO.P,A1,25*
G04 #@! TO.N,A6-TEMP*
X150118640Y-65141740D03*
G04 #@! TO.P,A1,10*
G04 #@! TO.N,D7-DIR*
X134878640Y-75301740D03*
G04 #@! TO.P,A1,26*
G04 #@! TO.N,A7-ASA*
X150118640Y-62601740D03*
G04 #@! TO.P,A1,11*
G04 #@! TO.N,D8-ENA*
X134878640Y-77841740D03*
G04 #@! TO.P,A1,27*
G04 #@! TO.N,27-5V*
X150118640Y-60061740D03*
G04 #@! TO.P,A1,12*
G04 #@! TO.N,D9-PWM-OUT*
X134878640Y-80381740D03*
G04 #@! TO.P,A1,28*
G04 #@! TO.N,28-RST*
X150118640Y-57521740D03*
G04 #@! TO.P,A1,13*
G04 #@! TO.N,D10-*
X134878640Y-82921740D03*
G04 #@! TO.P,A1,29*
G04 #@! TO.N,29-GND*
X150118640Y-54981740D03*
G04 #@! TO.P,A1,14*
G04 #@! TO.N,D11-MS1*
X134878640Y-85461740D03*
G04 #@! TO.P,A1,30*
G04 #@! TO.N,30-VIN*
X150118640Y-52441740D03*
G04 #@! TO.P,A1,15*
G04 #@! TO.N,D12-MS2*
X134878640Y-88001740D03*
G04 #@! TO.P,A1,16*
G04 #@! TO.N,D13-MS3*
X150118640Y-88001740D03*
G04 #@! TD*
D13*
G04 #@! TO.P,J1,15*
G04 #@! TO.N,D12-MS2*
X131315020Y-88004280D03*
G04 #@! TO.P,J1,14*
G04 #@! TO.N,D11-MS1*
X131315020Y-85464280D03*
G04 #@! TO.P,J1,13*
G04 #@! TO.N,D10-*
X131315020Y-82924280D03*
G04 #@! TO.P,J1,12*
G04 #@! TO.N,D9-PWM-OUT*
X131315020Y-80384280D03*
G04 #@! TO.P,J1,11*
G04 #@! TO.N,D8-ENA*
X131315020Y-77844280D03*
G04 #@! TO.P,J1,10*
G04 #@! TO.N,D7-DIR*
X131315020Y-75304280D03*
G04 #@! TO.P,J1,9*
G04 #@! TO.N,D6-*
X131315020Y-72764280D03*
G04 #@! TO.P,J1,8*
G04 #@! TO.N,D5-*
X131315020Y-70224280D03*
G04 #@! TO.P,J1,7*
G04 #@! TO.N,D4-STEP*
X131315020Y-67684280D03*
G04 #@! TO.P,J1,6*
G04 #@! TO.N,D3-*
X131315020Y-65144280D03*
G04 #@! TO.P,J1,5*
G04 #@! TO.N,D2-*
X131315020Y-62604280D03*
G04 #@! TO.P,J1,4*
G04 #@! TO.N,29-GND*
X131315020Y-60064280D03*
G04 #@! TO.P,J1,3*
G04 #@! TO.N,3-RST*
X131315020Y-57524280D03*
G04 #@! TO.P,J1,2*
G04 #@! TO.N,D0-RXD*
X131315020Y-54984280D03*
D14*
G04 #@! TO.P,J1,1*
G04 #@! TO.N,D1-TXD*
X131315020Y-52444280D03*
G04 #@! TD*
G04 #@! TO.P,J3,1*
G04 #@! TO.N,30-VIN*
X153720360Y-52454440D03*
D13*
G04 #@! TO.P,J3,2*
G04 #@! TO.N,29-GND*
X153720360Y-54994440D03*
G04 #@! TO.P,J3,3*
G04 #@! TO.N,28-RST*
X153720360Y-57534440D03*
G04 #@! TO.P,J3,4*
G04 #@! TO.N,27-5V*
X153720360Y-60074440D03*
G04 #@! TO.P,J3,5*
G04 #@! TO.N,A7-ASA*
X153720360Y-62614440D03*
G04 #@! TO.P,J3,6*
G04 #@! TO.N,A6-TEMP*
X153720360Y-65154440D03*
G04 #@! TO.P,J3,7*
G04 #@! TO.N,A5-SCL*
X153720360Y-67694440D03*
G04 #@! TO.P,J3,8*
G04 #@! TO.N,A4-SDA*
X153720360Y-70234440D03*
G04 #@! TO.P,J3,9*
G04 #@! TO.N,A3-VEL_IZQ*
X153720360Y-72774440D03*
G04 #@! TO.P,J3,10*
G04 #@! TO.N,A2-VEL_DER*
X153720360Y-75314440D03*
G04 #@! TO.P,J3,11*
G04 #@! TO.N,A1-I*
X153720360Y-77854440D03*
G04 #@! TO.P,J3,12*
G04 #@! TO.N,A0-V*
X153720360Y-80394440D03*
G04 #@! TO.P,J3,13*
G04 #@! TO.N,18-AREF*
X153720360Y-82934440D03*
G04 #@! TO.P,J3,14*
G04 #@! TO.N,17-3V3*
X153720360Y-85474440D03*
G04 #@! TO.P,J3,15*
G04 #@! TO.N,D13-MS3*
X153720360Y-88014440D03*
G04 #@! TD*
D14*
G04 #@! TO.P,J5,1*
G04 #@! TO.N,27-5V*
X161154940Y-60943120D03*
D13*
G04 #@! TO.P,J5,2*
G04 #@! TO.N,AIN-10V*
X161154940Y-63483120D03*
G04 #@! TO.P,J5,3*
G04 #@! TO.N,AN-OUT*
X161154940Y-66023120D03*
G04 #@! TO.P,J5,4*
G04 #@! TO.N,A7-ASA*
X161154940Y-68563120D03*
G04 #@! TO.P,J5,5*
G04 #@! TO.N,27-5V*
X161154940Y-71103120D03*
G04 #@! TO.P,J5,6*
G04 #@! TO.N,A6-TEMP*
X161154940Y-73643120D03*
G04 #@! TO.P,J5,7*
G04 #@! TO.N,29-GND*
X161154940Y-76183120D03*
G04 #@! TD*
D15*
G04 #@! TO.N,27-5V*
G04 #@! TO.C,TH1*
G36*
X140603064Y-58033124D02*
X140627333Y-58036724D01*
X140651131Y-58042685D01*
X140674231Y-58050950D01*
X140696409Y-58061440D01*
X140717453Y-58074053D01*
X140737158Y-58088667D01*
X140755337Y-58105143D01*
X140771813Y-58123322D01*
X140786427Y-58143027D01*
X140799040Y-58164071D01*
X140809530Y-58186249D01*
X140817795Y-58209349D01*
X140823756Y-58233147D01*
X140827356Y-58257416D01*
X140828560Y-58281920D01*
X140828560Y-59206920D01*
X140827356Y-59231424D01*
X140823756Y-59255693D01*
X140817795Y-59279491D01*
X140809530Y-59302591D01*
X140799040Y-59324769D01*
X140786427Y-59345813D01*
X140771813Y-59365518D01*
X140755337Y-59383697D01*
X140737158Y-59400173D01*
X140717453Y-59414787D01*
X140696409Y-59427400D01*
X140674231Y-59437890D01*
X140651131Y-59446155D01*
X140627333Y-59452116D01*
X140603064Y-59455716D01*
X140578560Y-59456920D01*
X139328560Y-59456920D01*
X139304056Y-59455716D01*
X139279787Y-59452116D01*
X139255989Y-59446155D01*
X139232889Y-59437890D01*
X139210711Y-59427400D01*
X139189667Y-59414787D01*
X139169962Y-59400173D01*
X139151783Y-59383697D01*
X139135307Y-59365518D01*
X139120693Y-59345813D01*
X139108080Y-59324769D01*
X139097590Y-59302591D01*
X139089325Y-59279491D01*
X139083364Y-59255693D01*
X139079764Y-59231424D01*
X139078560Y-59206920D01*
X139078560Y-58281920D01*
X139079764Y-58257416D01*
X139083364Y-58233147D01*
X139089325Y-58209349D01*
X139097590Y-58186249D01*
X139108080Y-58164071D01*
X139120693Y-58143027D01*
X139135307Y-58123322D01*
X139151783Y-58105143D01*
X139169962Y-58088667D01*
X139189667Y-58074053D01*
X139210711Y-58061440D01*
X139232889Y-58050950D01*
X139255989Y-58042685D01*
X139279787Y-58036724D01*
X139304056Y-58033124D01*
X139328560Y-58031920D01*
X140578560Y-58031920D01*
X140603064Y-58033124D01*
X140603064Y-58033124D01*
G37*
D16*
G04 #@! TD*
G04 #@! TO.P,TH1,1*
G04 #@! TO.N,27-5V*
X139953560Y-58744420D03*
D15*
G04 #@! TO.N,A6-TEMP*
G04 #@! TO.C,TH1*
G36*
X140603064Y-61008124D02*
X140627333Y-61011724D01*
X140651131Y-61017685D01*
X140674231Y-61025950D01*
X140696409Y-61036440D01*
X140717453Y-61049053D01*
X140737158Y-61063667D01*
X140755337Y-61080143D01*
X140771813Y-61098322D01*
X140786427Y-61118027D01*
X140799040Y-61139071D01*
X140809530Y-61161249D01*
X140817795Y-61184349D01*
X140823756Y-61208147D01*
X140827356Y-61232416D01*
X140828560Y-61256920D01*
X140828560Y-62181920D01*
X140827356Y-62206424D01*
X140823756Y-62230693D01*
X140817795Y-62254491D01*
X140809530Y-62277591D01*
X140799040Y-62299769D01*
X140786427Y-62320813D01*
X140771813Y-62340518D01*
X140755337Y-62358697D01*
X140737158Y-62375173D01*
X140717453Y-62389787D01*
X140696409Y-62402400D01*
X140674231Y-62412890D01*
X140651131Y-62421155D01*
X140627333Y-62427116D01*
X140603064Y-62430716D01*
X140578560Y-62431920D01*
X139328560Y-62431920D01*
X139304056Y-62430716D01*
X139279787Y-62427116D01*
X139255989Y-62421155D01*
X139232889Y-62412890D01*
X139210711Y-62402400D01*
X139189667Y-62389787D01*
X139169962Y-62375173D01*
X139151783Y-62358697D01*
X139135307Y-62340518D01*
X139120693Y-62320813D01*
X139108080Y-62299769D01*
X139097590Y-62277591D01*
X139089325Y-62254491D01*
X139083364Y-62230693D01*
X139079764Y-62206424D01*
X139078560Y-62181920D01*
X139078560Y-61256920D01*
X139079764Y-61232416D01*
X139083364Y-61208147D01*
X139089325Y-61184349D01*
X139097590Y-61161249D01*
X139108080Y-61139071D01*
X139120693Y-61118027D01*
X139135307Y-61098322D01*
X139151783Y-61080143D01*
X139169962Y-61063667D01*
X139189667Y-61049053D01*
X139210711Y-61036440D01*
X139232889Y-61025950D01*
X139255989Y-61017685D01*
X139279787Y-61011724D01*
X139304056Y-61008124D01*
X139328560Y-61006920D01*
X140578560Y-61006920D01*
X140603064Y-61008124D01*
X140603064Y-61008124D01*
G37*
D16*
G04 #@! TD*
G04 #@! TO.P,TH1,2*
G04 #@! TO.N,A6-TEMP*
X139953560Y-61719420D03*
D17*
G04 #@! TO.N,*
X158000000Y-53600000D03*
X126700000Y-84900000D03*
X126600000Y-53600000D03*
X158000000Y-84900000D03*
D18*
G04 #@! TO.N,Net-(C3-Pad1)*
X137906320Y-68738380D03*
X138053640Y-61829580D03*
X139227120Y-69469900D03*
X140707940Y-55007140D03*
G04 #@! TO.N,A5-SCL*
X143641640Y-73368800D03*
G04 #@! TO.N,A4-SDA*
X145320580Y-68192280D03*
X143606080Y-76218680D03*
G04 #@! TO.N,A6-TEMP*
X139923080Y-61799100D03*
X147090960Y-58199920D03*
X147032540Y-61710200D03*
G04 #@! TO.N,27-5V*
X139981500Y-58692680D03*
X144624620Y-55123980D03*
X140471720Y-76218680D03*
X140309160Y-73315460D03*
X139500000Y-70739900D03*
G04 #@! TO.N,29-GND*
X144042960Y-82114020D03*
X143783880Y-61565420D03*
X144101380Y-58141500D03*
X144624620Y-51989620D03*
X140880660Y-51989620D03*
X123804240Y-77087360D03*
X124020140Y-67945900D03*
X123976960Y-58977160D03*
X158063760Y-76144080D03*
G04 #@! TO.N,D11-MS1*
X123849960Y-61931180D03*
G04 #@! TO.N,D12-MS2*
X123806780Y-70940560D03*
G04 #@! TO.N,D13-MS3*
X123796620Y-80323320D03*
G04 #@! TO.N,A0-V*
X157918980Y-73110660D03*
G04 #@! TO.N,AN-OUT*
X147078260Y-89482560D03*
X145015780Y-87432780D03*
X143994700Y-85229660D03*
G04 #@! TD*
D19*
G04 #@! TO.N,Net-(C3-Pad1)*
X138637840Y-69469900D02*
X137906320Y-68738380D01*
X139227120Y-69469900D02*
X138637840Y-69469900D01*
X138053640Y-61263895D02*
X138053640Y-61829580D01*
X138053640Y-57095755D02*
X138053640Y-61263895D01*
X140142255Y-55007140D02*
X138053640Y-57095755D01*
X140707940Y-55007140D02*
X140142255Y-55007140D01*
G04 #@! TO.N,A5-SCL*
X153707660Y-67681740D02*
X153720360Y-67694440D01*
X150118640Y-67681740D02*
X153707660Y-67681740D01*
X148678460Y-67681740D02*
X150118640Y-67681740D01*
X144900000Y-69448920D02*
X146911280Y-69448920D01*
X146911280Y-69448920D02*
X148678460Y-67681740D01*
X146911280Y-71717140D02*
X146911280Y-69448920D01*
X145659619Y-72968801D02*
X146911280Y-71717140D01*
X143641640Y-73368800D02*
X144041639Y-72968801D01*
X144041639Y-72968801D02*
X145659619Y-72968801D01*
G04 #@! TO.N,A4-SDA*
X153707660Y-70221740D02*
X153720360Y-70234440D01*
X150118640Y-70221740D02*
X153707660Y-70221740D01*
G04 #@! TO.N,A7-ASA*
X153707660Y-62601740D02*
X153720360Y-62614440D01*
X150118640Y-62601740D02*
X153707660Y-62601740D01*
X159669040Y-68563120D02*
X161154940Y-68563120D01*
X153720360Y-62614440D02*
X159669040Y-68563120D01*
X148987270Y-62601740D02*
X150118640Y-62601740D01*
X147326110Y-64262900D02*
X148987270Y-62601740D01*
X139500000Y-67658921D02*
X140635001Y-67658921D01*
X139500000Y-68178920D02*
X139500000Y-67658921D01*
X140635001Y-67658921D02*
X140725001Y-67568921D01*
X140725001Y-67568921D02*
X140725001Y-65983199D01*
X140725001Y-65983199D02*
X142445300Y-64262900D01*
X142445300Y-64262900D02*
X147326110Y-64262900D01*
G04 #@! TO.N,A6-TEMP*
X153707660Y-65141740D02*
X153720360Y-65154440D01*
X150118640Y-65141740D02*
X153707660Y-65141740D01*
X147090960Y-61651780D02*
X147032540Y-61710200D01*
X147090960Y-58199920D02*
X147090960Y-61651780D01*
X158609860Y-71098040D02*
X161154940Y-73643120D01*
X156996960Y-71098040D02*
X158609860Y-71098040D01*
X156057160Y-70158240D02*
X156996960Y-71098040D01*
X156057160Y-66350780D02*
X156057160Y-70158240D01*
X153720360Y-65154440D02*
X154860820Y-65154440D01*
X154860820Y-65154440D02*
X156057160Y-66350780D01*
G04 #@! TO.N,27-5V*
X153707660Y-60061740D02*
X153720360Y-60074440D01*
X150118640Y-60061740D02*
X153707660Y-60061740D01*
X139500000Y-72506300D02*
X140309160Y-73315460D01*
X139500000Y-70718920D02*
X139500000Y-70739900D01*
X140471720Y-73478020D02*
X140309160Y-73315460D01*
X140471720Y-76218680D02*
X140471720Y-73478020D01*
X141055920Y-58692680D02*
X144624620Y-55123980D01*
X139981500Y-58692680D02*
X141055920Y-58692680D01*
X162004939Y-70253121D02*
X161154940Y-71103120D01*
X162454941Y-69803119D02*
X162004939Y-70253121D01*
X160538942Y-60943120D02*
X162454941Y-62859119D01*
X162454941Y-62859119D02*
X162454941Y-69803119D01*
X161154940Y-60943120D02*
X160538942Y-60943120D01*
X160286260Y-60074440D02*
X161154940Y-60943120D01*
X153720360Y-60074440D02*
X160286260Y-60074440D01*
X139500000Y-70739900D02*
X139500000Y-72506300D01*
G04 #@! TO.N,17-3V3*
X153707660Y-85461740D02*
X153720360Y-85474440D01*
X150118640Y-85461740D02*
X153707660Y-85461740D01*
G04 #@! TO.N,29-GND*
X134876100Y-60064280D02*
X134878640Y-60061740D01*
X131315020Y-60064280D02*
X134876100Y-60064280D01*
X153707660Y-54981740D02*
X153720360Y-54994440D01*
X150118640Y-54981740D02*
X153707660Y-54981740D01*
X123620141Y-67545901D02*
X124020140Y-67945900D01*
X121925010Y-65850770D02*
X123620141Y-67545901D01*
X121925010Y-61029110D02*
X121925010Y-65850770D01*
X123976960Y-58977160D02*
X121925010Y-61029110D01*
X123804240Y-77087360D02*
X121950040Y-75233160D01*
X121950040Y-70016000D02*
X124020140Y-67945900D01*
X121950040Y-75233160D02*
X121950040Y-70016000D01*
X123976960Y-57697000D02*
X123976960Y-58977160D01*
X129877380Y-60064280D02*
X128795340Y-58982240D01*
X131315020Y-60064280D02*
X129877380Y-60064280D01*
X128795340Y-58982240D02*
X128795340Y-57615720D01*
X128795340Y-57615720D02*
X127997780Y-56818160D01*
X127997780Y-56818160D02*
X124855800Y-56818160D01*
X124855800Y-56818160D02*
X123976960Y-57697000D01*
X140880660Y-51989620D02*
X144624620Y-51989620D01*
X149067080Y-54981740D02*
X150118640Y-54981740D01*
X144624620Y-51989620D02*
X146074960Y-51989620D01*
X146074960Y-51989620D02*
X149067080Y-54981740D01*
X147261140Y-54981740D02*
X150118640Y-54981740D01*
X144101380Y-58141500D02*
X147261140Y-54981740D01*
X144101380Y-61247920D02*
X143783880Y-61565420D01*
X144101380Y-58141500D02*
X144101380Y-61247920D01*
X143550200Y-61565420D02*
X140619040Y-64496580D01*
X143783880Y-61565420D02*
X143550200Y-61565420D01*
X139500000Y-65587680D02*
X139500000Y-66908920D01*
X140591100Y-64496580D02*
X139500000Y-65587680D01*
X161154940Y-85560800D02*
X161154940Y-76183120D01*
X145086900Y-82114020D02*
X146100360Y-83127480D01*
X146100360Y-83127480D02*
X146100360Y-86731740D01*
X146100360Y-86731740D02*
X149036600Y-89667980D01*
X144042960Y-82114020D02*
X145086900Y-82114020D01*
X149036600Y-89667980D02*
X157047760Y-89667980D01*
X157047760Y-89667980D02*
X161154940Y-85560800D01*
X144042960Y-80960860D02*
X144042960Y-82114020D01*
X137912060Y-66908920D02*
X136770940Y-68050040D01*
X139500000Y-66908920D02*
X137912060Y-66908920D01*
X136770940Y-68050040D02*
X136770940Y-77740140D01*
X136770940Y-77740140D02*
X137893620Y-78862820D01*
X141944920Y-78862820D02*
X144042960Y-80960860D01*
X137893620Y-78862820D02*
X141944920Y-78862820D01*
X138851200Y-64496580D02*
X140619040Y-64496580D01*
X136974140Y-62619520D02*
X138851200Y-64496580D01*
X136974140Y-60325900D02*
X136974140Y-62619520D01*
X134878640Y-60061740D02*
X136709980Y-60061740D01*
X136709980Y-60061740D02*
X136974140Y-60325900D01*
G04 #@! TO.N,30-VIN*
X153707660Y-52441740D02*
X153720360Y-52454440D01*
X150118640Y-52441740D02*
X153707660Y-52441740D01*
G04 #@! TO.N,D1-TXD*
X134876100Y-52444280D02*
X134878640Y-52441740D01*
X131315020Y-52444280D02*
X134876100Y-52444280D01*
G04 #@! TO.N,D0-RXD*
X134876100Y-54984280D02*
X134878640Y-54981740D01*
X131315020Y-54984280D02*
X134876100Y-54984280D01*
G04 #@! TO.N,18-AREF*
X153707660Y-82921740D02*
X153720360Y-82934440D01*
X150118640Y-82921740D02*
X153707660Y-82921740D01*
G04 #@! TO.N,3-RST*
X134876100Y-57524280D02*
X134878640Y-57521740D01*
X131315020Y-57524280D02*
X134876100Y-57524280D01*
G04 #@! TO.N,D5-*
X134876100Y-70224280D02*
X134878640Y-70221740D01*
X131315020Y-70224280D02*
X134876100Y-70224280D01*
G04 #@! TO.N,D6-*
X134876100Y-72764280D02*
X134878640Y-72761740D01*
X131315020Y-72764280D02*
X134876100Y-72764280D01*
G04 #@! TO.N,28-RST*
X153707660Y-57521740D02*
X153720360Y-57534440D01*
X150118640Y-57521740D02*
X153707660Y-57521740D01*
G04 #@! TO.N,D2-*
X134876100Y-62604280D02*
X134878640Y-62601740D01*
X131315020Y-62604280D02*
X134876100Y-62604280D01*
G04 #@! TO.N,D3-*
X134876100Y-65144280D02*
X134878640Y-65141740D01*
X131315020Y-65144280D02*
X134876100Y-65144280D01*
G04 #@! TO.N,D4-STEP*
X134876100Y-67684280D02*
X134878640Y-67681740D01*
X131315020Y-67684280D02*
X134876100Y-67684280D01*
G04 #@! TO.N,D7-DIR*
X134876100Y-75304280D02*
X134878640Y-75301740D01*
X131315020Y-75304280D02*
X134876100Y-75304280D01*
G04 #@! TO.N,D8-ENA*
X134876100Y-77844280D02*
X134878640Y-77841740D01*
X131315020Y-77844280D02*
X134876100Y-77844280D01*
G04 #@! TO.N,D11-MS1*
X134876100Y-85464280D02*
X134878640Y-85461740D01*
X131315020Y-85464280D02*
X134876100Y-85464280D01*
X124249959Y-62331179D02*
X123849960Y-61931180D01*
X129341440Y-67422660D02*
X124249959Y-62331179D01*
X131315020Y-85464280D02*
X130479360Y-85464280D01*
X129341440Y-84326360D02*
X129341440Y-67422660D01*
X130479360Y-85464280D02*
X129341440Y-84326360D01*
G04 #@! TO.N,D12-MS2*
X134876100Y-88004280D02*
X134878640Y-88001740D01*
X131315020Y-88004280D02*
X134876100Y-88004280D01*
X125475560Y-82025120D02*
X125475560Y-72609340D01*
X123839800Y-83660880D02*
X125475560Y-82025120D01*
X125475560Y-72609340D02*
X123806780Y-70940560D01*
X123839800Y-86744440D02*
X123839800Y-83660880D01*
X131315020Y-88004280D02*
X125099640Y-88004280D01*
X125099640Y-88004280D02*
X123839800Y-86744440D01*
G04 #@! TO.N,D13-MS3*
X153707660Y-88001740D02*
X153720360Y-88014440D01*
X150118640Y-88001740D02*
X153707660Y-88001740D01*
G04 #@! TO.N,A0-V*
X153707660Y-80381740D02*
X153720360Y-80394440D01*
X150118640Y-80381740D02*
X153707660Y-80381740D01*
X157511640Y-73110660D02*
X157918980Y-73110660D01*
X156255280Y-79061601D02*
X156255280Y-74367020D01*
X153720360Y-80394440D02*
X154922441Y-80394440D01*
X156255280Y-74367020D02*
X157511640Y-73110660D01*
X154922441Y-80394440D02*
X156255280Y-79061601D01*
G04 #@! TO.N,D9-PWM-OUT*
X134876100Y-80384280D02*
X134878640Y-80381740D01*
X131315020Y-80384280D02*
X134876100Y-80384280D01*
G04 #@! TO.N,D10-*
X134876100Y-82924280D02*
X134878640Y-82921740D01*
X131315020Y-82924280D02*
X134876100Y-82924280D01*
G04 #@! TO.N,AN-OUT*
X145028478Y-87432780D02*
X145015780Y-87432780D01*
X147078260Y-89482560D02*
X145028478Y-87432780D01*
G04 #@! TO.N,A1-I*
X153707660Y-77841740D02*
X153720360Y-77854440D01*
X150118640Y-77841740D02*
X153707660Y-77841740D01*
G04 #@! TO.N,A2-VEL_DER*
X153707660Y-75301740D02*
X153720360Y-75314440D01*
X150118640Y-75301740D02*
X153707660Y-75301740D01*
G04 #@! TO.N,A3-VEL_IZQ*
X153707660Y-72761740D02*
X153720360Y-72774440D01*
X150118640Y-72761740D02*
X153707660Y-72761740D01*
G04 #@! TD*
M02*
