G04 #@! TF.GenerationSoftware,KiCad,Pcbnew,5.0.2-bee76a0~70~ubuntu18.04.1*
G04 #@! TF.CreationDate,2019-01-29T19:41:14+01:00*
G04 #@! TF.ProjectId,ustepper_41_nano,75737465-7070-4657-925f-34315f6e616e,rev?*
G04 #@! TF.SameCoordinates,Original*
G04 #@! TF.FileFunction,Copper,L1,Top*
G04 #@! TF.FilePolarity,Positive*
%FSLAX46Y46*%
G04 Gerber Fmt 4.6, Leading zero omitted, Abs format (unit mm)*
G04 Created by KiCad (PCBNEW 5.0.2-bee76a0~70~ubuntu18.04.1) date mar 29 ene 2019 19:41:14 CET*
%MOMM*%
%LPD*%
G01*
G04 APERTURE LIST*
G04 #@! TA.AperFunction,ComponentPad*
%ADD10R,1.600000X1.600000*%
G04 #@! TD*
G04 #@! TA.AperFunction,ComponentPad*
%ADD11O,1.600000X1.600000*%
G04 #@! TD*
G04 #@! TA.AperFunction,Conductor*
%ADD12C,0.100000*%
G04 #@! TD*
G04 #@! TA.AperFunction,SMDPad,CuDef*
%ADD13C,1.425000*%
G04 #@! TD*
G04 #@! TA.AperFunction,ComponentPad*
%ADD14O,1.700000X1.700000*%
G04 #@! TD*
G04 #@! TA.AperFunction,ComponentPad*
%ADD15R,1.700000X1.700000*%
G04 #@! TD*
G04 #@! TA.AperFunction,ViaPad*
%ADD16C,4.000000*%
G04 #@! TD*
G04 #@! TA.AperFunction,ViaPad*
%ADD17C,0.800000*%
G04 #@! TD*
G04 #@! TA.AperFunction,Conductor*
%ADD18C,0.500000*%
G04 #@! TD*
G04 APERTURE END LIST*
D10*
G04 #@! TO.P,A1,1*
G04 #@! TO.N,D1-TXD*
X134878640Y-52441740D03*
D11*
G04 #@! TO.P,A1,17*
G04 #@! TO.N,17-3V3*
X150118640Y-85461740D03*
G04 #@! TO.P,A1,2*
G04 #@! TO.N,D0-RXD*
X134878640Y-54981740D03*
G04 #@! TO.P,A1,18*
G04 #@! TO.N,18-AREF*
X150118640Y-82921740D03*
G04 #@! TO.P,A1,3*
G04 #@! TO.N,3-RST*
X134878640Y-57521740D03*
G04 #@! TO.P,A1,19*
G04 #@! TO.N,A0-V*
X150118640Y-80381740D03*
G04 #@! TO.P,A1,4*
G04 #@! TO.N,29-GND*
X134878640Y-60061740D03*
G04 #@! TO.P,A1,20*
G04 #@! TO.N,A1-I*
X150118640Y-77841740D03*
G04 #@! TO.P,A1,5*
G04 #@! TO.N,D2-*
X134878640Y-62601740D03*
G04 #@! TO.P,A1,21*
G04 #@! TO.N,A2-VEL_DER*
X150118640Y-75301740D03*
G04 #@! TO.P,A1,6*
G04 #@! TO.N,D3-*
X134878640Y-65141740D03*
G04 #@! TO.P,A1,22*
G04 #@! TO.N,A3-VEL_IZQ*
X150118640Y-72761740D03*
G04 #@! TO.P,A1,7*
G04 #@! TO.N,D4-STEP*
X134878640Y-67681740D03*
G04 #@! TO.P,A1,23*
G04 #@! TO.N,A4-SDA*
X150118640Y-70221740D03*
G04 #@! TO.P,A1,8*
G04 #@! TO.N,D5-*
X134878640Y-70221740D03*
G04 #@! TO.P,A1,24*
G04 #@! TO.N,A5-SCL*
X150118640Y-67681740D03*
G04 #@! TO.P,A1,9*
G04 #@! TO.N,D6-*
X134878640Y-72761740D03*
G04 #@! TO.P,A1,25*
G04 #@! TO.N,A6-TEMP*
X150118640Y-65141740D03*
G04 #@! TO.P,A1,10*
G04 #@! TO.N,D7-DIR*
X134878640Y-75301740D03*
G04 #@! TO.P,A1,26*
G04 #@! TO.N,A7-ASA*
X150118640Y-62601740D03*
G04 #@! TO.P,A1,11*
G04 #@! TO.N,D8-ENA*
X134878640Y-77841740D03*
G04 #@! TO.P,A1,27*
G04 #@! TO.N,27-5V*
X150118640Y-60061740D03*
G04 #@! TO.P,A1,12*
G04 #@! TO.N,D9-PWM-OUT*
X134878640Y-80381740D03*
G04 #@! TO.P,A1,28*
G04 #@! TO.N,28-RST*
X150118640Y-57521740D03*
G04 #@! TO.P,A1,13*
G04 #@! TO.N,D10-*
X134878640Y-82921740D03*
G04 #@! TO.P,A1,29*
G04 #@! TO.N,29-GND*
X150118640Y-54981740D03*
G04 #@! TO.P,A1,14*
G04 #@! TO.N,D11-MS1*
X134878640Y-85461740D03*
G04 #@! TO.P,A1,30*
G04 #@! TO.N,30-VIN*
X150118640Y-52441740D03*
G04 #@! TO.P,A1,15*
G04 #@! TO.N,D12-MS2*
X134878640Y-88001740D03*
G04 #@! TO.P,A1,16*
G04 #@! TO.N,D13-MS3*
X150118640Y-88001740D03*
G04 #@! TD*
D12*
G04 #@! TO.N,A6-TEMP*
G04 #@! TO.C,C1*
G36*
X147556704Y-60836404D02*
X147580973Y-60840004D01*
X147604771Y-60845965D01*
X147627871Y-60854230D01*
X147650049Y-60864720D01*
X147671093Y-60877333D01*
X147690798Y-60891947D01*
X147708977Y-60908423D01*
X147725453Y-60926602D01*
X147740067Y-60946307D01*
X147752680Y-60967351D01*
X147763170Y-60989529D01*
X147771435Y-61012629D01*
X147777396Y-61036427D01*
X147780996Y-61060696D01*
X147782200Y-61085200D01*
X147782200Y-62335200D01*
X147780996Y-62359704D01*
X147777396Y-62383973D01*
X147771435Y-62407771D01*
X147763170Y-62430871D01*
X147752680Y-62453049D01*
X147740067Y-62474093D01*
X147725453Y-62493798D01*
X147708977Y-62511977D01*
X147690798Y-62528453D01*
X147671093Y-62543067D01*
X147650049Y-62555680D01*
X147627871Y-62566170D01*
X147604771Y-62574435D01*
X147580973Y-62580396D01*
X147556704Y-62583996D01*
X147532200Y-62585200D01*
X146607200Y-62585200D01*
X146582696Y-62583996D01*
X146558427Y-62580396D01*
X146534629Y-62574435D01*
X146511529Y-62566170D01*
X146489351Y-62555680D01*
X146468307Y-62543067D01*
X146448602Y-62528453D01*
X146430423Y-62511977D01*
X146413947Y-62493798D01*
X146399333Y-62474093D01*
X146386720Y-62453049D01*
X146376230Y-62430871D01*
X146367965Y-62407771D01*
X146362004Y-62383973D01*
X146358404Y-62359704D01*
X146357200Y-62335200D01*
X146357200Y-61085200D01*
X146358404Y-61060696D01*
X146362004Y-61036427D01*
X146367965Y-61012629D01*
X146376230Y-60989529D01*
X146386720Y-60967351D01*
X146399333Y-60946307D01*
X146413947Y-60926602D01*
X146430423Y-60908423D01*
X146448602Y-60891947D01*
X146468307Y-60877333D01*
X146489351Y-60864720D01*
X146511529Y-60854230D01*
X146534629Y-60845965D01*
X146558427Y-60840004D01*
X146582696Y-60836404D01*
X146607200Y-60835200D01*
X147532200Y-60835200D01*
X147556704Y-60836404D01*
X147556704Y-60836404D01*
G37*
D13*
G04 #@! TD*
G04 #@! TO.P,C1,1*
G04 #@! TO.N,A6-TEMP*
X147069700Y-61710200D03*
D12*
G04 #@! TO.N,29-GND*
G04 #@! TO.C,C1*
G36*
X144581704Y-60836404D02*
X144605973Y-60840004D01*
X144629771Y-60845965D01*
X144652871Y-60854230D01*
X144675049Y-60864720D01*
X144696093Y-60877333D01*
X144715798Y-60891947D01*
X144733977Y-60908423D01*
X144750453Y-60926602D01*
X144765067Y-60946307D01*
X144777680Y-60967351D01*
X144788170Y-60989529D01*
X144796435Y-61012629D01*
X144802396Y-61036427D01*
X144805996Y-61060696D01*
X144807200Y-61085200D01*
X144807200Y-62335200D01*
X144805996Y-62359704D01*
X144802396Y-62383973D01*
X144796435Y-62407771D01*
X144788170Y-62430871D01*
X144777680Y-62453049D01*
X144765067Y-62474093D01*
X144750453Y-62493798D01*
X144733977Y-62511977D01*
X144715798Y-62528453D01*
X144696093Y-62543067D01*
X144675049Y-62555680D01*
X144652871Y-62566170D01*
X144629771Y-62574435D01*
X144605973Y-62580396D01*
X144581704Y-62583996D01*
X144557200Y-62585200D01*
X143632200Y-62585200D01*
X143607696Y-62583996D01*
X143583427Y-62580396D01*
X143559629Y-62574435D01*
X143536529Y-62566170D01*
X143514351Y-62555680D01*
X143493307Y-62543067D01*
X143473602Y-62528453D01*
X143455423Y-62511977D01*
X143438947Y-62493798D01*
X143424333Y-62474093D01*
X143411720Y-62453049D01*
X143401230Y-62430871D01*
X143392965Y-62407771D01*
X143387004Y-62383973D01*
X143383404Y-62359704D01*
X143382200Y-62335200D01*
X143382200Y-61085200D01*
X143383404Y-61060696D01*
X143387004Y-61036427D01*
X143392965Y-61012629D01*
X143401230Y-60989529D01*
X143411720Y-60967351D01*
X143424333Y-60946307D01*
X143438947Y-60926602D01*
X143455423Y-60908423D01*
X143473602Y-60891947D01*
X143493307Y-60877333D01*
X143514351Y-60864720D01*
X143536529Y-60854230D01*
X143559629Y-60845965D01*
X143583427Y-60840004D01*
X143607696Y-60836404D01*
X143632200Y-60835200D01*
X144557200Y-60835200D01*
X144581704Y-60836404D01*
X144581704Y-60836404D01*
G37*
D13*
G04 #@! TD*
G04 #@! TO.P,C1,2*
G04 #@! TO.N,29-GND*
X144094700Y-61710200D03*
D12*
G04 #@! TO.N,27-5V*
G04 #@! TO.C,C2*
G36*
X145274124Y-54391424D02*
X145298393Y-54395024D01*
X145322191Y-54400985D01*
X145345291Y-54409250D01*
X145367469Y-54419740D01*
X145388513Y-54432353D01*
X145408218Y-54446967D01*
X145426397Y-54463443D01*
X145442873Y-54481622D01*
X145457487Y-54501327D01*
X145470100Y-54522371D01*
X145480590Y-54544549D01*
X145488855Y-54567649D01*
X145494816Y-54591447D01*
X145498416Y-54615716D01*
X145499620Y-54640220D01*
X145499620Y-55565220D01*
X145498416Y-55589724D01*
X145494816Y-55613993D01*
X145488855Y-55637791D01*
X145480590Y-55660891D01*
X145470100Y-55683069D01*
X145457487Y-55704113D01*
X145442873Y-55723818D01*
X145426397Y-55741997D01*
X145408218Y-55758473D01*
X145388513Y-55773087D01*
X145367469Y-55785700D01*
X145345291Y-55796190D01*
X145322191Y-55804455D01*
X145298393Y-55810416D01*
X145274124Y-55814016D01*
X145249620Y-55815220D01*
X143999620Y-55815220D01*
X143975116Y-55814016D01*
X143950847Y-55810416D01*
X143927049Y-55804455D01*
X143903949Y-55796190D01*
X143881771Y-55785700D01*
X143860727Y-55773087D01*
X143841022Y-55758473D01*
X143822843Y-55741997D01*
X143806367Y-55723818D01*
X143791753Y-55704113D01*
X143779140Y-55683069D01*
X143768650Y-55660891D01*
X143760385Y-55637791D01*
X143754424Y-55613993D01*
X143750824Y-55589724D01*
X143749620Y-55565220D01*
X143749620Y-54640220D01*
X143750824Y-54615716D01*
X143754424Y-54591447D01*
X143760385Y-54567649D01*
X143768650Y-54544549D01*
X143779140Y-54522371D01*
X143791753Y-54501327D01*
X143806367Y-54481622D01*
X143822843Y-54463443D01*
X143841022Y-54446967D01*
X143860727Y-54432353D01*
X143881771Y-54419740D01*
X143903949Y-54409250D01*
X143927049Y-54400985D01*
X143950847Y-54395024D01*
X143975116Y-54391424D01*
X143999620Y-54390220D01*
X145249620Y-54390220D01*
X145274124Y-54391424D01*
X145274124Y-54391424D01*
G37*
D13*
G04 #@! TD*
G04 #@! TO.P,C2,1*
G04 #@! TO.N,27-5V*
X144624620Y-55102720D03*
D12*
G04 #@! TO.N,29-GND*
G04 #@! TO.C,C2*
G36*
X145274124Y-51416424D02*
X145298393Y-51420024D01*
X145322191Y-51425985D01*
X145345291Y-51434250D01*
X145367469Y-51444740D01*
X145388513Y-51457353D01*
X145408218Y-51471967D01*
X145426397Y-51488443D01*
X145442873Y-51506622D01*
X145457487Y-51526327D01*
X145470100Y-51547371D01*
X145480590Y-51569549D01*
X145488855Y-51592649D01*
X145494816Y-51616447D01*
X145498416Y-51640716D01*
X145499620Y-51665220D01*
X145499620Y-52590220D01*
X145498416Y-52614724D01*
X145494816Y-52638993D01*
X145488855Y-52662791D01*
X145480590Y-52685891D01*
X145470100Y-52708069D01*
X145457487Y-52729113D01*
X145442873Y-52748818D01*
X145426397Y-52766997D01*
X145408218Y-52783473D01*
X145388513Y-52798087D01*
X145367469Y-52810700D01*
X145345291Y-52821190D01*
X145322191Y-52829455D01*
X145298393Y-52835416D01*
X145274124Y-52839016D01*
X145249620Y-52840220D01*
X143999620Y-52840220D01*
X143975116Y-52839016D01*
X143950847Y-52835416D01*
X143927049Y-52829455D01*
X143903949Y-52821190D01*
X143881771Y-52810700D01*
X143860727Y-52798087D01*
X143841022Y-52783473D01*
X143822843Y-52766997D01*
X143806367Y-52748818D01*
X143791753Y-52729113D01*
X143779140Y-52708069D01*
X143768650Y-52685891D01*
X143760385Y-52662791D01*
X143754424Y-52638993D01*
X143750824Y-52614724D01*
X143749620Y-52590220D01*
X143749620Y-51665220D01*
X143750824Y-51640716D01*
X143754424Y-51616447D01*
X143760385Y-51592649D01*
X143768650Y-51569549D01*
X143779140Y-51547371D01*
X143791753Y-51526327D01*
X143806367Y-51506622D01*
X143822843Y-51488443D01*
X143841022Y-51471967D01*
X143860727Y-51457353D01*
X143881771Y-51444740D01*
X143903949Y-51434250D01*
X143927049Y-51425985D01*
X143950847Y-51420024D01*
X143975116Y-51416424D01*
X143999620Y-51415220D01*
X145249620Y-51415220D01*
X145274124Y-51416424D01*
X145274124Y-51416424D01*
G37*
D13*
G04 #@! TD*
G04 #@! TO.P,C2,2*
G04 #@! TO.N,29-GND*
X144624620Y-52127720D03*
D12*
G04 #@! TO.N,29-GND*
G04 #@! TO.C,C3*
G36*
X141415864Y-51446904D02*
X141440133Y-51450504D01*
X141463931Y-51456465D01*
X141487031Y-51464730D01*
X141509209Y-51475220D01*
X141530253Y-51487833D01*
X141549958Y-51502447D01*
X141568137Y-51518923D01*
X141584613Y-51537102D01*
X141599227Y-51556807D01*
X141611840Y-51577851D01*
X141622330Y-51600029D01*
X141630595Y-51623129D01*
X141636556Y-51646927D01*
X141640156Y-51671196D01*
X141641360Y-51695700D01*
X141641360Y-52620700D01*
X141640156Y-52645204D01*
X141636556Y-52669473D01*
X141630595Y-52693271D01*
X141622330Y-52716371D01*
X141611840Y-52738549D01*
X141599227Y-52759593D01*
X141584613Y-52779298D01*
X141568137Y-52797477D01*
X141549958Y-52813953D01*
X141530253Y-52828567D01*
X141509209Y-52841180D01*
X141487031Y-52851670D01*
X141463931Y-52859935D01*
X141440133Y-52865896D01*
X141415864Y-52869496D01*
X141391360Y-52870700D01*
X140141360Y-52870700D01*
X140116856Y-52869496D01*
X140092587Y-52865896D01*
X140068789Y-52859935D01*
X140045689Y-52851670D01*
X140023511Y-52841180D01*
X140002467Y-52828567D01*
X139982762Y-52813953D01*
X139964583Y-52797477D01*
X139948107Y-52779298D01*
X139933493Y-52759593D01*
X139920880Y-52738549D01*
X139910390Y-52716371D01*
X139902125Y-52693271D01*
X139896164Y-52669473D01*
X139892564Y-52645204D01*
X139891360Y-52620700D01*
X139891360Y-51695700D01*
X139892564Y-51671196D01*
X139896164Y-51646927D01*
X139902125Y-51623129D01*
X139910390Y-51600029D01*
X139920880Y-51577851D01*
X139933493Y-51556807D01*
X139948107Y-51537102D01*
X139964583Y-51518923D01*
X139982762Y-51502447D01*
X140002467Y-51487833D01*
X140023511Y-51475220D01*
X140045689Y-51464730D01*
X140068789Y-51456465D01*
X140092587Y-51450504D01*
X140116856Y-51446904D01*
X140141360Y-51445700D01*
X141391360Y-51445700D01*
X141415864Y-51446904D01*
X141415864Y-51446904D01*
G37*
D13*
G04 #@! TD*
G04 #@! TO.P,C3,2*
G04 #@! TO.N,29-GND*
X140766360Y-52158200D03*
D12*
G04 #@! TO.N,Net-(C3-Pad1)*
G04 #@! TO.C,C3*
G36*
X141415864Y-54421904D02*
X141440133Y-54425504D01*
X141463931Y-54431465D01*
X141487031Y-54439730D01*
X141509209Y-54450220D01*
X141530253Y-54462833D01*
X141549958Y-54477447D01*
X141568137Y-54493923D01*
X141584613Y-54512102D01*
X141599227Y-54531807D01*
X141611840Y-54552851D01*
X141622330Y-54575029D01*
X141630595Y-54598129D01*
X141636556Y-54621927D01*
X141640156Y-54646196D01*
X141641360Y-54670700D01*
X141641360Y-55595700D01*
X141640156Y-55620204D01*
X141636556Y-55644473D01*
X141630595Y-55668271D01*
X141622330Y-55691371D01*
X141611840Y-55713549D01*
X141599227Y-55734593D01*
X141584613Y-55754298D01*
X141568137Y-55772477D01*
X141549958Y-55788953D01*
X141530253Y-55803567D01*
X141509209Y-55816180D01*
X141487031Y-55826670D01*
X141463931Y-55834935D01*
X141440133Y-55840896D01*
X141415864Y-55844496D01*
X141391360Y-55845700D01*
X140141360Y-55845700D01*
X140116856Y-55844496D01*
X140092587Y-55840896D01*
X140068789Y-55834935D01*
X140045689Y-55826670D01*
X140023511Y-55816180D01*
X140002467Y-55803567D01*
X139982762Y-55788953D01*
X139964583Y-55772477D01*
X139948107Y-55754298D01*
X139933493Y-55734593D01*
X139920880Y-55713549D01*
X139910390Y-55691371D01*
X139902125Y-55668271D01*
X139896164Y-55644473D01*
X139892564Y-55620204D01*
X139891360Y-55595700D01*
X139891360Y-54670700D01*
X139892564Y-54646196D01*
X139896164Y-54621927D01*
X139902125Y-54598129D01*
X139910390Y-54575029D01*
X139920880Y-54552851D01*
X139933493Y-54531807D01*
X139948107Y-54512102D01*
X139964583Y-54493923D01*
X139982762Y-54477447D01*
X140002467Y-54462833D01*
X140023511Y-54450220D01*
X140045689Y-54439730D01*
X140068789Y-54431465D01*
X140092587Y-54425504D01*
X140116856Y-54421904D01*
X140141360Y-54420700D01*
X141391360Y-54420700D01*
X141415864Y-54421904D01*
X141415864Y-54421904D01*
G37*
D13*
G04 #@! TD*
G04 #@! TO.P,C3,1*
G04 #@! TO.N,Net-(C3-Pad1)*
X140766360Y-55133200D03*
D12*
G04 #@! TO.N,29-GND*
G04 #@! TO.C,C4*
G36*
X144649284Y-81543364D02*
X144673553Y-81546964D01*
X144697351Y-81552925D01*
X144720451Y-81561190D01*
X144742629Y-81571680D01*
X144763673Y-81584293D01*
X144783378Y-81598907D01*
X144801557Y-81615383D01*
X144818033Y-81633562D01*
X144832647Y-81653267D01*
X144845260Y-81674311D01*
X144855750Y-81696489D01*
X144864015Y-81719589D01*
X144869976Y-81743387D01*
X144873576Y-81767656D01*
X144874780Y-81792160D01*
X144874780Y-82717160D01*
X144873576Y-82741664D01*
X144869976Y-82765933D01*
X144864015Y-82789731D01*
X144855750Y-82812831D01*
X144845260Y-82835009D01*
X144832647Y-82856053D01*
X144818033Y-82875758D01*
X144801557Y-82893937D01*
X144783378Y-82910413D01*
X144763673Y-82925027D01*
X144742629Y-82937640D01*
X144720451Y-82948130D01*
X144697351Y-82956395D01*
X144673553Y-82962356D01*
X144649284Y-82965956D01*
X144624780Y-82967160D01*
X143374780Y-82967160D01*
X143350276Y-82965956D01*
X143326007Y-82962356D01*
X143302209Y-82956395D01*
X143279109Y-82948130D01*
X143256931Y-82937640D01*
X143235887Y-82925027D01*
X143216182Y-82910413D01*
X143198003Y-82893937D01*
X143181527Y-82875758D01*
X143166913Y-82856053D01*
X143154300Y-82835009D01*
X143143810Y-82812831D01*
X143135545Y-82789731D01*
X143129584Y-82765933D01*
X143125984Y-82741664D01*
X143124780Y-82717160D01*
X143124780Y-81792160D01*
X143125984Y-81767656D01*
X143129584Y-81743387D01*
X143135545Y-81719589D01*
X143143810Y-81696489D01*
X143154300Y-81674311D01*
X143166913Y-81653267D01*
X143181527Y-81633562D01*
X143198003Y-81615383D01*
X143216182Y-81598907D01*
X143235887Y-81584293D01*
X143256931Y-81571680D01*
X143279109Y-81561190D01*
X143302209Y-81552925D01*
X143326007Y-81546964D01*
X143350276Y-81543364D01*
X143374780Y-81542160D01*
X144624780Y-81542160D01*
X144649284Y-81543364D01*
X144649284Y-81543364D01*
G37*
D13*
G04 #@! TD*
G04 #@! TO.P,C4,2*
G04 #@! TO.N,29-GND*
X143999780Y-82254660D03*
D12*
G04 #@! TO.N,AN-OUT*
G04 #@! TO.C,C4*
G36*
X144649284Y-84518364D02*
X144673553Y-84521964D01*
X144697351Y-84527925D01*
X144720451Y-84536190D01*
X144742629Y-84546680D01*
X144763673Y-84559293D01*
X144783378Y-84573907D01*
X144801557Y-84590383D01*
X144818033Y-84608562D01*
X144832647Y-84628267D01*
X144845260Y-84649311D01*
X144855750Y-84671489D01*
X144864015Y-84694589D01*
X144869976Y-84718387D01*
X144873576Y-84742656D01*
X144874780Y-84767160D01*
X144874780Y-85692160D01*
X144873576Y-85716664D01*
X144869976Y-85740933D01*
X144864015Y-85764731D01*
X144855750Y-85787831D01*
X144845260Y-85810009D01*
X144832647Y-85831053D01*
X144818033Y-85850758D01*
X144801557Y-85868937D01*
X144783378Y-85885413D01*
X144763673Y-85900027D01*
X144742629Y-85912640D01*
X144720451Y-85923130D01*
X144697351Y-85931395D01*
X144673553Y-85937356D01*
X144649284Y-85940956D01*
X144624780Y-85942160D01*
X143374780Y-85942160D01*
X143350276Y-85940956D01*
X143326007Y-85937356D01*
X143302209Y-85931395D01*
X143279109Y-85923130D01*
X143256931Y-85912640D01*
X143235887Y-85900027D01*
X143216182Y-85885413D01*
X143198003Y-85868937D01*
X143181527Y-85850758D01*
X143166913Y-85831053D01*
X143154300Y-85810009D01*
X143143810Y-85787831D01*
X143135545Y-85764731D01*
X143129584Y-85740933D01*
X143125984Y-85716664D01*
X143124780Y-85692160D01*
X143124780Y-84767160D01*
X143125984Y-84742656D01*
X143129584Y-84718387D01*
X143135545Y-84694589D01*
X143143810Y-84671489D01*
X143154300Y-84649311D01*
X143166913Y-84628267D01*
X143181527Y-84608562D01*
X143198003Y-84590383D01*
X143216182Y-84573907D01*
X143235887Y-84559293D01*
X143256931Y-84546680D01*
X143279109Y-84536190D01*
X143302209Y-84527925D01*
X143326007Y-84521964D01*
X143350276Y-84518364D01*
X143374780Y-84517160D01*
X144624780Y-84517160D01*
X144649284Y-84518364D01*
X144649284Y-84518364D01*
G37*
D13*
G04 #@! TD*
G04 #@! TO.P,C4,1*
G04 #@! TO.N,AN-OUT*
X143999780Y-85229660D03*
D12*
G04 #@! TO.N,Net-(D1-Pad2)*
G04 #@! TO.C,D1*
G36*
X127577064Y-58159244D02*
X127601333Y-58162844D01*
X127625131Y-58168805D01*
X127648231Y-58177070D01*
X127670409Y-58187560D01*
X127691453Y-58200173D01*
X127711158Y-58214787D01*
X127729337Y-58231263D01*
X127745813Y-58249442D01*
X127760427Y-58269147D01*
X127773040Y-58290191D01*
X127783530Y-58312369D01*
X127791795Y-58335469D01*
X127797756Y-58359267D01*
X127801356Y-58383536D01*
X127802560Y-58408040D01*
X127802560Y-59658040D01*
X127801356Y-59682544D01*
X127797756Y-59706813D01*
X127791795Y-59730611D01*
X127783530Y-59753711D01*
X127773040Y-59775889D01*
X127760427Y-59796933D01*
X127745813Y-59816638D01*
X127729337Y-59834817D01*
X127711158Y-59851293D01*
X127691453Y-59865907D01*
X127670409Y-59878520D01*
X127648231Y-59889010D01*
X127625131Y-59897275D01*
X127601333Y-59903236D01*
X127577064Y-59906836D01*
X127552560Y-59908040D01*
X126627560Y-59908040D01*
X126603056Y-59906836D01*
X126578787Y-59903236D01*
X126554989Y-59897275D01*
X126531889Y-59889010D01*
X126509711Y-59878520D01*
X126488667Y-59865907D01*
X126468962Y-59851293D01*
X126450783Y-59834817D01*
X126434307Y-59816638D01*
X126419693Y-59796933D01*
X126407080Y-59775889D01*
X126396590Y-59753711D01*
X126388325Y-59730611D01*
X126382364Y-59706813D01*
X126378764Y-59682544D01*
X126377560Y-59658040D01*
X126377560Y-58408040D01*
X126378764Y-58383536D01*
X126382364Y-58359267D01*
X126388325Y-58335469D01*
X126396590Y-58312369D01*
X126407080Y-58290191D01*
X126419693Y-58269147D01*
X126434307Y-58249442D01*
X126450783Y-58231263D01*
X126468962Y-58214787D01*
X126488667Y-58200173D01*
X126509711Y-58187560D01*
X126531889Y-58177070D01*
X126554989Y-58168805D01*
X126578787Y-58162844D01*
X126603056Y-58159244D01*
X126627560Y-58158040D01*
X127552560Y-58158040D01*
X127577064Y-58159244D01*
X127577064Y-58159244D01*
G37*
D13*
G04 #@! TD*
G04 #@! TO.P,D1,2*
G04 #@! TO.N,Net-(D1-Pad2)*
X127090060Y-59033040D03*
D12*
G04 #@! TO.N,29-GND*
G04 #@! TO.C,D1*
G36*
X124602064Y-58159244D02*
X124626333Y-58162844D01*
X124650131Y-58168805D01*
X124673231Y-58177070D01*
X124695409Y-58187560D01*
X124716453Y-58200173D01*
X124736158Y-58214787D01*
X124754337Y-58231263D01*
X124770813Y-58249442D01*
X124785427Y-58269147D01*
X124798040Y-58290191D01*
X124808530Y-58312369D01*
X124816795Y-58335469D01*
X124822756Y-58359267D01*
X124826356Y-58383536D01*
X124827560Y-58408040D01*
X124827560Y-59658040D01*
X124826356Y-59682544D01*
X124822756Y-59706813D01*
X124816795Y-59730611D01*
X124808530Y-59753711D01*
X124798040Y-59775889D01*
X124785427Y-59796933D01*
X124770813Y-59816638D01*
X124754337Y-59834817D01*
X124736158Y-59851293D01*
X124716453Y-59865907D01*
X124695409Y-59878520D01*
X124673231Y-59889010D01*
X124650131Y-59897275D01*
X124626333Y-59903236D01*
X124602064Y-59906836D01*
X124577560Y-59908040D01*
X123652560Y-59908040D01*
X123628056Y-59906836D01*
X123603787Y-59903236D01*
X123579989Y-59897275D01*
X123556889Y-59889010D01*
X123534711Y-59878520D01*
X123513667Y-59865907D01*
X123493962Y-59851293D01*
X123475783Y-59834817D01*
X123459307Y-59816638D01*
X123444693Y-59796933D01*
X123432080Y-59775889D01*
X123421590Y-59753711D01*
X123413325Y-59730611D01*
X123407364Y-59706813D01*
X123403764Y-59682544D01*
X123402560Y-59658040D01*
X123402560Y-58408040D01*
X123403764Y-58383536D01*
X123407364Y-58359267D01*
X123413325Y-58335469D01*
X123421590Y-58312369D01*
X123432080Y-58290191D01*
X123444693Y-58269147D01*
X123459307Y-58249442D01*
X123475783Y-58231263D01*
X123493962Y-58214787D01*
X123513667Y-58200173D01*
X123534711Y-58187560D01*
X123556889Y-58177070D01*
X123579989Y-58168805D01*
X123603787Y-58162844D01*
X123628056Y-58159244D01*
X123652560Y-58158040D01*
X124577560Y-58158040D01*
X124602064Y-58159244D01*
X124602064Y-58159244D01*
G37*
D13*
G04 #@! TD*
G04 #@! TO.P,D1,1*
G04 #@! TO.N,29-GND*
X124115060Y-59033040D03*
D12*
G04 #@! TO.N,29-GND*
G04 #@! TO.C,D2*
G36*
X124602064Y-67028924D02*
X124626333Y-67032524D01*
X124650131Y-67038485D01*
X124673231Y-67046750D01*
X124695409Y-67057240D01*
X124716453Y-67069853D01*
X124736158Y-67084467D01*
X124754337Y-67100943D01*
X124770813Y-67119122D01*
X124785427Y-67138827D01*
X124798040Y-67159871D01*
X124808530Y-67182049D01*
X124816795Y-67205149D01*
X124822756Y-67228947D01*
X124826356Y-67253216D01*
X124827560Y-67277720D01*
X124827560Y-68527720D01*
X124826356Y-68552224D01*
X124822756Y-68576493D01*
X124816795Y-68600291D01*
X124808530Y-68623391D01*
X124798040Y-68645569D01*
X124785427Y-68666613D01*
X124770813Y-68686318D01*
X124754337Y-68704497D01*
X124736158Y-68720973D01*
X124716453Y-68735587D01*
X124695409Y-68748200D01*
X124673231Y-68758690D01*
X124650131Y-68766955D01*
X124626333Y-68772916D01*
X124602064Y-68776516D01*
X124577560Y-68777720D01*
X123652560Y-68777720D01*
X123628056Y-68776516D01*
X123603787Y-68772916D01*
X123579989Y-68766955D01*
X123556889Y-68758690D01*
X123534711Y-68748200D01*
X123513667Y-68735587D01*
X123493962Y-68720973D01*
X123475783Y-68704497D01*
X123459307Y-68686318D01*
X123444693Y-68666613D01*
X123432080Y-68645569D01*
X123421590Y-68623391D01*
X123413325Y-68600291D01*
X123407364Y-68576493D01*
X123403764Y-68552224D01*
X123402560Y-68527720D01*
X123402560Y-67277720D01*
X123403764Y-67253216D01*
X123407364Y-67228947D01*
X123413325Y-67205149D01*
X123421590Y-67182049D01*
X123432080Y-67159871D01*
X123444693Y-67138827D01*
X123459307Y-67119122D01*
X123475783Y-67100943D01*
X123493962Y-67084467D01*
X123513667Y-67069853D01*
X123534711Y-67057240D01*
X123556889Y-67046750D01*
X123579989Y-67038485D01*
X123603787Y-67032524D01*
X123628056Y-67028924D01*
X123652560Y-67027720D01*
X124577560Y-67027720D01*
X124602064Y-67028924D01*
X124602064Y-67028924D01*
G37*
D13*
G04 #@! TD*
G04 #@! TO.P,D2,1*
G04 #@! TO.N,29-GND*
X124115060Y-67902720D03*
D12*
G04 #@! TO.N,Net-(D2-Pad2)*
G04 #@! TO.C,D2*
G36*
X127577064Y-67028924D02*
X127601333Y-67032524D01*
X127625131Y-67038485D01*
X127648231Y-67046750D01*
X127670409Y-67057240D01*
X127691453Y-67069853D01*
X127711158Y-67084467D01*
X127729337Y-67100943D01*
X127745813Y-67119122D01*
X127760427Y-67138827D01*
X127773040Y-67159871D01*
X127783530Y-67182049D01*
X127791795Y-67205149D01*
X127797756Y-67228947D01*
X127801356Y-67253216D01*
X127802560Y-67277720D01*
X127802560Y-68527720D01*
X127801356Y-68552224D01*
X127797756Y-68576493D01*
X127791795Y-68600291D01*
X127783530Y-68623391D01*
X127773040Y-68645569D01*
X127760427Y-68666613D01*
X127745813Y-68686318D01*
X127729337Y-68704497D01*
X127711158Y-68720973D01*
X127691453Y-68735587D01*
X127670409Y-68748200D01*
X127648231Y-68758690D01*
X127625131Y-68766955D01*
X127601333Y-68772916D01*
X127577064Y-68776516D01*
X127552560Y-68777720D01*
X126627560Y-68777720D01*
X126603056Y-68776516D01*
X126578787Y-68772916D01*
X126554989Y-68766955D01*
X126531889Y-68758690D01*
X126509711Y-68748200D01*
X126488667Y-68735587D01*
X126468962Y-68720973D01*
X126450783Y-68704497D01*
X126434307Y-68686318D01*
X126419693Y-68666613D01*
X126407080Y-68645569D01*
X126396590Y-68623391D01*
X126388325Y-68600291D01*
X126382364Y-68576493D01*
X126378764Y-68552224D01*
X126377560Y-68527720D01*
X126377560Y-67277720D01*
X126378764Y-67253216D01*
X126382364Y-67228947D01*
X126388325Y-67205149D01*
X126396590Y-67182049D01*
X126407080Y-67159871D01*
X126419693Y-67138827D01*
X126434307Y-67119122D01*
X126450783Y-67100943D01*
X126468962Y-67084467D01*
X126488667Y-67069853D01*
X126509711Y-67057240D01*
X126531889Y-67046750D01*
X126554989Y-67038485D01*
X126578787Y-67032524D01*
X126603056Y-67028924D01*
X126627560Y-67027720D01*
X127552560Y-67027720D01*
X127577064Y-67028924D01*
X127577064Y-67028924D01*
G37*
D13*
G04 #@! TD*
G04 #@! TO.P,D2,2*
G04 #@! TO.N,Net-(D2-Pad2)*
X127090060Y-67902720D03*
D12*
G04 #@! TO.N,29-GND*
G04 #@! TO.C,D3*
G36*
X124602064Y-76226264D02*
X124626333Y-76229864D01*
X124650131Y-76235825D01*
X124673231Y-76244090D01*
X124695409Y-76254580D01*
X124716453Y-76267193D01*
X124736158Y-76281807D01*
X124754337Y-76298283D01*
X124770813Y-76316462D01*
X124785427Y-76336167D01*
X124798040Y-76357211D01*
X124808530Y-76379389D01*
X124816795Y-76402489D01*
X124822756Y-76426287D01*
X124826356Y-76450556D01*
X124827560Y-76475060D01*
X124827560Y-77725060D01*
X124826356Y-77749564D01*
X124822756Y-77773833D01*
X124816795Y-77797631D01*
X124808530Y-77820731D01*
X124798040Y-77842909D01*
X124785427Y-77863953D01*
X124770813Y-77883658D01*
X124754337Y-77901837D01*
X124736158Y-77918313D01*
X124716453Y-77932927D01*
X124695409Y-77945540D01*
X124673231Y-77956030D01*
X124650131Y-77964295D01*
X124626333Y-77970256D01*
X124602064Y-77973856D01*
X124577560Y-77975060D01*
X123652560Y-77975060D01*
X123628056Y-77973856D01*
X123603787Y-77970256D01*
X123579989Y-77964295D01*
X123556889Y-77956030D01*
X123534711Y-77945540D01*
X123513667Y-77932927D01*
X123493962Y-77918313D01*
X123475783Y-77901837D01*
X123459307Y-77883658D01*
X123444693Y-77863953D01*
X123432080Y-77842909D01*
X123421590Y-77820731D01*
X123413325Y-77797631D01*
X123407364Y-77773833D01*
X123403764Y-77749564D01*
X123402560Y-77725060D01*
X123402560Y-76475060D01*
X123403764Y-76450556D01*
X123407364Y-76426287D01*
X123413325Y-76402489D01*
X123421590Y-76379389D01*
X123432080Y-76357211D01*
X123444693Y-76336167D01*
X123459307Y-76316462D01*
X123475783Y-76298283D01*
X123493962Y-76281807D01*
X123513667Y-76267193D01*
X123534711Y-76254580D01*
X123556889Y-76244090D01*
X123579989Y-76235825D01*
X123603787Y-76229864D01*
X123628056Y-76226264D01*
X123652560Y-76225060D01*
X124577560Y-76225060D01*
X124602064Y-76226264D01*
X124602064Y-76226264D01*
G37*
D13*
G04 #@! TD*
G04 #@! TO.P,D3,1*
G04 #@! TO.N,29-GND*
X124115060Y-77100060D03*
D12*
G04 #@! TO.N,Net-(D3-Pad2)*
G04 #@! TO.C,D3*
G36*
X127577064Y-76226264D02*
X127601333Y-76229864D01*
X127625131Y-76235825D01*
X127648231Y-76244090D01*
X127670409Y-76254580D01*
X127691453Y-76267193D01*
X127711158Y-76281807D01*
X127729337Y-76298283D01*
X127745813Y-76316462D01*
X127760427Y-76336167D01*
X127773040Y-76357211D01*
X127783530Y-76379389D01*
X127791795Y-76402489D01*
X127797756Y-76426287D01*
X127801356Y-76450556D01*
X127802560Y-76475060D01*
X127802560Y-77725060D01*
X127801356Y-77749564D01*
X127797756Y-77773833D01*
X127791795Y-77797631D01*
X127783530Y-77820731D01*
X127773040Y-77842909D01*
X127760427Y-77863953D01*
X127745813Y-77883658D01*
X127729337Y-77901837D01*
X127711158Y-77918313D01*
X127691453Y-77932927D01*
X127670409Y-77945540D01*
X127648231Y-77956030D01*
X127625131Y-77964295D01*
X127601333Y-77970256D01*
X127577064Y-77973856D01*
X127552560Y-77975060D01*
X126627560Y-77975060D01*
X126603056Y-77973856D01*
X126578787Y-77970256D01*
X126554989Y-77964295D01*
X126531889Y-77956030D01*
X126509711Y-77945540D01*
X126488667Y-77932927D01*
X126468962Y-77918313D01*
X126450783Y-77901837D01*
X126434307Y-77883658D01*
X126419693Y-77863953D01*
X126407080Y-77842909D01*
X126396590Y-77820731D01*
X126388325Y-77797631D01*
X126382364Y-77773833D01*
X126378764Y-77749564D01*
X126377560Y-77725060D01*
X126377560Y-76475060D01*
X126378764Y-76450556D01*
X126382364Y-76426287D01*
X126388325Y-76402489D01*
X126396590Y-76379389D01*
X126407080Y-76357211D01*
X126419693Y-76336167D01*
X126434307Y-76316462D01*
X126450783Y-76298283D01*
X126468962Y-76281807D01*
X126488667Y-76267193D01*
X126509711Y-76254580D01*
X126531889Y-76244090D01*
X126554989Y-76235825D01*
X126578787Y-76229864D01*
X126603056Y-76226264D01*
X126627560Y-76225060D01*
X127552560Y-76225060D01*
X127577064Y-76226264D01*
X127577064Y-76226264D01*
G37*
D13*
G04 #@! TD*
G04 #@! TO.P,D3,2*
G04 #@! TO.N,Net-(D3-Pad2)*
X127090060Y-77100060D03*
D14*
G04 #@! TO.P,J1,15*
G04 #@! TO.N,D12-MS2*
X131315020Y-88004280D03*
G04 #@! TO.P,J1,14*
G04 #@! TO.N,D11-MS1*
X131315020Y-85464280D03*
G04 #@! TO.P,J1,13*
G04 #@! TO.N,D10-*
X131315020Y-82924280D03*
G04 #@! TO.P,J1,12*
G04 #@! TO.N,D9-PWM-OUT*
X131315020Y-80384280D03*
G04 #@! TO.P,J1,11*
G04 #@! TO.N,D8-ENA*
X131315020Y-77844280D03*
G04 #@! TO.P,J1,10*
G04 #@! TO.N,D7-DIR*
X131315020Y-75304280D03*
G04 #@! TO.P,J1,9*
G04 #@! TO.N,D6-*
X131315020Y-72764280D03*
G04 #@! TO.P,J1,8*
G04 #@! TO.N,D5-*
X131315020Y-70224280D03*
G04 #@! TO.P,J1,7*
G04 #@! TO.N,D4-STEP*
X131315020Y-67684280D03*
G04 #@! TO.P,J1,6*
G04 #@! TO.N,D3-*
X131315020Y-65144280D03*
G04 #@! TO.P,J1,5*
G04 #@! TO.N,D2-*
X131315020Y-62604280D03*
G04 #@! TO.P,J1,4*
G04 #@! TO.N,29-GND*
X131315020Y-60064280D03*
G04 #@! TO.P,J1,3*
G04 #@! TO.N,3-RST*
X131315020Y-57524280D03*
G04 #@! TO.P,J1,2*
G04 #@! TO.N,D0-RXD*
X131315020Y-54984280D03*
D15*
G04 #@! TO.P,J1,1*
G04 #@! TO.N,D1-TXD*
X131315020Y-52444280D03*
G04 #@! TD*
G04 #@! TO.P,J3,1*
G04 #@! TO.N,30-VIN*
X153720360Y-52454440D03*
D14*
G04 #@! TO.P,J3,2*
G04 #@! TO.N,29-GND*
X153720360Y-54994440D03*
G04 #@! TO.P,J3,3*
G04 #@! TO.N,28-RST*
X153720360Y-57534440D03*
G04 #@! TO.P,J3,4*
G04 #@! TO.N,27-5V*
X153720360Y-60074440D03*
G04 #@! TO.P,J3,5*
G04 #@! TO.N,A7-ASA*
X153720360Y-62614440D03*
G04 #@! TO.P,J3,6*
G04 #@! TO.N,A6-TEMP*
X153720360Y-65154440D03*
G04 #@! TO.P,J3,7*
G04 #@! TO.N,A5-SCL*
X153720360Y-67694440D03*
G04 #@! TO.P,J3,8*
G04 #@! TO.N,A4-SDA*
X153720360Y-70234440D03*
G04 #@! TO.P,J3,9*
G04 #@! TO.N,A3-VEL_IZQ*
X153720360Y-72774440D03*
G04 #@! TO.P,J3,10*
G04 #@! TO.N,A2-VEL_DER*
X153720360Y-75314440D03*
G04 #@! TO.P,J3,11*
G04 #@! TO.N,A1-I*
X153720360Y-77854440D03*
G04 #@! TO.P,J3,12*
G04 #@! TO.N,A0-V*
X153720360Y-80394440D03*
G04 #@! TO.P,J3,13*
G04 #@! TO.N,18-AREF*
X153720360Y-82934440D03*
G04 #@! TO.P,J3,14*
G04 #@! TO.N,17-3V3*
X153720360Y-85474440D03*
G04 #@! TO.P,J3,15*
G04 #@! TO.N,D13-MS3*
X153720360Y-88014440D03*
G04 #@! TD*
D15*
G04 #@! TO.P,J5,1*
G04 #@! TO.N,27-5V*
X161154940Y-60943120D03*
D14*
G04 #@! TO.P,J5,2*
G04 #@! TO.N,AIN-10V*
X161154940Y-63483120D03*
G04 #@! TO.P,J5,3*
G04 #@! TO.N,AN-OUT*
X161154940Y-66023120D03*
G04 #@! TO.P,J5,4*
G04 #@! TO.N,A7-ASA*
X161154940Y-68563120D03*
G04 #@! TO.P,J5,5*
G04 #@! TO.N,27-5V*
X161154940Y-71103120D03*
G04 #@! TO.P,J5,6*
G04 #@! TO.N,A6-TEMP*
X161154940Y-73643120D03*
G04 #@! TO.P,J5,7*
G04 #@! TO.N,29-GND*
X161154940Y-76183120D03*
G04 #@! TD*
D12*
G04 #@! TO.N,AIN-10V*
G04 #@! TO.C,R1*
G36*
X158568484Y-62782924D02*
X158592753Y-62786524D01*
X158616551Y-62792485D01*
X158639651Y-62800750D01*
X158661829Y-62811240D01*
X158682873Y-62823853D01*
X158702578Y-62838467D01*
X158720757Y-62854943D01*
X158737233Y-62873122D01*
X158751847Y-62892827D01*
X158764460Y-62913871D01*
X158774950Y-62936049D01*
X158783215Y-62959149D01*
X158789176Y-62982947D01*
X158792776Y-63007216D01*
X158793980Y-63031720D01*
X158793980Y-63956720D01*
X158792776Y-63981224D01*
X158789176Y-64005493D01*
X158783215Y-64029291D01*
X158774950Y-64052391D01*
X158764460Y-64074569D01*
X158751847Y-64095613D01*
X158737233Y-64115318D01*
X158720757Y-64133497D01*
X158702578Y-64149973D01*
X158682873Y-64164587D01*
X158661829Y-64177200D01*
X158639651Y-64187690D01*
X158616551Y-64195955D01*
X158592753Y-64201916D01*
X158568484Y-64205516D01*
X158543980Y-64206720D01*
X157293980Y-64206720D01*
X157269476Y-64205516D01*
X157245207Y-64201916D01*
X157221409Y-64195955D01*
X157198309Y-64187690D01*
X157176131Y-64177200D01*
X157155087Y-64164587D01*
X157135382Y-64149973D01*
X157117203Y-64133497D01*
X157100727Y-64115318D01*
X157086113Y-64095613D01*
X157073500Y-64074569D01*
X157063010Y-64052391D01*
X157054745Y-64029291D01*
X157048784Y-64005493D01*
X157045184Y-63981224D01*
X157043980Y-63956720D01*
X157043980Y-63031720D01*
X157045184Y-63007216D01*
X157048784Y-62982947D01*
X157054745Y-62959149D01*
X157063010Y-62936049D01*
X157073500Y-62913871D01*
X157086113Y-62892827D01*
X157100727Y-62873122D01*
X157117203Y-62854943D01*
X157135382Y-62838467D01*
X157155087Y-62823853D01*
X157176131Y-62811240D01*
X157198309Y-62800750D01*
X157221409Y-62792485D01*
X157245207Y-62786524D01*
X157269476Y-62782924D01*
X157293980Y-62781720D01*
X158543980Y-62781720D01*
X158568484Y-62782924D01*
X158568484Y-62782924D01*
G37*
D13*
G04 #@! TD*
G04 #@! TO.P,R1,1*
G04 #@! TO.N,AIN-10V*
X157918980Y-63494220D03*
D12*
G04 #@! TO.N,A0-V*
G04 #@! TO.C,R1*
G36*
X158568484Y-65757924D02*
X158592753Y-65761524D01*
X158616551Y-65767485D01*
X158639651Y-65775750D01*
X158661829Y-65786240D01*
X158682873Y-65798853D01*
X158702578Y-65813467D01*
X158720757Y-65829943D01*
X158737233Y-65848122D01*
X158751847Y-65867827D01*
X158764460Y-65888871D01*
X158774950Y-65911049D01*
X158783215Y-65934149D01*
X158789176Y-65957947D01*
X158792776Y-65982216D01*
X158793980Y-66006720D01*
X158793980Y-66931720D01*
X158792776Y-66956224D01*
X158789176Y-66980493D01*
X158783215Y-67004291D01*
X158774950Y-67027391D01*
X158764460Y-67049569D01*
X158751847Y-67070613D01*
X158737233Y-67090318D01*
X158720757Y-67108497D01*
X158702578Y-67124973D01*
X158682873Y-67139587D01*
X158661829Y-67152200D01*
X158639651Y-67162690D01*
X158616551Y-67170955D01*
X158592753Y-67176916D01*
X158568484Y-67180516D01*
X158543980Y-67181720D01*
X157293980Y-67181720D01*
X157269476Y-67180516D01*
X157245207Y-67176916D01*
X157221409Y-67170955D01*
X157198309Y-67162690D01*
X157176131Y-67152200D01*
X157155087Y-67139587D01*
X157135382Y-67124973D01*
X157117203Y-67108497D01*
X157100727Y-67090318D01*
X157086113Y-67070613D01*
X157073500Y-67049569D01*
X157063010Y-67027391D01*
X157054745Y-67004291D01*
X157048784Y-66980493D01*
X157045184Y-66956224D01*
X157043980Y-66931720D01*
X157043980Y-66006720D01*
X157045184Y-65982216D01*
X157048784Y-65957947D01*
X157054745Y-65934149D01*
X157063010Y-65911049D01*
X157073500Y-65888871D01*
X157086113Y-65867827D01*
X157100727Y-65848122D01*
X157117203Y-65829943D01*
X157135382Y-65813467D01*
X157155087Y-65798853D01*
X157176131Y-65786240D01*
X157198309Y-65775750D01*
X157221409Y-65767485D01*
X157245207Y-65761524D01*
X157269476Y-65757924D01*
X157293980Y-65756720D01*
X158543980Y-65756720D01*
X158568484Y-65757924D01*
X158568484Y-65757924D01*
G37*
D13*
G04 #@! TD*
G04 #@! TO.P,R1,2*
G04 #@! TO.N,A0-V*
X157918980Y-66469220D03*
D12*
G04 #@! TO.N,29-GND*
G04 #@! TO.C,R2*
G36*
X158626904Y-75432784D02*
X158651173Y-75436384D01*
X158674971Y-75442345D01*
X158698071Y-75450610D01*
X158720249Y-75461100D01*
X158741293Y-75473713D01*
X158760998Y-75488327D01*
X158779177Y-75504803D01*
X158795653Y-75522982D01*
X158810267Y-75542687D01*
X158822880Y-75563731D01*
X158833370Y-75585909D01*
X158841635Y-75609009D01*
X158847596Y-75632807D01*
X158851196Y-75657076D01*
X158852400Y-75681580D01*
X158852400Y-76606580D01*
X158851196Y-76631084D01*
X158847596Y-76655353D01*
X158841635Y-76679151D01*
X158833370Y-76702251D01*
X158822880Y-76724429D01*
X158810267Y-76745473D01*
X158795653Y-76765178D01*
X158779177Y-76783357D01*
X158760998Y-76799833D01*
X158741293Y-76814447D01*
X158720249Y-76827060D01*
X158698071Y-76837550D01*
X158674971Y-76845815D01*
X158651173Y-76851776D01*
X158626904Y-76855376D01*
X158602400Y-76856580D01*
X157352400Y-76856580D01*
X157327896Y-76855376D01*
X157303627Y-76851776D01*
X157279829Y-76845815D01*
X157256729Y-76837550D01*
X157234551Y-76827060D01*
X157213507Y-76814447D01*
X157193802Y-76799833D01*
X157175623Y-76783357D01*
X157159147Y-76765178D01*
X157144533Y-76745473D01*
X157131920Y-76724429D01*
X157121430Y-76702251D01*
X157113165Y-76679151D01*
X157107204Y-76655353D01*
X157103604Y-76631084D01*
X157102400Y-76606580D01*
X157102400Y-75681580D01*
X157103604Y-75657076D01*
X157107204Y-75632807D01*
X157113165Y-75609009D01*
X157121430Y-75585909D01*
X157131920Y-75563731D01*
X157144533Y-75542687D01*
X157159147Y-75522982D01*
X157175623Y-75504803D01*
X157193802Y-75488327D01*
X157213507Y-75473713D01*
X157234551Y-75461100D01*
X157256729Y-75450610D01*
X157279829Y-75442345D01*
X157303627Y-75436384D01*
X157327896Y-75432784D01*
X157352400Y-75431580D01*
X158602400Y-75431580D01*
X158626904Y-75432784D01*
X158626904Y-75432784D01*
G37*
D13*
G04 #@! TD*
G04 #@! TO.P,R2,2*
G04 #@! TO.N,29-GND*
X157977400Y-76144080D03*
D12*
G04 #@! TO.N,A0-V*
G04 #@! TO.C,R2*
G36*
X158626904Y-72457784D02*
X158651173Y-72461384D01*
X158674971Y-72467345D01*
X158698071Y-72475610D01*
X158720249Y-72486100D01*
X158741293Y-72498713D01*
X158760998Y-72513327D01*
X158779177Y-72529803D01*
X158795653Y-72547982D01*
X158810267Y-72567687D01*
X158822880Y-72588731D01*
X158833370Y-72610909D01*
X158841635Y-72634009D01*
X158847596Y-72657807D01*
X158851196Y-72682076D01*
X158852400Y-72706580D01*
X158852400Y-73631580D01*
X158851196Y-73656084D01*
X158847596Y-73680353D01*
X158841635Y-73704151D01*
X158833370Y-73727251D01*
X158822880Y-73749429D01*
X158810267Y-73770473D01*
X158795653Y-73790178D01*
X158779177Y-73808357D01*
X158760998Y-73824833D01*
X158741293Y-73839447D01*
X158720249Y-73852060D01*
X158698071Y-73862550D01*
X158674971Y-73870815D01*
X158651173Y-73876776D01*
X158626904Y-73880376D01*
X158602400Y-73881580D01*
X157352400Y-73881580D01*
X157327896Y-73880376D01*
X157303627Y-73876776D01*
X157279829Y-73870815D01*
X157256729Y-73862550D01*
X157234551Y-73852060D01*
X157213507Y-73839447D01*
X157193802Y-73824833D01*
X157175623Y-73808357D01*
X157159147Y-73790178D01*
X157144533Y-73770473D01*
X157131920Y-73749429D01*
X157121430Y-73727251D01*
X157113165Y-73704151D01*
X157107204Y-73680353D01*
X157103604Y-73656084D01*
X157102400Y-73631580D01*
X157102400Y-72706580D01*
X157103604Y-72682076D01*
X157107204Y-72657807D01*
X157113165Y-72634009D01*
X157121430Y-72610909D01*
X157131920Y-72588731D01*
X157144533Y-72567687D01*
X157159147Y-72547982D01*
X157175623Y-72529803D01*
X157193802Y-72513327D01*
X157213507Y-72498713D01*
X157234551Y-72486100D01*
X157256729Y-72475610D01*
X157279829Y-72467345D01*
X157303627Y-72461384D01*
X157327896Y-72457784D01*
X157352400Y-72456580D01*
X158602400Y-72456580D01*
X158626904Y-72457784D01*
X158626904Y-72457784D01*
G37*
D13*
G04 #@! TD*
G04 #@! TO.P,R2,1*
G04 #@! TO.N,A0-V*
X157977400Y-73169080D03*
D12*
G04 #@! TO.N,D11-MS1*
G04 #@! TO.C,R3*
G36*
X124602064Y-61080244D02*
X124626333Y-61083844D01*
X124650131Y-61089805D01*
X124673231Y-61098070D01*
X124695409Y-61108560D01*
X124716453Y-61121173D01*
X124736158Y-61135787D01*
X124754337Y-61152263D01*
X124770813Y-61170442D01*
X124785427Y-61190147D01*
X124798040Y-61211191D01*
X124808530Y-61233369D01*
X124816795Y-61256469D01*
X124822756Y-61280267D01*
X124826356Y-61304536D01*
X124827560Y-61329040D01*
X124827560Y-62579040D01*
X124826356Y-62603544D01*
X124822756Y-62627813D01*
X124816795Y-62651611D01*
X124808530Y-62674711D01*
X124798040Y-62696889D01*
X124785427Y-62717933D01*
X124770813Y-62737638D01*
X124754337Y-62755817D01*
X124736158Y-62772293D01*
X124716453Y-62786907D01*
X124695409Y-62799520D01*
X124673231Y-62810010D01*
X124650131Y-62818275D01*
X124626333Y-62824236D01*
X124602064Y-62827836D01*
X124577560Y-62829040D01*
X123652560Y-62829040D01*
X123628056Y-62827836D01*
X123603787Y-62824236D01*
X123579989Y-62818275D01*
X123556889Y-62810010D01*
X123534711Y-62799520D01*
X123513667Y-62786907D01*
X123493962Y-62772293D01*
X123475783Y-62755817D01*
X123459307Y-62737638D01*
X123444693Y-62717933D01*
X123432080Y-62696889D01*
X123421590Y-62674711D01*
X123413325Y-62651611D01*
X123407364Y-62627813D01*
X123403764Y-62603544D01*
X123402560Y-62579040D01*
X123402560Y-61329040D01*
X123403764Y-61304536D01*
X123407364Y-61280267D01*
X123413325Y-61256469D01*
X123421590Y-61233369D01*
X123432080Y-61211191D01*
X123444693Y-61190147D01*
X123459307Y-61170442D01*
X123475783Y-61152263D01*
X123493962Y-61135787D01*
X123513667Y-61121173D01*
X123534711Y-61108560D01*
X123556889Y-61098070D01*
X123579989Y-61089805D01*
X123603787Y-61083844D01*
X123628056Y-61080244D01*
X123652560Y-61079040D01*
X124577560Y-61079040D01*
X124602064Y-61080244D01*
X124602064Y-61080244D01*
G37*
D13*
G04 #@! TD*
G04 #@! TO.P,R3,1*
G04 #@! TO.N,D11-MS1*
X124115060Y-61954040D03*
D12*
G04 #@! TO.N,Net-(D1-Pad2)*
G04 #@! TO.C,R3*
G36*
X127577064Y-61080244D02*
X127601333Y-61083844D01*
X127625131Y-61089805D01*
X127648231Y-61098070D01*
X127670409Y-61108560D01*
X127691453Y-61121173D01*
X127711158Y-61135787D01*
X127729337Y-61152263D01*
X127745813Y-61170442D01*
X127760427Y-61190147D01*
X127773040Y-61211191D01*
X127783530Y-61233369D01*
X127791795Y-61256469D01*
X127797756Y-61280267D01*
X127801356Y-61304536D01*
X127802560Y-61329040D01*
X127802560Y-62579040D01*
X127801356Y-62603544D01*
X127797756Y-62627813D01*
X127791795Y-62651611D01*
X127783530Y-62674711D01*
X127773040Y-62696889D01*
X127760427Y-62717933D01*
X127745813Y-62737638D01*
X127729337Y-62755817D01*
X127711158Y-62772293D01*
X127691453Y-62786907D01*
X127670409Y-62799520D01*
X127648231Y-62810010D01*
X127625131Y-62818275D01*
X127601333Y-62824236D01*
X127577064Y-62827836D01*
X127552560Y-62829040D01*
X126627560Y-62829040D01*
X126603056Y-62827836D01*
X126578787Y-62824236D01*
X126554989Y-62818275D01*
X126531889Y-62810010D01*
X126509711Y-62799520D01*
X126488667Y-62786907D01*
X126468962Y-62772293D01*
X126450783Y-62755817D01*
X126434307Y-62737638D01*
X126419693Y-62717933D01*
X126407080Y-62696889D01*
X126396590Y-62674711D01*
X126388325Y-62651611D01*
X126382364Y-62627813D01*
X126378764Y-62603544D01*
X126377560Y-62579040D01*
X126377560Y-61329040D01*
X126378764Y-61304536D01*
X126382364Y-61280267D01*
X126388325Y-61256469D01*
X126396590Y-61233369D01*
X126407080Y-61211191D01*
X126419693Y-61190147D01*
X126434307Y-61170442D01*
X126450783Y-61152263D01*
X126468962Y-61135787D01*
X126488667Y-61121173D01*
X126509711Y-61108560D01*
X126531889Y-61098070D01*
X126554989Y-61089805D01*
X126578787Y-61083844D01*
X126603056Y-61080244D01*
X126627560Y-61079040D01*
X127552560Y-61079040D01*
X127577064Y-61080244D01*
X127577064Y-61080244D01*
G37*
D13*
G04 #@! TD*
G04 #@! TO.P,R3,2*
G04 #@! TO.N,Net-(D1-Pad2)*
X127090060Y-61954040D03*
D12*
G04 #@! TO.N,Net-(D2-Pad2)*
G04 #@! TO.C,R4*
G36*
X127577064Y-70061684D02*
X127601333Y-70065284D01*
X127625131Y-70071245D01*
X127648231Y-70079510D01*
X127670409Y-70090000D01*
X127691453Y-70102613D01*
X127711158Y-70117227D01*
X127729337Y-70133703D01*
X127745813Y-70151882D01*
X127760427Y-70171587D01*
X127773040Y-70192631D01*
X127783530Y-70214809D01*
X127791795Y-70237909D01*
X127797756Y-70261707D01*
X127801356Y-70285976D01*
X127802560Y-70310480D01*
X127802560Y-71560480D01*
X127801356Y-71584984D01*
X127797756Y-71609253D01*
X127791795Y-71633051D01*
X127783530Y-71656151D01*
X127773040Y-71678329D01*
X127760427Y-71699373D01*
X127745813Y-71719078D01*
X127729337Y-71737257D01*
X127711158Y-71753733D01*
X127691453Y-71768347D01*
X127670409Y-71780960D01*
X127648231Y-71791450D01*
X127625131Y-71799715D01*
X127601333Y-71805676D01*
X127577064Y-71809276D01*
X127552560Y-71810480D01*
X126627560Y-71810480D01*
X126603056Y-71809276D01*
X126578787Y-71805676D01*
X126554989Y-71799715D01*
X126531889Y-71791450D01*
X126509711Y-71780960D01*
X126488667Y-71768347D01*
X126468962Y-71753733D01*
X126450783Y-71737257D01*
X126434307Y-71719078D01*
X126419693Y-71699373D01*
X126407080Y-71678329D01*
X126396590Y-71656151D01*
X126388325Y-71633051D01*
X126382364Y-71609253D01*
X126378764Y-71584984D01*
X126377560Y-71560480D01*
X126377560Y-70310480D01*
X126378764Y-70285976D01*
X126382364Y-70261707D01*
X126388325Y-70237909D01*
X126396590Y-70214809D01*
X126407080Y-70192631D01*
X126419693Y-70171587D01*
X126434307Y-70151882D01*
X126450783Y-70133703D01*
X126468962Y-70117227D01*
X126488667Y-70102613D01*
X126509711Y-70090000D01*
X126531889Y-70079510D01*
X126554989Y-70071245D01*
X126578787Y-70065284D01*
X126603056Y-70061684D01*
X126627560Y-70060480D01*
X127552560Y-70060480D01*
X127577064Y-70061684D01*
X127577064Y-70061684D01*
G37*
D13*
G04 #@! TD*
G04 #@! TO.P,R4,2*
G04 #@! TO.N,Net-(D2-Pad2)*
X127090060Y-70935480D03*
D12*
G04 #@! TO.N,D12-MS2*
G04 #@! TO.C,R4*
G36*
X124602064Y-70061684D02*
X124626333Y-70065284D01*
X124650131Y-70071245D01*
X124673231Y-70079510D01*
X124695409Y-70090000D01*
X124716453Y-70102613D01*
X124736158Y-70117227D01*
X124754337Y-70133703D01*
X124770813Y-70151882D01*
X124785427Y-70171587D01*
X124798040Y-70192631D01*
X124808530Y-70214809D01*
X124816795Y-70237909D01*
X124822756Y-70261707D01*
X124826356Y-70285976D01*
X124827560Y-70310480D01*
X124827560Y-71560480D01*
X124826356Y-71584984D01*
X124822756Y-71609253D01*
X124816795Y-71633051D01*
X124808530Y-71656151D01*
X124798040Y-71678329D01*
X124785427Y-71699373D01*
X124770813Y-71719078D01*
X124754337Y-71737257D01*
X124736158Y-71753733D01*
X124716453Y-71768347D01*
X124695409Y-71780960D01*
X124673231Y-71791450D01*
X124650131Y-71799715D01*
X124626333Y-71805676D01*
X124602064Y-71809276D01*
X124577560Y-71810480D01*
X123652560Y-71810480D01*
X123628056Y-71809276D01*
X123603787Y-71805676D01*
X123579989Y-71799715D01*
X123556889Y-71791450D01*
X123534711Y-71780960D01*
X123513667Y-71768347D01*
X123493962Y-71753733D01*
X123475783Y-71737257D01*
X123459307Y-71719078D01*
X123444693Y-71699373D01*
X123432080Y-71678329D01*
X123421590Y-71656151D01*
X123413325Y-71633051D01*
X123407364Y-71609253D01*
X123403764Y-71584984D01*
X123402560Y-71560480D01*
X123402560Y-70310480D01*
X123403764Y-70285976D01*
X123407364Y-70261707D01*
X123413325Y-70237909D01*
X123421590Y-70214809D01*
X123432080Y-70192631D01*
X123444693Y-70171587D01*
X123459307Y-70151882D01*
X123475783Y-70133703D01*
X123493962Y-70117227D01*
X123513667Y-70102613D01*
X123534711Y-70090000D01*
X123556889Y-70079510D01*
X123579989Y-70071245D01*
X123603787Y-70065284D01*
X123628056Y-70061684D01*
X123652560Y-70060480D01*
X124577560Y-70060480D01*
X124602064Y-70061684D01*
X124602064Y-70061684D01*
G37*
D13*
G04 #@! TD*
G04 #@! TO.P,R4,1*
G04 #@! TO.N,D12-MS2*
X124115060Y-70935480D03*
D12*
G04 #@! TO.N,D13-MS3*
G04 #@! TO.C,R5*
G36*
X124602064Y-79485084D02*
X124626333Y-79488684D01*
X124650131Y-79494645D01*
X124673231Y-79502910D01*
X124695409Y-79513400D01*
X124716453Y-79526013D01*
X124736158Y-79540627D01*
X124754337Y-79557103D01*
X124770813Y-79575282D01*
X124785427Y-79594987D01*
X124798040Y-79616031D01*
X124808530Y-79638209D01*
X124816795Y-79661309D01*
X124822756Y-79685107D01*
X124826356Y-79709376D01*
X124827560Y-79733880D01*
X124827560Y-80983880D01*
X124826356Y-81008384D01*
X124822756Y-81032653D01*
X124816795Y-81056451D01*
X124808530Y-81079551D01*
X124798040Y-81101729D01*
X124785427Y-81122773D01*
X124770813Y-81142478D01*
X124754337Y-81160657D01*
X124736158Y-81177133D01*
X124716453Y-81191747D01*
X124695409Y-81204360D01*
X124673231Y-81214850D01*
X124650131Y-81223115D01*
X124626333Y-81229076D01*
X124602064Y-81232676D01*
X124577560Y-81233880D01*
X123652560Y-81233880D01*
X123628056Y-81232676D01*
X123603787Y-81229076D01*
X123579989Y-81223115D01*
X123556889Y-81214850D01*
X123534711Y-81204360D01*
X123513667Y-81191747D01*
X123493962Y-81177133D01*
X123475783Y-81160657D01*
X123459307Y-81142478D01*
X123444693Y-81122773D01*
X123432080Y-81101729D01*
X123421590Y-81079551D01*
X123413325Y-81056451D01*
X123407364Y-81032653D01*
X123403764Y-81008384D01*
X123402560Y-80983880D01*
X123402560Y-79733880D01*
X123403764Y-79709376D01*
X123407364Y-79685107D01*
X123413325Y-79661309D01*
X123421590Y-79638209D01*
X123432080Y-79616031D01*
X123444693Y-79594987D01*
X123459307Y-79575282D01*
X123475783Y-79557103D01*
X123493962Y-79540627D01*
X123513667Y-79526013D01*
X123534711Y-79513400D01*
X123556889Y-79502910D01*
X123579989Y-79494645D01*
X123603787Y-79488684D01*
X123628056Y-79485084D01*
X123652560Y-79483880D01*
X124577560Y-79483880D01*
X124602064Y-79485084D01*
X124602064Y-79485084D01*
G37*
D13*
G04 #@! TD*
G04 #@! TO.P,R5,1*
G04 #@! TO.N,D13-MS3*
X124115060Y-80358880D03*
D12*
G04 #@! TO.N,Net-(D3-Pad2)*
G04 #@! TO.C,R5*
G36*
X127577064Y-79485084D02*
X127601333Y-79488684D01*
X127625131Y-79494645D01*
X127648231Y-79502910D01*
X127670409Y-79513400D01*
X127691453Y-79526013D01*
X127711158Y-79540627D01*
X127729337Y-79557103D01*
X127745813Y-79575282D01*
X127760427Y-79594987D01*
X127773040Y-79616031D01*
X127783530Y-79638209D01*
X127791795Y-79661309D01*
X127797756Y-79685107D01*
X127801356Y-79709376D01*
X127802560Y-79733880D01*
X127802560Y-80983880D01*
X127801356Y-81008384D01*
X127797756Y-81032653D01*
X127791795Y-81056451D01*
X127783530Y-81079551D01*
X127773040Y-81101729D01*
X127760427Y-81122773D01*
X127745813Y-81142478D01*
X127729337Y-81160657D01*
X127711158Y-81177133D01*
X127691453Y-81191747D01*
X127670409Y-81204360D01*
X127648231Y-81214850D01*
X127625131Y-81223115D01*
X127601333Y-81229076D01*
X127577064Y-81232676D01*
X127552560Y-81233880D01*
X126627560Y-81233880D01*
X126603056Y-81232676D01*
X126578787Y-81229076D01*
X126554989Y-81223115D01*
X126531889Y-81214850D01*
X126509711Y-81204360D01*
X126488667Y-81191747D01*
X126468962Y-81177133D01*
X126450783Y-81160657D01*
X126434307Y-81142478D01*
X126419693Y-81122773D01*
X126407080Y-81101729D01*
X126396590Y-81079551D01*
X126388325Y-81056451D01*
X126382364Y-81032653D01*
X126378764Y-81008384D01*
X126377560Y-80983880D01*
X126377560Y-79733880D01*
X126378764Y-79709376D01*
X126382364Y-79685107D01*
X126388325Y-79661309D01*
X126396590Y-79638209D01*
X126407080Y-79616031D01*
X126419693Y-79594987D01*
X126434307Y-79575282D01*
X126450783Y-79557103D01*
X126468962Y-79540627D01*
X126488667Y-79526013D01*
X126509711Y-79513400D01*
X126531889Y-79502910D01*
X126554989Y-79494645D01*
X126578787Y-79488684D01*
X126603056Y-79485084D01*
X126627560Y-79483880D01*
X127552560Y-79483880D01*
X127577064Y-79485084D01*
X127577064Y-79485084D01*
G37*
D13*
G04 #@! TD*
G04 #@! TO.P,R5,2*
G04 #@! TO.N,Net-(D3-Pad2)*
X127090060Y-80358880D03*
D12*
G04 #@! TO.N,A4-SDA*
G04 #@! TO.C,R6*
G36*
X144113404Y-75357584D02*
X144137673Y-75361184D01*
X144161471Y-75367145D01*
X144184571Y-75375410D01*
X144206749Y-75385900D01*
X144227793Y-75398513D01*
X144247498Y-75413127D01*
X144265677Y-75429603D01*
X144282153Y-75447782D01*
X144296767Y-75467487D01*
X144309380Y-75488531D01*
X144319870Y-75510709D01*
X144328135Y-75533809D01*
X144334096Y-75557607D01*
X144337696Y-75581876D01*
X144338900Y-75606380D01*
X144338900Y-76856380D01*
X144337696Y-76880884D01*
X144334096Y-76905153D01*
X144328135Y-76928951D01*
X144319870Y-76952051D01*
X144309380Y-76974229D01*
X144296767Y-76995273D01*
X144282153Y-77014978D01*
X144265677Y-77033157D01*
X144247498Y-77049633D01*
X144227793Y-77064247D01*
X144206749Y-77076860D01*
X144184571Y-77087350D01*
X144161471Y-77095615D01*
X144137673Y-77101576D01*
X144113404Y-77105176D01*
X144088900Y-77106380D01*
X143163900Y-77106380D01*
X143139396Y-77105176D01*
X143115127Y-77101576D01*
X143091329Y-77095615D01*
X143068229Y-77087350D01*
X143046051Y-77076860D01*
X143025007Y-77064247D01*
X143005302Y-77049633D01*
X142987123Y-77033157D01*
X142970647Y-77014978D01*
X142956033Y-76995273D01*
X142943420Y-76974229D01*
X142932930Y-76952051D01*
X142924665Y-76928951D01*
X142918704Y-76905153D01*
X142915104Y-76880884D01*
X142913900Y-76856380D01*
X142913900Y-75606380D01*
X142915104Y-75581876D01*
X142918704Y-75557607D01*
X142924665Y-75533809D01*
X142932930Y-75510709D01*
X142943420Y-75488531D01*
X142956033Y-75467487D01*
X142970647Y-75447782D01*
X142987123Y-75429603D01*
X143005302Y-75413127D01*
X143025007Y-75398513D01*
X143046051Y-75385900D01*
X143068229Y-75375410D01*
X143091329Y-75367145D01*
X143115127Y-75361184D01*
X143139396Y-75357584D01*
X143163900Y-75356380D01*
X144088900Y-75356380D01*
X144113404Y-75357584D01*
X144113404Y-75357584D01*
G37*
D13*
G04 #@! TD*
G04 #@! TO.P,R6,2*
G04 #@! TO.N,A4-SDA*
X143626400Y-76231380D03*
D12*
G04 #@! TO.N,27-5V*
G04 #@! TO.C,R6*
G36*
X141138404Y-75357584D02*
X141162673Y-75361184D01*
X141186471Y-75367145D01*
X141209571Y-75375410D01*
X141231749Y-75385900D01*
X141252793Y-75398513D01*
X141272498Y-75413127D01*
X141290677Y-75429603D01*
X141307153Y-75447782D01*
X141321767Y-75467487D01*
X141334380Y-75488531D01*
X141344870Y-75510709D01*
X141353135Y-75533809D01*
X141359096Y-75557607D01*
X141362696Y-75581876D01*
X141363900Y-75606380D01*
X141363900Y-76856380D01*
X141362696Y-76880884D01*
X141359096Y-76905153D01*
X141353135Y-76928951D01*
X141344870Y-76952051D01*
X141334380Y-76974229D01*
X141321767Y-76995273D01*
X141307153Y-77014978D01*
X141290677Y-77033157D01*
X141272498Y-77049633D01*
X141252793Y-77064247D01*
X141231749Y-77076860D01*
X141209571Y-77087350D01*
X141186471Y-77095615D01*
X141162673Y-77101576D01*
X141138404Y-77105176D01*
X141113900Y-77106380D01*
X140188900Y-77106380D01*
X140164396Y-77105176D01*
X140140127Y-77101576D01*
X140116329Y-77095615D01*
X140093229Y-77087350D01*
X140071051Y-77076860D01*
X140050007Y-77064247D01*
X140030302Y-77049633D01*
X140012123Y-77033157D01*
X139995647Y-77014978D01*
X139981033Y-76995273D01*
X139968420Y-76974229D01*
X139957930Y-76952051D01*
X139949665Y-76928951D01*
X139943704Y-76905153D01*
X139940104Y-76880884D01*
X139938900Y-76856380D01*
X139938900Y-75606380D01*
X139940104Y-75581876D01*
X139943704Y-75557607D01*
X139949665Y-75533809D01*
X139957930Y-75510709D01*
X139968420Y-75488531D01*
X139981033Y-75467487D01*
X139995647Y-75447782D01*
X140012123Y-75429603D01*
X140030302Y-75413127D01*
X140050007Y-75398513D01*
X140071051Y-75385900D01*
X140093229Y-75375410D01*
X140116329Y-75367145D01*
X140140127Y-75361184D01*
X140164396Y-75357584D01*
X140188900Y-75356380D01*
X141113900Y-75356380D01*
X141138404Y-75357584D01*
X141138404Y-75357584D01*
G37*
D13*
G04 #@! TD*
G04 #@! TO.P,R6,1*
G04 #@! TO.N,27-5V*
X140651400Y-76231380D03*
D12*
G04 #@! TO.N,A5-SCL*
G04 #@! TO.C,R7*
G36*
X144158184Y-72469604D02*
X144182453Y-72473204D01*
X144206251Y-72479165D01*
X144229351Y-72487430D01*
X144251529Y-72497920D01*
X144272573Y-72510533D01*
X144292278Y-72525147D01*
X144310457Y-72541623D01*
X144326933Y-72559802D01*
X144341547Y-72579507D01*
X144354160Y-72600551D01*
X144364650Y-72622729D01*
X144372915Y-72645829D01*
X144378876Y-72669627D01*
X144382476Y-72693896D01*
X144383680Y-72718400D01*
X144383680Y-73968400D01*
X144382476Y-73992904D01*
X144378876Y-74017173D01*
X144372915Y-74040971D01*
X144364650Y-74064071D01*
X144354160Y-74086249D01*
X144341547Y-74107293D01*
X144326933Y-74126998D01*
X144310457Y-74145177D01*
X144292278Y-74161653D01*
X144272573Y-74176267D01*
X144251529Y-74188880D01*
X144229351Y-74199370D01*
X144206251Y-74207635D01*
X144182453Y-74213596D01*
X144158184Y-74217196D01*
X144133680Y-74218400D01*
X143208680Y-74218400D01*
X143184176Y-74217196D01*
X143159907Y-74213596D01*
X143136109Y-74207635D01*
X143113009Y-74199370D01*
X143090831Y-74188880D01*
X143069787Y-74176267D01*
X143050082Y-74161653D01*
X143031903Y-74145177D01*
X143015427Y-74126998D01*
X143000813Y-74107293D01*
X142988200Y-74086249D01*
X142977710Y-74064071D01*
X142969445Y-74040971D01*
X142963484Y-74017173D01*
X142959884Y-73992904D01*
X142958680Y-73968400D01*
X142958680Y-72718400D01*
X142959884Y-72693896D01*
X142963484Y-72669627D01*
X142969445Y-72645829D01*
X142977710Y-72622729D01*
X142988200Y-72600551D01*
X143000813Y-72579507D01*
X143015427Y-72559802D01*
X143031903Y-72541623D01*
X143050082Y-72525147D01*
X143069787Y-72510533D01*
X143090831Y-72497920D01*
X143113009Y-72487430D01*
X143136109Y-72479165D01*
X143159907Y-72473204D01*
X143184176Y-72469604D01*
X143208680Y-72468400D01*
X144133680Y-72468400D01*
X144158184Y-72469604D01*
X144158184Y-72469604D01*
G37*
D13*
G04 #@! TD*
G04 #@! TO.P,R7,2*
G04 #@! TO.N,A5-SCL*
X143671180Y-73343400D03*
D12*
G04 #@! TO.N,27-5V*
G04 #@! TO.C,R7*
G36*
X141183184Y-72469604D02*
X141207453Y-72473204D01*
X141231251Y-72479165D01*
X141254351Y-72487430D01*
X141276529Y-72497920D01*
X141297573Y-72510533D01*
X141317278Y-72525147D01*
X141335457Y-72541623D01*
X141351933Y-72559802D01*
X141366547Y-72579507D01*
X141379160Y-72600551D01*
X141389650Y-72622729D01*
X141397915Y-72645829D01*
X141403876Y-72669627D01*
X141407476Y-72693896D01*
X141408680Y-72718400D01*
X141408680Y-73968400D01*
X141407476Y-73992904D01*
X141403876Y-74017173D01*
X141397915Y-74040971D01*
X141389650Y-74064071D01*
X141379160Y-74086249D01*
X141366547Y-74107293D01*
X141351933Y-74126998D01*
X141335457Y-74145177D01*
X141317278Y-74161653D01*
X141297573Y-74176267D01*
X141276529Y-74188880D01*
X141254351Y-74199370D01*
X141231251Y-74207635D01*
X141207453Y-74213596D01*
X141183184Y-74217196D01*
X141158680Y-74218400D01*
X140233680Y-74218400D01*
X140209176Y-74217196D01*
X140184907Y-74213596D01*
X140161109Y-74207635D01*
X140138009Y-74199370D01*
X140115831Y-74188880D01*
X140094787Y-74176267D01*
X140075082Y-74161653D01*
X140056903Y-74145177D01*
X140040427Y-74126998D01*
X140025813Y-74107293D01*
X140013200Y-74086249D01*
X140002710Y-74064071D01*
X139994445Y-74040971D01*
X139988484Y-74017173D01*
X139984884Y-73992904D01*
X139983680Y-73968400D01*
X139983680Y-72718400D01*
X139984884Y-72693896D01*
X139988484Y-72669627D01*
X139994445Y-72645829D01*
X140002710Y-72622729D01*
X140013200Y-72600551D01*
X140025813Y-72579507D01*
X140040427Y-72559802D01*
X140056903Y-72541623D01*
X140075082Y-72525147D01*
X140094787Y-72510533D01*
X140115831Y-72497920D01*
X140138009Y-72487430D01*
X140161109Y-72479165D01*
X140184907Y-72473204D01*
X140209176Y-72469604D01*
X140233680Y-72468400D01*
X141158680Y-72468400D01*
X141183184Y-72469604D01*
X141183184Y-72469604D01*
G37*
D13*
G04 #@! TD*
G04 #@! TO.P,R7,1*
G04 #@! TO.N,27-5V*
X140696180Y-73343400D03*
D12*
G04 #@! TO.N,A6-TEMP*
G04 #@! TO.C,R8*
G36*
X147615124Y-57326124D02*
X147639393Y-57329724D01*
X147663191Y-57335685D01*
X147686291Y-57343950D01*
X147708469Y-57354440D01*
X147729513Y-57367053D01*
X147749218Y-57381667D01*
X147767397Y-57398143D01*
X147783873Y-57416322D01*
X147798487Y-57436027D01*
X147811100Y-57457071D01*
X147821590Y-57479249D01*
X147829855Y-57502349D01*
X147835816Y-57526147D01*
X147839416Y-57550416D01*
X147840620Y-57574920D01*
X147840620Y-58824920D01*
X147839416Y-58849424D01*
X147835816Y-58873693D01*
X147829855Y-58897491D01*
X147821590Y-58920591D01*
X147811100Y-58942769D01*
X147798487Y-58963813D01*
X147783873Y-58983518D01*
X147767397Y-59001697D01*
X147749218Y-59018173D01*
X147729513Y-59032787D01*
X147708469Y-59045400D01*
X147686291Y-59055890D01*
X147663191Y-59064155D01*
X147639393Y-59070116D01*
X147615124Y-59073716D01*
X147590620Y-59074920D01*
X146665620Y-59074920D01*
X146641116Y-59073716D01*
X146616847Y-59070116D01*
X146593049Y-59064155D01*
X146569949Y-59055890D01*
X146547771Y-59045400D01*
X146526727Y-59032787D01*
X146507022Y-59018173D01*
X146488843Y-59001697D01*
X146472367Y-58983518D01*
X146457753Y-58963813D01*
X146445140Y-58942769D01*
X146434650Y-58920591D01*
X146426385Y-58897491D01*
X146420424Y-58873693D01*
X146416824Y-58849424D01*
X146415620Y-58824920D01*
X146415620Y-57574920D01*
X146416824Y-57550416D01*
X146420424Y-57526147D01*
X146426385Y-57502349D01*
X146434650Y-57479249D01*
X146445140Y-57457071D01*
X146457753Y-57436027D01*
X146472367Y-57416322D01*
X146488843Y-57398143D01*
X146507022Y-57381667D01*
X146526727Y-57367053D01*
X146547771Y-57354440D01*
X146569949Y-57343950D01*
X146593049Y-57335685D01*
X146616847Y-57329724D01*
X146641116Y-57326124D01*
X146665620Y-57324920D01*
X147590620Y-57324920D01*
X147615124Y-57326124D01*
X147615124Y-57326124D01*
G37*
D13*
G04 #@! TD*
G04 #@! TO.P,R8,1*
G04 #@! TO.N,A6-TEMP*
X147128120Y-58199920D03*
D12*
G04 #@! TO.N,29-GND*
G04 #@! TO.C,R8*
G36*
X144640124Y-57326124D02*
X144664393Y-57329724D01*
X144688191Y-57335685D01*
X144711291Y-57343950D01*
X144733469Y-57354440D01*
X144754513Y-57367053D01*
X144774218Y-57381667D01*
X144792397Y-57398143D01*
X144808873Y-57416322D01*
X144823487Y-57436027D01*
X144836100Y-57457071D01*
X144846590Y-57479249D01*
X144854855Y-57502349D01*
X144860816Y-57526147D01*
X144864416Y-57550416D01*
X144865620Y-57574920D01*
X144865620Y-58824920D01*
X144864416Y-58849424D01*
X144860816Y-58873693D01*
X144854855Y-58897491D01*
X144846590Y-58920591D01*
X144836100Y-58942769D01*
X144823487Y-58963813D01*
X144808873Y-58983518D01*
X144792397Y-59001697D01*
X144774218Y-59018173D01*
X144754513Y-59032787D01*
X144733469Y-59045400D01*
X144711291Y-59055890D01*
X144688191Y-59064155D01*
X144664393Y-59070116D01*
X144640124Y-59073716D01*
X144615620Y-59074920D01*
X143690620Y-59074920D01*
X143666116Y-59073716D01*
X143641847Y-59070116D01*
X143618049Y-59064155D01*
X143594949Y-59055890D01*
X143572771Y-59045400D01*
X143551727Y-59032787D01*
X143532022Y-59018173D01*
X143513843Y-59001697D01*
X143497367Y-58983518D01*
X143482753Y-58963813D01*
X143470140Y-58942769D01*
X143459650Y-58920591D01*
X143451385Y-58897491D01*
X143445424Y-58873693D01*
X143441824Y-58849424D01*
X143440620Y-58824920D01*
X143440620Y-57574920D01*
X143441824Y-57550416D01*
X143445424Y-57526147D01*
X143451385Y-57502349D01*
X143459650Y-57479249D01*
X143470140Y-57457071D01*
X143482753Y-57436027D01*
X143497367Y-57416322D01*
X143513843Y-57398143D01*
X143532022Y-57381667D01*
X143551727Y-57367053D01*
X143572771Y-57354440D01*
X143594949Y-57343950D01*
X143618049Y-57335685D01*
X143641847Y-57329724D01*
X143666116Y-57326124D01*
X143690620Y-57324920D01*
X144615620Y-57324920D01*
X144640124Y-57326124D01*
X144640124Y-57326124D01*
G37*
D13*
G04 #@! TD*
G04 #@! TO.P,R8,2*
G04 #@! TO.N,29-GND*
X144153120Y-58199920D03*
D12*
G04 #@! TO.N,AN-OUT*
G04 #@! TO.C,R10*
G36*
X140928184Y-84518364D02*
X140952453Y-84521964D01*
X140976251Y-84527925D01*
X140999351Y-84536190D01*
X141021529Y-84546680D01*
X141042573Y-84559293D01*
X141062278Y-84573907D01*
X141080457Y-84590383D01*
X141096933Y-84608562D01*
X141111547Y-84628267D01*
X141124160Y-84649311D01*
X141134650Y-84671489D01*
X141142915Y-84694589D01*
X141148876Y-84718387D01*
X141152476Y-84742656D01*
X141153680Y-84767160D01*
X141153680Y-85692160D01*
X141152476Y-85716664D01*
X141148876Y-85740933D01*
X141142915Y-85764731D01*
X141134650Y-85787831D01*
X141124160Y-85810009D01*
X141111547Y-85831053D01*
X141096933Y-85850758D01*
X141080457Y-85868937D01*
X141062278Y-85885413D01*
X141042573Y-85900027D01*
X141021529Y-85912640D01*
X140999351Y-85923130D01*
X140976251Y-85931395D01*
X140952453Y-85937356D01*
X140928184Y-85940956D01*
X140903680Y-85942160D01*
X139653680Y-85942160D01*
X139629176Y-85940956D01*
X139604907Y-85937356D01*
X139581109Y-85931395D01*
X139558009Y-85923130D01*
X139535831Y-85912640D01*
X139514787Y-85900027D01*
X139495082Y-85885413D01*
X139476903Y-85868937D01*
X139460427Y-85850758D01*
X139445813Y-85831053D01*
X139433200Y-85810009D01*
X139422710Y-85787831D01*
X139414445Y-85764731D01*
X139408484Y-85740933D01*
X139404884Y-85716664D01*
X139403680Y-85692160D01*
X139403680Y-84767160D01*
X139404884Y-84742656D01*
X139408484Y-84718387D01*
X139414445Y-84694589D01*
X139422710Y-84671489D01*
X139433200Y-84649311D01*
X139445813Y-84628267D01*
X139460427Y-84608562D01*
X139476903Y-84590383D01*
X139495082Y-84573907D01*
X139514787Y-84559293D01*
X139535831Y-84546680D01*
X139558009Y-84536190D01*
X139581109Y-84527925D01*
X139604907Y-84521964D01*
X139629176Y-84518364D01*
X139653680Y-84517160D01*
X140903680Y-84517160D01*
X140928184Y-84518364D01*
X140928184Y-84518364D01*
G37*
D13*
G04 #@! TD*
G04 #@! TO.P,R10,2*
G04 #@! TO.N,AN-OUT*
X140278680Y-85229660D03*
D12*
G04 #@! TO.N,D9-PWM-OUT*
G04 #@! TO.C,R10*
G36*
X140928184Y-81543364D02*
X140952453Y-81546964D01*
X140976251Y-81552925D01*
X140999351Y-81561190D01*
X141021529Y-81571680D01*
X141042573Y-81584293D01*
X141062278Y-81598907D01*
X141080457Y-81615383D01*
X141096933Y-81633562D01*
X141111547Y-81653267D01*
X141124160Y-81674311D01*
X141134650Y-81696489D01*
X141142915Y-81719589D01*
X141148876Y-81743387D01*
X141152476Y-81767656D01*
X141153680Y-81792160D01*
X141153680Y-82717160D01*
X141152476Y-82741664D01*
X141148876Y-82765933D01*
X141142915Y-82789731D01*
X141134650Y-82812831D01*
X141124160Y-82835009D01*
X141111547Y-82856053D01*
X141096933Y-82875758D01*
X141080457Y-82893937D01*
X141062278Y-82910413D01*
X141042573Y-82925027D01*
X141021529Y-82937640D01*
X140999351Y-82948130D01*
X140976251Y-82956395D01*
X140952453Y-82962356D01*
X140928184Y-82965956D01*
X140903680Y-82967160D01*
X139653680Y-82967160D01*
X139629176Y-82965956D01*
X139604907Y-82962356D01*
X139581109Y-82956395D01*
X139558009Y-82948130D01*
X139535831Y-82937640D01*
X139514787Y-82925027D01*
X139495082Y-82910413D01*
X139476903Y-82893937D01*
X139460427Y-82875758D01*
X139445813Y-82856053D01*
X139433200Y-82835009D01*
X139422710Y-82812831D01*
X139414445Y-82789731D01*
X139408484Y-82765933D01*
X139404884Y-82741664D01*
X139403680Y-82717160D01*
X139403680Y-81792160D01*
X139404884Y-81767656D01*
X139408484Y-81743387D01*
X139414445Y-81719589D01*
X139422710Y-81696489D01*
X139433200Y-81674311D01*
X139445813Y-81653267D01*
X139460427Y-81633562D01*
X139476903Y-81615383D01*
X139495082Y-81598907D01*
X139514787Y-81584293D01*
X139535831Y-81571680D01*
X139558009Y-81561190D01*
X139581109Y-81552925D01*
X139604907Y-81546964D01*
X139629176Y-81543364D01*
X139653680Y-81542160D01*
X140903680Y-81542160D01*
X140928184Y-81543364D01*
X140928184Y-81543364D01*
G37*
D13*
G04 #@! TD*
G04 #@! TO.P,R10,1*
G04 #@! TO.N,D9-PWM-OUT*
X140278680Y-82254660D03*
D16*
G04 #@! TO.N,*
X158000000Y-53600000D03*
X126700000Y-84900000D03*
X126600000Y-53600000D03*
X158000000Y-84900000D03*
D17*
G04 #@! TO.N,Net-(C3-Pad1)*
X137906320Y-68738380D03*
X138053640Y-61829580D03*
X139227120Y-69469900D03*
X140707940Y-55007140D03*
G04 #@! TO.N,A5-SCL*
X143641640Y-73368800D03*
G04 #@! TO.N,A4-SDA*
X145320580Y-68192280D03*
X143606080Y-76218680D03*
G04 #@! TO.N,A6-TEMP*
X139923080Y-61799100D03*
X147090960Y-58199920D03*
X147032540Y-61710200D03*
G04 #@! TO.N,27-5V*
X139981500Y-58692680D03*
X144624620Y-55123980D03*
X140471720Y-76218680D03*
X140309160Y-73315460D03*
X139500000Y-70739900D03*
G04 #@! TO.N,29-GND*
X144042960Y-82114020D03*
X143783880Y-61565420D03*
X144101380Y-58141500D03*
X144624620Y-51989620D03*
X140880660Y-51989620D03*
X123804240Y-77087360D03*
X124020140Y-67945900D03*
X123976960Y-58977160D03*
X158063760Y-76144080D03*
G04 #@! TO.N,D11-MS1*
X123849960Y-61931180D03*
G04 #@! TO.N,D12-MS2*
X123806780Y-70940560D03*
G04 #@! TO.N,D13-MS3*
X123796620Y-80323320D03*
G04 #@! TO.N,A0-V*
X157918980Y-73110660D03*
G04 #@! TO.N,AN-OUT*
X147078260Y-89482560D03*
X145015780Y-87432780D03*
X143994700Y-85229660D03*
G04 #@! TD*
D18*
G04 #@! TO.N,Net-(C3-Pad1)*
X137913940Y-61969280D02*
X137913940Y-68730760D01*
X138053640Y-61829580D02*
X137913940Y-61969280D01*
X137913940Y-68730760D02*
X137906320Y-68738380D01*
G04 #@! TO.N,A4-SDA*
X148427000Y-70221740D02*
X150118640Y-70221740D01*
X145320580Y-68192280D02*
X146397540Y-68192280D01*
X146397540Y-68192280D02*
X148427000Y-70221740D01*
X144438900Y-76231380D02*
X148427000Y-72243280D01*
X148427000Y-72243280D02*
X148427000Y-70221740D01*
X143626400Y-76231380D02*
X144438900Y-76231380D01*
G04 #@! TO.N,A6-TEMP*
X148924840Y-65141740D02*
X150118640Y-65141740D01*
X147032540Y-61710200D02*
X147032540Y-63249440D01*
X147032540Y-63249440D02*
X148924840Y-65141740D01*
X146298353Y-60938853D02*
X147069700Y-61710200D01*
X145649840Y-60290340D02*
X146298353Y-60938853D01*
X141431840Y-60290340D02*
X145649840Y-60290340D01*
X139923080Y-61799100D02*
X141431840Y-60290340D01*
G04 #@! TO.N,27-5V*
X147128120Y-55102720D02*
X144624620Y-55102720D01*
X148571780Y-56546380D02*
X147128120Y-55102720D01*
X150118640Y-60061740D02*
X148571780Y-58514880D01*
X148571780Y-58514880D02*
X148571780Y-56546380D01*
X138162860Y-70744980D02*
X139494920Y-70744980D01*
X136737920Y-69320040D02*
X138162860Y-70744980D01*
X139494920Y-70744980D02*
X139500000Y-70739900D01*
X139981500Y-58692680D02*
X138780080Y-58692680D01*
X136737920Y-60734840D02*
X136737920Y-69320040D01*
X138780080Y-58692680D02*
X136737920Y-60734840D01*
G04 #@! TO.N,29-GND*
X161138100Y-76166280D02*
X161154940Y-76183120D01*
X161115900Y-76144080D02*
X161154940Y-76183120D01*
X157977400Y-76144080D02*
X158063760Y-76144080D01*
X158063760Y-76144080D02*
X161115900Y-76144080D01*
G04 #@! TO.N,D13-MS3*
X147052860Y-88001740D02*
X150118640Y-88001740D01*
X126556990Y-89674990D02*
X145379610Y-89674990D01*
X123796620Y-80323320D02*
X123796620Y-86914620D01*
X123796620Y-86914620D02*
X126556990Y-89674990D01*
X147052860Y-88001740D02*
X145379610Y-89674990D01*
G04 #@! TO.N,A0-V*
X157918980Y-66469220D02*
X157918980Y-73110660D01*
X157918980Y-73110660D02*
X157977400Y-73169080D01*
G04 #@! TO.N,D9-PWM-OUT*
X138405760Y-80381740D02*
X140278680Y-82254660D01*
X134878640Y-80381740D02*
X138405760Y-80381740D01*
G04 #@! TO.N,Net-(D1-Pad2)*
X127090060Y-59033040D02*
X127090060Y-61954040D01*
G04 #@! TO.N,Net-(D2-Pad2)*
X127090060Y-67902720D02*
X127090060Y-70935480D01*
G04 #@! TO.N,Net-(D3-Pad2)*
X127090060Y-77100060D02*
X127090060Y-80358880D01*
G04 #@! TO.N,AN-OUT*
X140278680Y-85229660D02*
X143994700Y-85229660D01*
X143994700Y-85229660D02*
X143999780Y-85229660D01*
X143994700Y-86411700D02*
X143994700Y-85229660D01*
X145015780Y-87432780D02*
X143994700Y-86411700D01*
X162454941Y-85507939D02*
X162454941Y-67323121D01*
X158287890Y-89674990D02*
X162454941Y-85507939D01*
X162454941Y-67323121D02*
X161154940Y-66023120D01*
X147078260Y-89482560D02*
X147270690Y-89674990D01*
X147270690Y-89674990D02*
X158287890Y-89674990D01*
G04 #@! TO.N,AIN-10V*
X157930080Y-63483120D02*
X157918980Y-63494220D01*
X161154940Y-63483120D02*
X157930080Y-63483120D01*
G04 #@! TD*
M02*
