G04 #@! TF.GenerationSoftware,KiCad,Pcbnew,5.0.2-bee76a0~70~ubuntu18.04.1*
G04 #@! TF.CreationDate,2019-01-29T19:41:14+01:00*
G04 #@! TF.ProjectId,ustepper_41_nano,75737465-7070-4657-925f-34315f6e616e,rev?*
G04 #@! TF.SameCoordinates,Original*
G04 #@! TF.FileFunction,Legend,Top*
G04 #@! TF.FilePolarity,Positive*
%FSLAX46Y46*%
G04 Gerber Fmt 4.6, Leading zero omitted, Abs format (unit mm)*
G04 Created by KiCad (PCBNEW 5.0.2-bee76a0~70~ubuntu18.04.1) date mar 29 ene 2019 19:41:14 CET*
%MOMM*%
%LPD*%
G01*
G04 APERTURE LIST*
%ADD10C,0.100000*%
%ADD11C,0.200000*%
%ADD12C,0.300000*%
%ADD13C,0.120000*%
%ADD14C,0.150000*%
G04 APERTURE END LIST*
D10*
X128056247Y-75586528D02*
X128818152Y-75586528D01*
X128437200Y-75967480D02*
X128437200Y-75205576D01*
X128208647Y-66531428D02*
X128970552Y-66531428D01*
X128589600Y-66912380D02*
X128589600Y-66150476D01*
X128348347Y-57806528D02*
X129110252Y-57806528D01*
X128729300Y-58187480D02*
X128729300Y-57425576D01*
D11*
X138546400Y-83752320D02*
X146115600Y-83752320D01*
X146115600Y-89746720D02*
X138546400Y-89746720D01*
X146115600Y-83752320D02*
X146115600Y-89746720D01*
X138546400Y-89746720D02*
X138546400Y-83752320D01*
D12*
X131696451Y-49201851D02*
X131696451Y-50201851D01*
X131053594Y-49201851D02*
X131053594Y-49987565D01*
X131125022Y-50130422D01*
X131267880Y-50201851D01*
X131482165Y-50201851D01*
X131625022Y-50130422D01*
X131696451Y-50058994D01*
X132339308Y-50130422D02*
X132553594Y-50201851D01*
X132910737Y-50201851D01*
X133053594Y-50130422D01*
X133125022Y-50058994D01*
X133196451Y-49916137D01*
X133196451Y-49773280D01*
X133125022Y-49630422D01*
X133053594Y-49558994D01*
X132910737Y-49487565D01*
X132625022Y-49416137D01*
X132482165Y-49344708D01*
X132410737Y-49273280D01*
X132339308Y-49130422D01*
X132339308Y-48987565D01*
X132410737Y-48844708D01*
X132482165Y-48773280D01*
X132625022Y-48701851D01*
X132982165Y-48701851D01*
X133196451Y-48773280D01*
X133625022Y-49201851D02*
X134196451Y-49201851D01*
X133839308Y-48701851D02*
X133839308Y-49987565D01*
X133910737Y-50130422D01*
X134053594Y-50201851D01*
X134196451Y-50201851D01*
X135267880Y-50130422D02*
X135125022Y-50201851D01*
X134839308Y-50201851D01*
X134696451Y-50130422D01*
X134625022Y-49987565D01*
X134625022Y-49416137D01*
X134696451Y-49273280D01*
X134839308Y-49201851D01*
X135125022Y-49201851D01*
X135267880Y-49273280D01*
X135339308Y-49416137D01*
X135339308Y-49558994D01*
X134625022Y-49701851D01*
X135982165Y-49201851D02*
X135982165Y-50701851D01*
X135982165Y-49273280D02*
X136125022Y-49201851D01*
X136410737Y-49201851D01*
X136553594Y-49273280D01*
X136625022Y-49344708D01*
X136696451Y-49487565D01*
X136696451Y-49916137D01*
X136625022Y-50058994D01*
X136553594Y-50130422D01*
X136410737Y-50201851D01*
X136125022Y-50201851D01*
X135982165Y-50130422D01*
X137339308Y-49201851D02*
X137339308Y-50701851D01*
X137339308Y-49273280D02*
X137482165Y-49201851D01*
X137767880Y-49201851D01*
X137910737Y-49273280D01*
X137982165Y-49344708D01*
X138053594Y-49487565D01*
X138053594Y-49916137D01*
X137982165Y-50058994D01*
X137910737Y-50130422D01*
X137767880Y-50201851D01*
X137482165Y-50201851D01*
X137339308Y-50130422D01*
X139267880Y-50130422D02*
X139125022Y-50201851D01*
X138839308Y-50201851D01*
X138696451Y-50130422D01*
X138625022Y-49987565D01*
X138625022Y-49416137D01*
X138696451Y-49273280D01*
X138839308Y-49201851D01*
X139125022Y-49201851D01*
X139267880Y-49273280D01*
X139339308Y-49416137D01*
X139339308Y-49558994D01*
X138625022Y-49701851D01*
X139982165Y-50201851D02*
X139982165Y-49201851D01*
X139982165Y-49487565D02*
X140053594Y-49344708D01*
X140125022Y-49273280D01*
X140267880Y-49201851D01*
X140410737Y-49201851D01*
X142696451Y-50201851D02*
X142696451Y-49416137D01*
X142625022Y-49273280D01*
X142482165Y-49201851D01*
X142196451Y-49201851D01*
X142053594Y-49273280D01*
X142696451Y-50130422D02*
X142553594Y-50201851D01*
X142196451Y-50201851D01*
X142053594Y-50130422D01*
X141982165Y-49987565D01*
X141982165Y-49844708D01*
X142053594Y-49701851D01*
X142196451Y-49630422D01*
X142553594Y-49630422D01*
X142696451Y-49558994D01*
X144339308Y-49201851D02*
X144910737Y-49201851D01*
X144553594Y-48701851D02*
X144553594Y-49987565D01*
X144625022Y-50130422D01*
X144767880Y-50201851D01*
X144910737Y-50201851D01*
X145410737Y-50201851D02*
X145410737Y-49201851D01*
X145410737Y-49487565D02*
X145482165Y-49344708D01*
X145553594Y-49273280D01*
X145696451Y-49201851D01*
X145839308Y-49201851D01*
X146553594Y-50201851D02*
X146410737Y-50130422D01*
X146339308Y-50058994D01*
X146267880Y-49916137D01*
X146267880Y-49487565D01*
X146339308Y-49344708D01*
X146410737Y-49273280D01*
X146553594Y-49201851D01*
X146767880Y-49201851D01*
X146910737Y-49273280D01*
X146982165Y-49344708D01*
X147053594Y-49487565D01*
X147053594Y-49916137D01*
X146982165Y-50058994D01*
X146910737Y-50130422D01*
X146767880Y-50201851D01*
X146553594Y-50201851D01*
X147553594Y-49201851D02*
X148339308Y-49201851D01*
X147553594Y-50201851D01*
X148339308Y-50201851D01*
X149125022Y-50201851D02*
X148982165Y-50130422D01*
X148910737Y-50058994D01*
X148839308Y-49916137D01*
X148839308Y-49487565D01*
X148910737Y-49344708D01*
X148982165Y-49273280D01*
X149125022Y-49201851D01*
X149339308Y-49201851D01*
X149482165Y-49273280D01*
X149553594Y-49344708D01*
X149625022Y-49487565D01*
X149625022Y-49916137D01*
X149553594Y-50058994D01*
X149482165Y-50130422D01*
X149339308Y-50201851D01*
X149125022Y-50201851D01*
X150196451Y-50130422D02*
X150339308Y-50201851D01*
X150625022Y-50201851D01*
X150767880Y-50130422D01*
X150839308Y-49987565D01*
X150839308Y-49916137D01*
X150767880Y-49773280D01*
X150625022Y-49701851D01*
X150410737Y-49701851D01*
X150267880Y-49630422D01*
X150196451Y-49487565D01*
X150196451Y-49416137D01*
X150267880Y-49273280D01*
X150410737Y-49201851D01*
X150625022Y-49201851D01*
X150767880Y-49273280D01*
X152482165Y-49201851D02*
X152839308Y-50201851D01*
X153196451Y-49201851D01*
X154410737Y-49201851D02*
X154410737Y-50201851D01*
X154053594Y-48630422D02*
X153696451Y-49701851D01*
X154625022Y-49701851D01*
D11*
X121400000Y-86000000D02*
X121400000Y-52500000D01*
X125600000Y-90200000D02*
X121400000Y-86000000D01*
X159000000Y-90200000D02*
X125600000Y-90200000D01*
X163300000Y-85900000D02*
X159000000Y-90200000D01*
X163300000Y-52700000D02*
X163300000Y-85900000D01*
X158900000Y-48300000D02*
X163300000Y-52700000D01*
X125600000Y-48300000D02*
X158900000Y-48300000D01*
X121400000Y-52500000D02*
X125600000Y-48300000D01*
D13*
G04 #@! TO.C,A1*
X136148640Y-53711740D02*
X136148640Y-51171740D01*
X136148640Y-51171740D02*
X133478640Y-51171740D01*
X133478640Y-53711740D02*
X133478640Y-91941740D01*
X133478640Y-48501740D02*
X133478640Y-51171740D01*
X148848640Y-51171740D02*
X151518640Y-51171740D01*
X148848640Y-51171740D02*
X148848640Y-89271740D01*
X148848640Y-89271740D02*
X151518640Y-89271740D01*
X136148640Y-53711740D02*
X133478640Y-53711740D01*
X136148640Y-53711740D02*
X136148640Y-89271740D01*
X136148640Y-89271740D02*
X133478640Y-89271740D01*
X133478640Y-91941740D02*
X151518640Y-91941740D01*
X151518640Y-91941740D02*
X151518640Y-48501740D01*
X151518640Y-48501740D02*
X133478640Y-48501740D01*
G04 #@! TO.C,C1*
X146184264Y-62620200D02*
X144980136Y-62620200D01*
X146184264Y-60800200D02*
X144980136Y-60800200D01*
G04 #@! TO.C,C2*
X143714620Y-54217284D02*
X143714620Y-53013156D01*
X145534620Y-54217284D02*
X145534620Y-53013156D01*
G04 #@! TO.C,C3*
X141676360Y-54247764D02*
X141676360Y-53043636D01*
X139856360Y-54247764D02*
X139856360Y-53043636D01*
G04 #@! TO.C,C4*
X144909780Y-84344224D02*
X144909780Y-83140096D01*
X143089780Y-84344224D02*
X143089780Y-83140096D01*
G04 #@! TO.C,D1*
X123142560Y-60168040D02*
X127202560Y-60168040D01*
X123142560Y-57898040D02*
X123142560Y-60168040D01*
X127202560Y-57898040D02*
X123142560Y-57898040D01*
G04 #@! TO.C,D2*
X127202560Y-66767720D02*
X123142560Y-66767720D01*
X123142560Y-66767720D02*
X123142560Y-69037720D01*
X123142560Y-69037720D02*
X127202560Y-69037720D01*
G04 #@! TO.C,D3*
X127202560Y-75965060D02*
X123142560Y-75965060D01*
X123142560Y-75965060D02*
X123142560Y-78235060D01*
X123142560Y-78235060D02*
X127202560Y-78235060D01*
G04 #@! TO.C,J1*
X131315020Y-51114280D02*
X132645020Y-51114280D01*
X132645020Y-51114280D02*
X132645020Y-52444280D01*
X132645020Y-53714280D02*
X132645020Y-89334280D01*
X129985020Y-89334280D02*
X132645020Y-89334280D01*
X129985020Y-53714280D02*
X129985020Y-89334280D01*
X129985020Y-53714280D02*
X132645020Y-53714280D01*
G04 #@! TO.C,J3*
X152390360Y-53724440D02*
X155050360Y-53724440D01*
X152390360Y-53724440D02*
X152390360Y-89344440D01*
X152390360Y-89344440D02*
X155050360Y-89344440D01*
X155050360Y-53724440D02*
X155050360Y-89344440D01*
X155050360Y-51124440D02*
X155050360Y-52454440D01*
X153720360Y-51124440D02*
X155050360Y-51124440D01*
G04 #@! TO.C,J5*
X159824940Y-77513120D02*
X162484940Y-77513120D01*
X159824940Y-62213120D02*
X159824940Y-77513120D01*
X162484940Y-62213120D02*
X162484940Y-77513120D01*
X159824940Y-62213120D02*
X162484940Y-62213120D01*
X159824940Y-60943120D02*
X159824940Y-59613120D01*
X159824940Y-59613120D02*
X161154940Y-59613120D01*
G04 #@! TO.C,R1*
X158828980Y-64379656D02*
X158828980Y-65583784D01*
X157008980Y-64379656D02*
X157008980Y-65583784D01*
G04 #@! TO.C,R2*
X157067400Y-74054516D02*
X157067400Y-75258644D01*
X158887400Y-74054516D02*
X158887400Y-75258644D01*
G04 #@! TO.C,R3*
X125000496Y-61044040D02*
X126204624Y-61044040D01*
X125000496Y-62864040D02*
X126204624Y-62864040D01*
G04 #@! TO.C,R4*
X125000496Y-71845480D02*
X126204624Y-71845480D01*
X125000496Y-70025480D02*
X126204624Y-70025480D01*
G04 #@! TO.C,R5*
X125000496Y-79448880D02*
X126204624Y-79448880D01*
X125000496Y-81268880D02*
X126204624Y-81268880D01*
G04 #@! TO.C,R6*
X141536836Y-77141380D02*
X142740964Y-77141380D01*
X141536836Y-75321380D02*
X142740964Y-75321380D01*
G04 #@! TO.C,R7*
X141581616Y-74253400D02*
X142785744Y-74253400D01*
X141581616Y-72433400D02*
X142785744Y-72433400D01*
G04 #@! TO.C,R8*
X146242684Y-59109920D02*
X145038556Y-59109920D01*
X146242684Y-57289920D02*
X145038556Y-57289920D01*
G04 #@! TO.C,R10*
X139368680Y-83140096D02*
X139368680Y-84344224D01*
X141188680Y-83140096D02*
X141188680Y-84344224D01*
G04 #@! TO.C,A1*
D14*
X136381774Y-51752426D02*
X136857964Y-51752426D01*
X136286536Y-52038140D02*
X136619869Y-51038140D01*
X136953202Y-52038140D01*
X137810345Y-52038140D02*
X137238917Y-52038140D01*
X137524631Y-52038140D02*
X137524631Y-51038140D01*
X137429393Y-51180998D01*
X137334155Y-51276236D01*
X137238917Y-51323855D01*
G04 #@! TO.C,C1*
X142131313Y-61808262D02*
X142083694Y-61855881D01*
X141940837Y-61903500D01*
X141845599Y-61903500D01*
X141702741Y-61855881D01*
X141607503Y-61760643D01*
X141559884Y-61665405D01*
X141512265Y-61474929D01*
X141512265Y-61332072D01*
X141559884Y-61141596D01*
X141607503Y-61046358D01*
X141702741Y-60951120D01*
X141845599Y-60903500D01*
X141940837Y-60903500D01*
X142083694Y-60951120D01*
X142131313Y-60998739D01*
X143083694Y-61903500D02*
X142512265Y-61903500D01*
X142797980Y-61903500D02*
X142797980Y-60903500D01*
X142702741Y-61046358D01*
X142607503Y-61141596D01*
X142512265Y-61189215D01*
X144024420Y-64126000D02*
X143452992Y-64126000D01*
X143738706Y-64126000D02*
X143738706Y-63126000D01*
X143643468Y-63268858D01*
X143548230Y-63364096D01*
X143452992Y-63411715D01*
X144643468Y-63126000D02*
X144738706Y-63126000D01*
X144833944Y-63173620D01*
X144881563Y-63221239D01*
X144929182Y-63316477D01*
X144976801Y-63506953D01*
X144976801Y-63745048D01*
X144929182Y-63935524D01*
X144881563Y-64030762D01*
X144833944Y-64078381D01*
X144738706Y-64126000D01*
X144643468Y-64126000D01*
X144548230Y-64078381D01*
X144500611Y-64030762D01*
X144452992Y-63935524D01*
X144405373Y-63745048D01*
X144405373Y-63506953D01*
X144452992Y-63316477D01*
X144500611Y-63221239D01*
X144548230Y-63173620D01*
X144643468Y-63126000D01*
X145595849Y-63126000D02*
X145691087Y-63126000D01*
X145786325Y-63173620D01*
X145833944Y-63221239D01*
X145881563Y-63316477D01*
X145929182Y-63506953D01*
X145929182Y-63745048D01*
X145881563Y-63935524D01*
X145833944Y-64030762D01*
X145786325Y-64078381D01*
X145691087Y-64126000D01*
X145595849Y-64126000D01*
X145500611Y-64078381D01*
X145452992Y-64030762D01*
X145405373Y-63935524D01*
X145357754Y-63745048D01*
X145357754Y-63506953D01*
X145405373Y-63316477D01*
X145452992Y-63221239D01*
X145500611Y-63173620D01*
X145595849Y-63126000D01*
X146357754Y-63459334D02*
X146357754Y-64126000D01*
X146357754Y-63554572D02*
X146405373Y-63506953D01*
X146500611Y-63459334D01*
X146643468Y-63459334D01*
X146738706Y-63506953D01*
X146786325Y-63602191D01*
X146786325Y-64126000D01*
X147595849Y-63602191D02*
X147262516Y-63602191D01*
X147262516Y-64126000D02*
X147262516Y-63126000D01*
X147738706Y-63126000D01*
G04 #@! TO.C,C2*
X148392982Y-53799666D02*
X148440601Y-53847285D01*
X148488220Y-53990142D01*
X148488220Y-54085380D01*
X148440601Y-54228238D01*
X148345363Y-54323476D01*
X148250125Y-54371095D01*
X148059649Y-54418714D01*
X147916792Y-54418714D01*
X147726316Y-54371095D01*
X147631078Y-54323476D01*
X147535840Y-54228238D01*
X147488220Y-54085380D01*
X147488220Y-53990142D01*
X147535840Y-53847285D01*
X147583459Y-53799666D01*
X147583459Y-53418714D02*
X147535840Y-53371095D01*
X147488220Y-53275857D01*
X147488220Y-53037761D01*
X147535840Y-52942523D01*
X147583459Y-52894904D01*
X147678697Y-52847285D01*
X147773935Y-52847285D01*
X147916792Y-52894904D01*
X148488220Y-53466333D01*
X148488220Y-52847285D01*
X147147100Y-55114579D02*
X147147100Y-55686007D01*
X147147100Y-55400293D02*
X146147100Y-55400293D01*
X146289958Y-55495531D01*
X146385196Y-55590769D01*
X146432815Y-55686007D01*
X146147100Y-54495531D02*
X146147100Y-54400293D01*
X146194720Y-54305055D01*
X146242339Y-54257436D01*
X146337577Y-54209817D01*
X146528053Y-54162198D01*
X146766148Y-54162198D01*
X146956624Y-54209817D01*
X147051862Y-54257436D01*
X147099481Y-54305055D01*
X147147100Y-54400293D01*
X147147100Y-54495531D01*
X147099481Y-54590769D01*
X147051862Y-54638388D01*
X146956624Y-54686007D01*
X146766148Y-54733626D01*
X146528053Y-54733626D01*
X146337577Y-54686007D01*
X146242339Y-54638388D01*
X146194720Y-54590769D01*
X146147100Y-54495531D01*
X146147100Y-53543150D02*
X146147100Y-53447912D01*
X146194720Y-53352674D01*
X146242339Y-53305055D01*
X146337577Y-53257436D01*
X146528053Y-53209817D01*
X146766148Y-53209817D01*
X146956624Y-53257436D01*
X147051862Y-53305055D01*
X147099481Y-53352674D01*
X147147100Y-53447912D01*
X147147100Y-53543150D01*
X147099481Y-53638388D01*
X147051862Y-53686007D01*
X146956624Y-53733626D01*
X146766148Y-53781245D01*
X146528053Y-53781245D01*
X146337577Y-53733626D01*
X146242339Y-53686007D01*
X146194720Y-53638388D01*
X146147100Y-53543150D01*
X146480434Y-52781245D02*
X147147100Y-52781245D01*
X146575672Y-52781245D02*
X146528053Y-52733626D01*
X146480434Y-52638388D01*
X146480434Y-52495531D01*
X146528053Y-52400293D01*
X146623291Y-52352674D01*
X147147100Y-52352674D01*
X146623291Y-51543150D02*
X146623291Y-51876483D01*
X147147100Y-51876483D02*
X146147100Y-51876483D01*
X146147100Y-51400293D01*
G04 #@! TO.C,C3*
X139198182Y-55377006D02*
X139245801Y-55424625D01*
X139293420Y-55567482D01*
X139293420Y-55662720D01*
X139245801Y-55805578D01*
X139150563Y-55900816D01*
X139055325Y-55948435D01*
X138864849Y-55996054D01*
X138721992Y-55996054D01*
X138531516Y-55948435D01*
X138436278Y-55900816D01*
X138341040Y-55805578D01*
X138293420Y-55662720D01*
X138293420Y-55567482D01*
X138341040Y-55424625D01*
X138388659Y-55377006D01*
X138293420Y-55043673D02*
X138293420Y-54424625D01*
X138674373Y-54757959D01*
X138674373Y-54615101D01*
X138721992Y-54519863D01*
X138769611Y-54472244D01*
X138864849Y-54424625D01*
X139102944Y-54424625D01*
X139198182Y-54472244D01*
X139245801Y-54519863D01*
X139293420Y-54615101D01*
X139293420Y-54900816D01*
X139245801Y-54996054D01*
X139198182Y-55043673D01*
X139260400Y-52953158D02*
X139260400Y-53524586D01*
X139260400Y-53238872D02*
X138260400Y-53238872D01*
X138403258Y-53334110D01*
X138498496Y-53429348D01*
X138546115Y-53524586D01*
X138593734Y-52096015D02*
X139260400Y-52096015D01*
X138593734Y-52524586D02*
X139117543Y-52524586D01*
X139212781Y-52476967D01*
X139260400Y-52381729D01*
X139260400Y-52238872D01*
X139212781Y-52143634D01*
X139165162Y-52096015D01*
X138736591Y-51286491D02*
X138736591Y-51619824D01*
X139260400Y-51619824D02*
X138260400Y-51619824D01*
X138260400Y-51143634D01*
G04 #@! TO.C,C4*
X144392482Y-88153166D02*
X144440101Y-88200785D01*
X144487720Y-88343642D01*
X144487720Y-88438880D01*
X144440101Y-88581738D01*
X144344863Y-88676976D01*
X144249625Y-88724595D01*
X144059149Y-88772214D01*
X143916292Y-88772214D01*
X143725816Y-88724595D01*
X143630578Y-88676976D01*
X143535340Y-88581738D01*
X143487720Y-88438880D01*
X143487720Y-88343642D01*
X143535340Y-88200785D01*
X143582959Y-88153166D01*
X143821054Y-87296023D02*
X144487720Y-87296023D01*
X143440101Y-87534119D02*
X144154387Y-87772214D01*
X144154387Y-87153166D01*
X146575600Y-82889479D02*
X146575600Y-83460907D01*
X146575600Y-83175193D02*
X145575600Y-83175193D01*
X145718458Y-83270431D01*
X145813696Y-83365669D01*
X145861315Y-83460907D01*
X145575600Y-82270431D02*
X145575600Y-82175193D01*
X145623220Y-82079955D01*
X145670839Y-82032336D01*
X145766077Y-81984717D01*
X145956553Y-81937098D01*
X146194648Y-81937098D01*
X146385124Y-81984717D01*
X146480362Y-82032336D01*
X146527981Y-82079955D01*
X146575600Y-82175193D01*
X146575600Y-82270431D01*
X146527981Y-82365669D01*
X146480362Y-82413288D01*
X146385124Y-82460907D01*
X146194648Y-82508526D01*
X145956553Y-82508526D01*
X145766077Y-82460907D01*
X145670839Y-82413288D01*
X145623220Y-82365669D01*
X145575600Y-82270431D01*
X145575600Y-81318050D02*
X145575600Y-81222812D01*
X145623220Y-81127574D01*
X145670839Y-81079955D01*
X145766077Y-81032336D01*
X145956553Y-80984717D01*
X146194648Y-80984717D01*
X146385124Y-81032336D01*
X146480362Y-81079955D01*
X146527981Y-81127574D01*
X146575600Y-81222812D01*
X146575600Y-81318050D01*
X146527981Y-81413288D01*
X146480362Y-81460907D01*
X146385124Y-81508526D01*
X146194648Y-81556145D01*
X145956553Y-81556145D01*
X145766077Y-81508526D01*
X145670839Y-81460907D01*
X145623220Y-81413288D01*
X145575600Y-81318050D01*
X145908934Y-80556145D02*
X146575600Y-80556145D01*
X146004172Y-80556145D02*
X145956553Y-80508526D01*
X145908934Y-80413288D01*
X145908934Y-80270431D01*
X145956553Y-80175193D01*
X146051791Y-80127574D01*
X146575600Y-80127574D01*
X146051791Y-79318050D02*
X146051791Y-79651383D01*
X146575600Y-79651383D02*
X145575600Y-79651383D01*
X145575600Y-79175193D01*
G04 #@! TO.C,D1*
X124968604Y-57527080D02*
X124968604Y-56527080D01*
X125206700Y-56527080D01*
X125349557Y-56574700D01*
X125444795Y-56669938D01*
X125492414Y-56765176D01*
X125540033Y-56955652D01*
X125540033Y-57098509D01*
X125492414Y-57288985D01*
X125444795Y-57384223D01*
X125349557Y-57479461D01*
X125206700Y-57527080D01*
X124968604Y-57527080D01*
X126492414Y-57527080D02*
X125920985Y-57527080D01*
X126206700Y-57527080D02*
X126206700Y-56527080D01*
X126111461Y-56669938D01*
X126016223Y-56765176D01*
X125920985Y-56812795D01*
X122697060Y-62089134D02*
X121697060Y-62089134D01*
X122411346Y-61755800D01*
X121697060Y-61422467D01*
X122697060Y-61422467D01*
X122649441Y-60993896D02*
X122697060Y-60851039D01*
X122697060Y-60612943D01*
X122649441Y-60517705D01*
X122601822Y-60470086D01*
X122506584Y-60422467D01*
X122411346Y-60422467D01*
X122316108Y-60470086D01*
X122268489Y-60517705D01*
X122220870Y-60612943D01*
X122173251Y-60803420D01*
X122125632Y-60898658D01*
X122078013Y-60946277D01*
X121982775Y-60993896D01*
X121887537Y-60993896D01*
X121792299Y-60946277D01*
X121744680Y-60898658D01*
X121697060Y-60803420D01*
X121697060Y-60565324D01*
X121744680Y-60422467D01*
X122697060Y-59470086D02*
X122697060Y-60041515D01*
X122697060Y-59755800D02*
X121697060Y-59755800D01*
X121839918Y-59851039D01*
X121935156Y-59946277D01*
X121982775Y-60041515D01*
G04 #@! TO.C,D2*
X124905104Y-66417080D02*
X124905104Y-65417080D01*
X125143200Y-65417080D01*
X125286057Y-65464700D01*
X125381295Y-65559938D01*
X125428914Y-65655176D01*
X125476533Y-65845652D01*
X125476533Y-65988509D01*
X125428914Y-66178985D01*
X125381295Y-66274223D01*
X125286057Y-66369461D01*
X125143200Y-66417080D01*
X124905104Y-66417080D01*
X125857485Y-65512319D02*
X125905104Y-65464700D01*
X126000342Y-65417080D01*
X126238438Y-65417080D01*
X126333676Y-65464700D01*
X126381295Y-65512319D01*
X126428914Y-65607557D01*
X126428914Y-65702795D01*
X126381295Y-65845652D01*
X125809866Y-66417080D01*
X126428914Y-66417080D01*
X122697060Y-70778474D02*
X121697060Y-70778474D01*
X122411346Y-70445140D01*
X121697060Y-70111807D01*
X122697060Y-70111807D01*
X122649441Y-69683236D02*
X122697060Y-69540379D01*
X122697060Y-69302283D01*
X122649441Y-69207045D01*
X122601822Y-69159426D01*
X122506584Y-69111807D01*
X122411346Y-69111807D01*
X122316108Y-69159426D01*
X122268489Y-69207045D01*
X122220870Y-69302283D01*
X122173251Y-69492760D01*
X122125632Y-69587998D01*
X122078013Y-69635617D01*
X121982775Y-69683236D01*
X121887537Y-69683236D01*
X121792299Y-69635617D01*
X121744680Y-69587998D01*
X121697060Y-69492760D01*
X121697060Y-69254664D01*
X121744680Y-69111807D01*
X121792299Y-68730855D02*
X121744680Y-68683236D01*
X121697060Y-68587998D01*
X121697060Y-68349902D01*
X121744680Y-68254664D01*
X121792299Y-68207045D01*
X121887537Y-68159426D01*
X121982775Y-68159426D01*
X122125632Y-68207045D01*
X122697060Y-68778474D01*
X122697060Y-68159426D01*
G04 #@! TO.C,D3*
X125032104Y-75548380D02*
X125032104Y-74548380D01*
X125270200Y-74548380D01*
X125413057Y-74596000D01*
X125508295Y-74691238D01*
X125555914Y-74786476D01*
X125603533Y-74976952D01*
X125603533Y-75119809D01*
X125555914Y-75310285D01*
X125508295Y-75405523D01*
X125413057Y-75500761D01*
X125270200Y-75548380D01*
X125032104Y-75548380D01*
X125936866Y-74548380D02*
X126555914Y-74548380D01*
X126222580Y-74929333D01*
X126365438Y-74929333D01*
X126460676Y-74976952D01*
X126508295Y-75024571D01*
X126555914Y-75119809D01*
X126555914Y-75357904D01*
X126508295Y-75453142D01*
X126460676Y-75500761D01*
X126365438Y-75548380D01*
X126079723Y-75548380D01*
X125984485Y-75500761D01*
X125936866Y-75453142D01*
X122697060Y-80618434D02*
X121697060Y-80618434D01*
X122411346Y-80285100D01*
X121697060Y-79951767D01*
X122697060Y-79951767D01*
X122649441Y-79523196D02*
X122697060Y-79380339D01*
X122697060Y-79142243D01*
X122649441Y-79047005D01*
X122601822Y-78999386D01*
X122506584Y-78951767D01*
X122411346Y-78951767D01*
X122316108Y-78999386D01*
X122268489Y-79047005D01*
X122220870Y-79142243D01*
X122173251Y-79332720D01*
X122125632Y-79427958D01*
X122078013Y-79475577D01*
X121982775Y-79523196D01*
X121887537Y-79523196D01*
X121792299Y-79475577D01*
X121744680Y-79427958D01*
X121697060Y-79332720D01*
X121697060Y-79094624D01*
X121744680Y-78951767D01*
X121697060Y-78618434D02*
X121697060Y-77999386D01*
X122078013Y-78332720D01*
X122078013Y-78189862D01*
X122125632Y-78094624D01*
X122173251Y-78047005D01*
X122268489Y-77999386D01*
X122506584Y-77999386D01*
X122601822Y-78047005D01*
X122649441Y-78094624D01*
X122697060Y-78189862D01*
X122697060Y-78475577D01*
X122649441Y-78570815D01*
X122601822Y-78618434D01*
G04 #@! TO.C,J1*
X128017506Y-49953560D02*
X128017506Y-50667846D01*
X127969887Y-50810703D01*
X127874649Y-50905941D01*
X127731792Y-50953560D01*
X127636554Y-50953560D01*
X129017506Y-50953560D02*
X128446078Y-50953560D01*
X128731792Y-50953560D02*
X128731792Y-49953560D01*
X128636554Y-50096418D01*
X128541316Y-50191656D01*
X128446078Y-50239275D01*
G04 #@! TO.C,J3*
X156374066Y-49806240D02*
X156374066Y-50520526D01*
X156326447Y-50663383D01*
X156231209Y-50758621D01*
X156088352Y-50806240D01*
X155993114Y-50806240D01*
X156755019Y-49806240D02*
X157374066Y-49806240D01*
X157040733Y-50187193D01*
X157183590Y-50187193D01*
X157278828Y-50234812D01*
X157326447Y-50282431D01*
X157374066Y-50377669D01*
X157374066Y-50615764D01*
X157326447Y-50711002D01*
X157278828Y-50758621D01*
X157183590Y-50806240D01*
X156897876Y-50806240D01*
X156802638Y-50758621D01*
X156755019Y-50711002D01*
G04 #@! TO.C,J5*
X160821606Y-58065500D02*
X160821606Y-58779786D01*
X160773987Y-58922643D01*
X160678749Y-59017881D01*
X160535892Y-59065500D01*
X160440654Y-59065500D01*
X161773987Y-58065500D02*
X161297797Y-58065500D01*
X161250178Y-58541691D01*
X161297797Y-58494072D01*
X161393035Y-58446453D01*
X161631130Y-58446453D01*
X161726368Y-58494072D01*
X161773987Y-58541691D01*
X161821606Y-58636929D01*
X161821606Y-58875024D01*
X161773987Y-58970262D01*
X161726368Y-59017881D01*
X161631130Y-59065500D01*
X161393035Y-59065500D01*
X161297797Y-59017881D01*
X161250178Y-58970262D01*
G04 #@! TO.C,R1*
X158307860Y-61620326D02*
X157831670Y-61953660D01*
X158307860Y-62191755D02*
X157307860Y-62191755D01*
X157307860Y-61810802D01*
X157355480Y-61715564D01*
X157403099Y-61667945D01*
X157498337Y-61620326D01*
X157641194Y-61620326D01*
X157736432Y-61667945D01*
X157784051Y-61715564D01*
X157831670Y-61810802D01*
X157831670Y-62191755D01*
X158307860Y-60667945D02*
X158307860Y-61239374D01*
X158307860Y-60953660D02*
X157307860Y-60953660D01*
X157450718Y-61048898D01*
X157545956Y-61144136D01*
X157593575Y-61239374D01*
X155884694Y-65767434D02*
X156551360Y-65767434D01*
X155503741Y-66005529D02*
X156218027Y-66243624D01*
X156218027Y-65624577D01*
X156551360Y-65243624D02*
X155551360Y-65243624D01*
X156551360Y-64672196D02*
X155979932Y-65100767D01*
X155551360Y-64672196D02*
X156122789Y-65243624D01*
X155551360Y-64338862D02*
X155551360Y-63672196D01*
X156551360Y-64100767D01*
G04 #@! TO.C,R2*
X158409460Y-78590066D02*
X157933270Y-78923400D01*
X158409460Y-79161495D02*
X157409460Y-79161495D01*
X157409460Y-78780542D01*
X157457080Y-78685304D01*
X157504699Y-78637685D01*
X157599937Y-78590066D01*
X157742794Y-78590066D01*
X157838032Y-78637685D01*
X157885651Y-78685304D01*
X157933270Y-78780542D01*
X157933270Y-79161495D01*
X157504699Y-78209114D02*
X157457080Y-78161495D01*
X157409460Y-78066257D01*
X157409460Y-77828161D01*
X157457080Y-77732923D01*
X157504699Y-77685304D01*
X157599937Y-77637685D01*
X157695175Y-77637685D01*
X157838032Y-77685304D01*
X158409460Y-78256733D01*
X158409460Y-77637685D01*
X155943114Y-75442294D02*
X156609780Y-75442294D01*
X155562161Y-75680389D02*
X156276447Y-75918484D01*
X156276447Y-75299437D01*
X156609780Y-74918484D02*
X155609780Y-74918484D01*
X156609780Y-74347056D02*
X156038352Y-74775627D01*
X155609780Y-74347056D02*
X156181209Y-74918484D01*
X155609780Y-74013722D02*
X155609780Y-73347056D01*
X156609780Y-73775627D01*
G04 #@! TO.C,R3*
X129318840Y-61940366D02*
X128842650Y-62273700D01*
X129318840Y-62511795D02*
X128318840Y-62511795D01*
X128318840Y-62130842D01*
X128366460Y-62035604D01*
X128414079Y-61987985D01*
X128509317Y-61940366D01*
X128652174Y-61940366D01*
X128747412Y-61987985D01*
X128795031Y-62035604D01*
X128842650Y-62130842D01*
X128842650Y-62511795D01*
X128318840Y-61607033D02*
X128318840Y-60987985D01*
X128699793Y-61321319D01*
X128699793Y-61178461D01*
X128747412Y-61083223D01*
X128795031Y-61035604D01*
X128890269Y-60987985D01*
X129128364Y-60987985D01*
X129223602Y-61035604D01*
X129271221Y-61083223D01*
X129318840Y-61178461D01*
X129318840Y-61464176D01*
X129271221Y-61559414D01*
X129223602Y-61607033D01*
X125388274Y-64226420D02*
X124816845Y-64226420D01*
X125102560Y-64226420D02*
X125102560Y-63226420D01*
X125007321Y-63369278D01*
X124912083Y-63464516D01*
X124816845Y-63512135D01*
X125816845Y-64226420D02*
X125816845Y-63226420D01*
X126388274Y-64226420D02*
X125959702Y-63654992D01*
X126388274Y-63226420D02*
X125816845Y-63797849D01*
G04 #@! TO.C,R4*
X129318840Y-70995466D02*
X128842650Y-71328800D01*
X129318840Y-71566895D02*
X128318840Y-71566895D01*
X128318840Y-71185942D01*
X128366460Y-71090704D01*
X128414079Y-71043085D01*
X128509317Y-70995466D01*
X128652174Y-70995466D01*
X128747412Y-71043085D01*
X128795031Y-71090704D01*
X128842650Y-71185942D01*
X128842650Y-71566895D01*
X128652174Y-70138323D02*
X129318840Y-70138323D01*
X128271221Y-70376419D02*
X128985507Y-70614514D01*
X128985507Y-69995466D01*
X125388274Y-73207860D02*
X124816845Y-73207860D01*
X125102560Y-73207860D02*
X125102560Y-72207860D01*
X125007321Y-72350718D01*
X124912083Y-72445956D01*
X124816845Y-72493575D01*
X125816845Y-73207860D02*
X125816845Y-72207860D01*
X126388274Y-73207860D02*
X125959702Y-72636432D01*
X126388274Y-72207860D02*
X125816845Y-72779289D01*
G04 #@! TO.C,R5*
X129318840Y-80525546D02*
X128842650Y-80858880D01*
X129318840Y-81096975D02*
X128318840Y-81096975D01*
X128318840Y-80716022D01*
X128366460Y-80620784D01*
X128414079Y-80573165D01*
X128509317Y-80525546D01*
X128652174Y-80525546D01*
X128747412Y-80573165D01*
X128795031Y-80620784D01*
X128842650Y-80716022D01*
X128842650Y-81096975D01*
X128318840Y-79620784D02*
X128318840Y-80096975D01*
X128795031Y-80144594D01*
X128747412Y-80096975D01*
X128699793Y-80001737D01*
X128699793Y-79763641D01*
X128747412Y-79668403D01*
X128795031Y-79620784D01*
X128890269Y-79573165D01*
X129128364Y-79573165D01*
X129223602Y-79620784D01*
X129271221Y-79668403D01*
X129318840Y-79763641D01*
X129318840Y-80001737D01*
X129271221Y-80096975D01*
X129223602Y-80144594D01*
X125649174Y-82828020D02*
X125077745Y-82828020D01*
X125363460Y-82828020D02*
X125363460Y-81828020D01*
X125268221Y-81970878D01*
X125172983Y-82066116D01*
X125077745Y-82113735D01*
X126077745Y-82828020D02*
X126077745Y-81828020D01*
X126649174Y-82828020D02*
X126220602Y-82256592D01*
X126649174Y-81828020D02*
X126077745Y-82399449D01*
G04 #@! TO.C,R6*
X137851413Y-76721860D02*
X137518080Y-76245670D01*
X137279984Y-76721860D02*
X137279984Y-75721860D01*
X137660937Y-75721860D01*
X137756175Y-75769480D01*
X137803794Y-75817099D01*
X137851413Y-75912337D01*
X137851413Y-76055194D01*
X137803794Y-76150432D01*
X137756175Y-76198051D01*
X137660937Y-76245670D01*
X137279984Y-76245670D01*
X138708556Y-75721860D02*
X138518080Y-75721860D01*
X138422841Y-75769480D01*
X138375222Y-75817099D01*
X138279984Y-75959956D01*
X138232365Y-76150432D01*
X138232365Y-76531384D01*
X138279984Y-76626622D01*
X138327603Y-76674241D01*
X138422841Y-76721860D01*
X138613318Y-76721860D01*
X138708556Y-76674241D01*
X138756175Y-76626622D01*
X138803794Y-76531384D01*
X138803794Y-76293289D01*
X138756175Y-76198051D01*
X138708556Y-76150432D01*
X138613318Y-76102813D01*
X138422841Y-76102813D01*
X138327603Y-76150432D01*
X138279984Y-76198051D01*
X138232365Y-76293289D01*
X145535625Y-76116154D02*
X145535625Y-76782820D01*
X145297530Y-75735201D02*
X145059435Y-76449487D01*
X145678482Y-76449487D01*
X146059435Y-76782820D02*
X146059435Y-75782820D01*
X146630863Y-76782820D02*
X146202292Y-76211392D01*
X146630863Y-75782820D02*
X146059435Y-76354249D01*
X146964197Y-75782820D02*
X147630863Y-75782820D01*
X147202292Y-76782820D01*
G04 #@! TO.C,R7*
X138059693Y-73973580D02*
X137726360Y-73497390D01*
X137488264Y-73973580D02*
X137488264Y-72973580D01*
X137869217Y-72973580D01*
X137964455Y-73021200D01*
X138012074Y-73068819D01*
X138059693Y-73164057D01*
X138059693Y-73306914D01*
X138012074Y-73402152D01*
X137964455Y-73449771D01*
X137869217Y-73497390D01*
X137488264Y-73497390D01*
X138393026Y-72973580D02*
X139059693Y-72973580D01*
X138631121Y-73973580D01*
X145520385Y-73121494D02*
X145520385Y-73788160D01*
X145282290Y-72740541D02*
X145044195Y-73454827D01*
X145663242Y-73454827D01*
X146044195Y-73788160D02*
X146044195Y-72788160D01*
X146615623Y-73788160D02*
X146187052Y-73216732D01*
X146615623Y-72788160D02*
X146044195Y-73359589D01*
X146948957Y-72788160D02*
X147615623Y-72788160D01*
X147187052Y-73788160D01*
G04 #@! TO.C,R8*
X141862073Y-58548160D02*
X141528740Y-58071970D01*
X141290644Y-58548160D02*
X141290644Y-57548160D01*
X141671597Y-57548160D01*
X141766835Y-57595780D01*
X141814454Y-57643399D01*
X141862073Y-57738637D01*
X141862073Y-57881494D01*
X141814454Y-57976732D01*
X141766835Y-58024351D01*
X141671597Y-58071970D01*
X141290644Y-58071970D01*
X142433501Y-57976732D02*
X142338263Y-57929113D01*
X142290644Y-57881494D01*
X142243025Y-57786256D01*
X142243025Y-57738637D01*
X142290644Y-57643399D01*
X142338263Y-57595780D01*
X142433501Y-57548160D01*
X142623978Y-57548160D01*
X142719216Y-57595780D01*
X142766835Y-57643399D01*
X142814454Y-57738637D01*
X142814454Y-57786256D01*
X142766835Y-57881494D01*
X142719216Y-57929113D01*
X142623978Y-57976732D01*
X142433501Y-57976732D01*
X142338263Y-58024351D01*
X142290644Y-58071970D01*
X142243025Y-58167208D01*
X142243025Y-58357684D01*
X142290644Y-58452922D01*
X142338263Y-58500541D01*
X142433501Y-58548160D01*
X142623978Y-58548160D01*
X142719216Y-58500541D01*
X142766835Y-58452922D01*
X142814454Y-58357684D01*
X142814454Y-58167208D01*
X142766835Y-58071970D01*
X142719216Y-58024351D01*
X142623978Y-57976732D01*
X145472125Y-56339714D02*
X145472125Y-57006380D01*
X145234030Y-55958761D02*
X144995935Y-56673047D01*
X145614982Y-56673047D01*
X145995935Y-57006380D02*
X145995935Y-56006380D01*
X146567363Y-57006380D02*
X146138792Y-56434952D01*
X146567363Y-56006380D02*
X145995935Y-56577809D01*
X146900697Y-56006380D02*
X147567363Y-56006380D01*
X147138792Y-57006380D01*
G04 #@! TO.C,R10*
X140764080Y-88662377D02*
X140287890Y-88995710D01*
X140764080Y-89233805D02*
X139764080Y-89233805D01*
X139764080Y-88852853D01*
X139811700Y-88757615D01*
X139859319Y-88709996D01*
X139954557Y-88662377D01*
X140097414Y-88662377D01*
X140192652Y-88709996D01*
X140240271Y-88757615D01*
X140287890Y-88852853D01*
X140287890Y-89233805D01*
X140764080Y-87709996D02*
X140764080Y-88281424D01*
X140764080Y-87995710D02*
X139764080Y-87995710D01*
X139906938Y-88090948D01*
X140002176Y-88186186D01*
X140049795Y-88281424D01*
X139764080Y-87090948D02*
X139764080Y-86995710D01*
X139811700Y-86900472D01*
X139859319Y-86852853D01*
X139954557Y-86805234D01*
X140145033Y-86757615D01*
X140383128Y-86757615D01*
X140573604Y-86805234D01*
X140668842Y-86852853D01*
X140716461Y-86900472D01*
X140764080Y-86995710D01*
X140764080Y-87090948D01*
X140716461Y-87186186D01*
X140668842Y-87233805D01*
X140573604Y-87281424D01*
X140383128Y-87329043D01*
X140145033Y-87329043D01*
X139954557Y-87281424D01*
X139859319Y-87233805D01*
X139811700Y-87186186D01*
X139764080Y-87090948D01*
X137979054Y-83057214D02*
X138645720Y-83057214D01*
X137598101Y-83295309D02*
X138312387Y-83533404D01*
X138312387Y-82914357D01*
X138645720Y-82533404D02*
X137645720Y-82533404D01*
X138645720Y-81961976D02*
X138074292Y-82390547D01*
X137645720Y-81961976D02*
X138217149Y-82533404D01*
X137645720Y-81628642D02*
X137645720Y-80961976D01*
X138645720Y-81390547D01*
G04 #@! TD*
M02*
