G04 #@! TF.GenerationSoftware,KiCad,Pcbnew,5.0.2-bee76a0~70~ubuntu18.04.1*
G04 #@! TF.CreationDate,2019-01-29T19:41:14+01:00*
G04 #@! TF.ProjectId,ustepper_41_nano,75737465-7070-4657-925f-34315f6e616e,rev?*
G04 #@! TF.SameCoordinates,Original*
G04 #@! TF.FileFunction,Legend,Bot*
G04 #@! TF.FilePolarity,Positive*
%FSLAX46Y46*%
G04 Gerber Fmt 4.6, Leading zero omitted, Abs format (unit mm)*
G04 Created by KiCad (PCBNEW 5.0.2-bee76a0~70~ubuntu18.04.1) date mar 29 ene 2019 19:41:14 CET*
%MOMM*%
%LPD*%
G01*
G04 APERTURE LIST*
%ADD10C,0.200000*%
%ADD11C,0.150000*%
%ADD12C,0.120000*%
G04 APERTURE END LIST*
D10*
X137598671Y-71954280D02*
X137503433Y-71906661D01*
X137455814Y-71859042D01*
X137408195Y-71763804D01*
X137408195Y-71478090D01*
X137455814Y-71382852D01*
X137503433Y-71335233D01*
X137598671Y-71287614D01*
X137741528Y-71287614D01*
X137836766Y-71335233D01*
X137884385Y-71382852D01*
X137932004Y-71478090D01*
X137932004Y-71763804D01*
X137884385Y-71859042D01*
X137836766Y-71906661D01*
X137741528Y-71954280D01*
X137598671Y-71954280D01*
X121400000Y-86000000D02*
X121400000Y-52500000D01*
X125600000Y-90200000D02*
X121400000Y-86000000D01*
X159000000Y-90200000D02*
X125600000Y-90200000D01*
X163300000Y-85900000D02*
X159000000Y-90200000D01*
X163300000Y-52700000D02*
X163300000Y-85900000D01*
X158900000Y-48300000D02*
X163300000Y-52700000D01*
X125600000Y-48300000D02*
X158900000Y-48300000D01*
X121400000Y-52500000D02*
X125600000Y-48300000D01*
D11*
G04 #@! TO.C,U1*
X140125000Y-71388920D02*
X140125000Y-71338920D01*
X144275000Y-71388920D02*
X144275000Y-71243920D01*
X144275000Y-66238920D02*
X144275000Y-66383920D01*
X140125000Y-66238920D02*
X140125000Y-66383920D01*
X140125000Y-71388920D02*
X144275000Y-71388920D01*
X140125000Y-66238920D02*
X144275000Y-66238920D01*
X140125000Y-71338920D02*
X138725000Y-71338920D01*
D12*
G04 #@! TO.C,TH1*
X139043560Y-59629856D02*
X139043560Y-60833984D01*
X140863560Y-59629856D02*
X140863560Y-60833984D01*
G04 #@! TO.C,U1*
D11*
X142961904Y-71766300D02*
X142961904Y-72575824D01*
X142914285Y-72671062D01*
X142866666Y-72718681D01*
X142771428Y-72766300D01*
X142580952Y-72766300D01*
X142485714Y-72718681D01*
X142438095Y-72671062D01*
X142390476Y-72575824D01*
X142390476Y-71766300D01*
X141390476Y-72766300D02*
X141961904Y-72766300D01*
X141676190Y-72766300D02*
X141676190Y-71766300D01*
X141771428Y-71909158D01*
X141866666Y-72004396D01*
X141961904Y-72052015D01*
X147247619Y-65480586D02*
X146771428Y-65480586D01*
X147342857Y-65766300D02*
X147009523Y-64766300D01*
X146676190Y-65766300D01*
X146390476Y-65718681D02*
X146247619Y-65766300D01*
X146009523Y-65766300D01*
X145914285Y-65718681D01*
X145866666Y-65671062D01*
X145819047Y-65575824D01*
X145819047Y-65480586D01*
X145866666Y-65385348D01*
X145914285Y-65337729D01*
X146009523Y-65290110D01*
X146200000Y-65242491D01*
X146295238Y-65194872D01*
X146342857Y-65147253D01*
X146390476Y-65052015D01*
X146390476Y-64956777D01*
X146342857Y-64861539D01*
X146295238Y-64813920D01*
X146200000Y-64766300D01*
X145961904Y-64766300D01*
X145819047Y-64813920D01*
X144914285Y-64766300D02*
X145390476Y-64766300D01*
X145438095Y-65242491D01*
X145390476Y-65194872D01*
X145295238Y-65147253D01*
X145057142Y-65147253D01*
X144961904Y-65194872D01*
X144914285Y-65242491D01*
X144866666Y-65337729D01*
X144866666Y-65575824D01*
X144914285Y-65671062D01*
X144961904Y-65718681D01*
X145057142Y-65766300D01*
X145295238Y-65766300D01*
X145390476Y-65718681D01*
X145438095Y-65671062D01*
X144009523Y-64766300D02*
X144200000Y-64766300D01*
X144295238Y-64813920D01*
X144342857Y-64861539D01*
X144438095Y-65004396D01*
X144485714Y-65194872D01*
X144485714Y-65575824D01*
X144438095Y-65671062D01*
X144390476Y-65718681D01*
X144295238Y-65766300D01*
X144104761Y-65766300D01*
X144009523Y-65718681D01*
X143961904Y-65671062D01*
X143914285Y-65575824D01*
X143914285Y-65337729D01*
X143961904Y-65242491D01*
X144009523Y-65194872D01*
X144104761Y-65147253D01*
X144295238Y-65147253D01*
X144390476Y-65194872D01*
X144438095Y-65242491D01*
X144485714Y-65337729D01*
X143295238Y-64766300D02*
X143200000Y-64766300D01*
X143104761Y-64813920D01*
X143057142Y-64861539D01*
X143009523Y-64956777D01*
X142961904Y-65147253D01*
X142961904Y-65385348D01*
X143009523Y-65575824D01*
X143057142Y-65671062D01*
X143104761Y-65718681D01*
X143200000Y-65766300D01*
X143295238Y-65766300D01*
X143390476Y-65718681D01*
X143438095Y-65671062D01*
X143485714Y-65575824D01*
X143533333Y-65385348D01*
X143533333Y-65147253D01*
X143485714Y-64956777D01*
X143438095Y-64861539D01*
X143390476Y-64813920D01*
X143295238Y-64766300D01*
X142342857Y-64766300D02*
X142247619Y-64766300D01*
X142152380Y-64813920D01*
X142104761Y-64861539D01*
X142057142Y-64956777D01*
X142009523Y-65147253D01*
X142009523Y-65385348D01*
X142057142Y-65575824D01*
X142104761Y-65671062D01*
X142152380Y-65718681D01*
X142247619Y-65766300D01*
X142342857Y-65766300D01*
X142438095Y-65718681D01*
X142485714Y-65671062D01*
X142533333Y-65575824D01*
X142580952Y-65385348D01*
X142580952Y-65147253D01*
X142533333Y-64956777D01*
X142485714Y-64861539D01*
X142438095Y-64813920D01*
X142342857Y-64766300D01*
X141580952Y-65385348D02*
X140819047Y-65385348D01*
X140390476Y-65480586D02*
X139914285Y-65480586D01*
X140485714Y-65766300D02*
X140152380Y-64766300D01*
X139819047Y-65766300D01*
X139533333Y-65718681D02*
X139390476Y-65766300D01*
X139152380Y-65766300D01*
X139057142Y-65718681D01*
X139009523Y-65671062D01*
X138961904Y-65575824D01*
X138961904Y-65480586D01*
X139009523Y-65385348D01*
X139057142Y-65337729D01*
X139152380Y-65290110D01*
X139342857Y-65242491D01*
X139438095Y-65194872D01*
X139485714Y-65147253D01*
X139533333Y-65052015D01*
X139533333Y-64956777D01*
X139485714Y-64861539D01*
X139438095Y-64813920D01*
X139342857Y-64766300D01*
X139104761Y-64766300D01*
X138961904Y-64813920D01*
X138342857Y-64766300D02*
X138152380Y-64766300D01*
X138057142Y-64813920D01*
X137961904Y-64909158D01*
X137914285Y-65099634D01*
X137914285Y-65432967D01*
X137961904Y-65623443D01*
X138057142Y-65718681D01*
X138152380Y-65766300D01*
X138342857Y-65766300D01*
X138438095Y-65718681D01*
X138533333Y-65623443D01*
X138580952Y-65432967D01*
X138580952Y-65099634D01*
X138533333Y-64909158D01*
X138438095Y-64813920D01*
X138342857Y-64766300D01*
X137628571Y-64766300D02*
X137057142Y-64766300D01*
X137342857Y-65766300D02*
X137342857Y-64766300D01*
G04 #@! TO.C,TH1*
X137585940Y-58946205D02*
X137585940Y-59517634D01*
X138585940Y-59231920D02*
X137585940Y-59231920D01*
X138585940Y-59850967D02*
X137585940Y-59850967D01*
X138062131Y-59850967D02*
X138062131Y-60422396D01*
X138585940Y-60422396D02*
X137585940Y-60422396D01*
X138585940Y-61422396D02*
X138585940Y-60850967D01*
X138585940Y-61136681D02*
X137585940Y-61136681D01*
X137728798Y-61041443D01*
X137824036Y-60946205D01*
X137871655Y-60850967D01*
X142225940Y-57231920D02*
X141225940Y-57231920D01*
X142225940Y-57803348D01*
X141225940Y-57803348D01*
X141225940Y-58136681D02*
X141225940Y-58708110D01*
X142225940Y-58422396D02*
X141225940Y-58422396D01*
X142130702Y-59612872D02*
X142178321Y-59565253D01*
X142225940Y-59422396D01*
X142225940Y-59327158D01*
X142178321Y-59184300D01*
X142083083Y-59089062D01*
X141987845Y-59041443D01*
X141797369Y-58993824D01*
X141654512Y-58993824D01*
X141464036Y-59041443D01*
X141368798Y-59089062D01*
X141273560Y-59184300D01*
X141225940Y-59327158D01*
X141225940Y-59422396D01*
X141273560Y-59565253D01*
X141321179Y-59612872D01*
X141559274Y-61231920D02*
X142225940Y-61231920D01*
X141178321Y-60993824D02*
X141892607Y-60755729D01*
X141892607Y-61374777D01*
X142225940Y-61755729D02*
X141225940Y-61755729D01*
X142225940Y-62327158D02*
X141654512Y-61898586D01*
X141225940Y-62327158D02*
X141797369Y-61755729D01*
X141225940Y-62660491D02*
X141225940Y-63327158D01*
X142225940Y-62898586D01*
G04 #@! TD*
M02*
