M48
;DRILL file {KiCad 5.0.2-bee76a0~70~ubuntu18.04.1} date mar 29 ene 2019 19:41:19 CET
;FORMAT={-:-/ absolute / metric / decimal}
FMAT,2
METRIC,TZ
T1C0.400
T2C0.800
T3C1.000
T4C3.000
%
G90
G05
T1
X123.797Y-80.323
X123.804Y-77.087
X123.807Y-70.941
X123.85Y-61.931
X123.977Y-58.977
X124.02Y-67.946
X137.906Y-68.738
X138.054Y-61.83
X139.227Y-69.47
X139.5Y-70.74
X139.923Y-61.799
X139.981Y-58.693
X140.309Y-73.315
X140.472Y-76.219
X140.708Y-55.007
X140.881Y-51.99
X143.606Y-76.219
X143.642Y-73.369
X143.784Y-61.565
X143.995Y-85.23
X144.043Y-82.114
X144.101Y-58.142
X144.625Y-51.99
X144.625Y-55.124
X145.016Y-87.433
X145.321Y-68.192
X147.033Y-61.71
X147.078Y-89.483
X147.091Y-58.2
X157.919Y-73.111
X158.064Y-76.144
T2
X134.879Y-52.442
X134.879Y-54.982
X134.879Y-57.522
X134.879Y-60.062
X134.879Y-62.602
X134.879Y-65.142
X134.879Y-67.682
X134.879Y-70.222
X134.879Y-72.762
X134.879Y-75.302
X134.879Y-77.842
X134.879Y-80.382
X134.879Y-82.922
X134.879Y-85.462
X134.879Y-88.002
X150.119Y-52.442
X150.119Y-54.982
X150.119Y-57.522
X150.119Y-60.062
X150.119Y-62.602
X150.119Y-65.142
X150.119Y-67.682
X150.119Y-70.222
X150.119Y-72.762
X150.119Y-75.302
X150.119Y-77.842
X150.119Y-80.382
X150.119Y-82.922
X150.119Y-85.462
X150.119Y-88.002
T3
X161.155Y-60.943
X161.155Y-63.483
X161.155Y-66.023
X161.155Y-68.563
X161.155Y-71.103
X161.155Y-73.643
X161.155Y-76.183
X153.72Y-52.454
X153.72Y-54.994
X153.72Y-57.534
X153.72Y-60.074
X153.72Y-62.614
X153.72Y-65.154
X153.72Y-67.694
X153.72Y-70.234
X153.72Y-72.774
X153.72Y-75.314
X153.72Y-77.854
X153.72Y-80.394
X153.72Y-82.934
X153.72Y-85.474
X153.72Y-88.014
X131.315Y-52.444
X131.315Y-54.984
X131.315Y-57.524
X131.315Y-60.064
X131.315Y-62.604
X131.315Y-65.144
X131.315Y-67.684
X131.315Y-70.224
X131.315Y-72.764
X131.315Y-75.304
X131.315Y-77.844
X131.315Y-80.384
X131.315Y-82.924
X131.315Y-85.464
X131.315Y-88.004
T4
X126.6Y-53.6
X126.7Y-84.9
X158.Y-53.6
X158.Y-84.9
T0
M30
